<svg xmlns="http://www.w3.org/2000/svg" xmlns:xlink="http://www.w3.org/1999/xlink" viewBox="0 0 1000 1000">
  <defs>
    <linearGradient id="a" data-name="未命名的渐变 5" x1="-757.534" y1="106.249" x2="-490.654" y2="-260.581" gradientTransform="matrix(0.674, 0.034, 0.087, -0.743, 880.783, 727.509)" gradientUnits="userSpaceOnUse">
      <stop offset="0" stop-color="#b7ed26"/>
      <stop offset="1" stop-color="#47610f"/>
    </linearGradient>
    <linearGradient id="b" data-name="未命名的渐变 2" x1="3802.165" y1="-2026.731" x2="3819.665" y2="-2100.331" gradientTransform="matrix(0.736, 0, 0, -0.736, -2225.778, -909.734)" gradientUnits="userSpaceOnUse">
      <stop offset="0" stop-color="#1e1500"/>
      <stop offset="1" stop-color="#663e00"/>
    </linearGradient>
    <linearGradient id="c" data-name="未命名的渐变 3" x1="-757.237" y1="106.343" x2="-489.967" y2="-263.387" gradientTransform="matrix(0.674, 0.034, 0.087, -0.743, 876.383, 722.347)" gradientUnits="userSpaceOnUse">
      <stop offset="0" stop-color="#b7ed26"/>
      <stop offset="1" stop-color="#5b7c13"/>
    </linearGradient>
    <radialGradient id="d" data-name="未命名的渐变 4" cx="3677.147" cy="-1653.493" r="279.77" gradientTransform="matrix(0.64, 0.363, 0.612, -1.08, -902.129, -2720.518)" gradientUnits="userSpaceOnUse">
      <stop offset="0" stop-color="#9d6e00"/>
      <stop offset="1" stop-color="#623b00"/>
    </radialGradient>
    <radialGradient id="e" data-name="未命名的渐变 6" cx="3585.918" cy="-1784.695" r="279.77" gradientTransform="matrix(0.906, -0.125, -0.114, -0.83, -3000.697, -635.644)" gradientUnits="userSpaceOnUse">
      <stop offset="0" stop-color="#ffc022"/>
      <stop offset="1" stop-color="#804d00" stop-opacity="0"/>
    </radialGradient>
    <radialGradient id="f" cx="3405.06" cy="-1973.099" r="279.77" gradientTransform="matrix(1.036, -0.144, -0.176, -1.268, -3529.559, -1385.575)" xlink:href="#e"/>
    <linearGradient id="g" data-name="未命名的渐变 14" x1="1332.907" y1="180.598" x2="1427.407" y2="201.098" gradientTransform="matrix(0.417, -0.048, -0.048, -0.468, 38.694, 457.525)" gradientUnits="userSpaceOnUse">
      <stop offset="0" stop-color="#2d2d2d"/>
      <stop offset="1" stop-color="#2d2d2d" stop-opacity="0"/>
    </linearGradient>
    <radialGradient id="h" data-name="未命名的渐变 8" cx="3323.303" cy="-1988.096" r="98.551" gradientTransform="matrix(0.961, -1.351, -1.234, -0.878, -5140.763, 3156.102)" gradientUnits="userSpaceOnUse">
      <stop offset="0" stop-color="#fff"/>
      <stop offset="0.451" stop-color="#ededed"/>
      <stop offset="1" stop-color="#838383"/>
    </radialGradient>
    <linearGradient id="i" data-name="未命名的渐变 17" x1="3753.074" y1="-1738.543" x2="3846.474" y2="-1831.843" gradientTransform="matrix(0.736, 0, 0, -0.736, -2225.778, -909.734)" gradientUnits="userSpaceOnUse">
      <stop offset="0" stop-color="#fff"/>
      <stop offset="1" stop-color="#fff" stop-opacity="0"/>
    </linearGradient>
    <radialGradient id="j" data-name="未命名的渐变 10" cx="3270.281" cy="-1880.416" r="98.551" gradientTransform="matrix(0.959, -1.569, -1.106, -0.676, -4888.33, 4237.701)" gradientUnits="userSpaceOnUse">
      <stop offset="0" stop-color="#fff"/>
      <stop offset="1" stop-color="#838383"/>
    </radialGradient>
    <linearGradient id="k" x1="3962.56" y1="411.29" x2="4023.36" y2="361.79" gradientTransform="matrix(0.736, 0, 0, -0.736, -2564.578, 674.704)" xlink:href="#i"/>
    <linearGradient id="l" data-name="未命名的渐变 13" x1="3551.31" y1="-2169.693" x2="3539.911" y2="-1747.593" gradientTransform="matrix(0.736, 0, 0, -0.736, -2219.89, -908.262)" gradientUnits="userSpaceOnUse">
      <stop offset="0" stop-color="#fff" stop-opacity="0"/>
      <stop offset="0.69" stop-color="#fff" stop-opacity="0.404"/>
      <stop offset="1" stop-color="#fff" stop-opacity="0"/>
    </linearGradient>
    <linearGradient id="m" x1="3549.776" y1="-2169.735" x2="3538.376" y2="-1747.635" gradientTransform="matrix(0.736, 0, 0, -0.736, -2225.778, -909.734)" xlink:href="#l"/>
    <linearGradient id="n" x1="2012.593" y1="279.019" x2="1819.263" y2="336.979" gradientTransform="matrix(0.22, 0.07, 0.344, -0.309, -99.37, 247.24)" xlink:href="#g"/>
    <linearGradient id="o" data-name="未命名的渐变 15" x1="1144.789" y1="-187.359" x2="994.129" y2="-435.959" gradientTransform="matrix(0.736, 0, 0, -0.736, -403.598, 547.503)" gradientUnits="userSpaceOnUse">
      <stop offset="0" stop-color="#dadada"/>
      <stop offset="1" stop-color="#fff" stop-opacity="0"/>
    </linearGradient>
    <linearGradient id="p" x1="3427.037" y1="-1686.482" x2="3428.037" y2="-1699.382" gradientTransform="matrix(2.783, 0.102, 0.132, -3.587, -8977.439, -6004.783)" xlink:href="#i"/>
    <linearGradient id="q" x1="3600.118" y1="-1721.708" x2="3601.118" y2="-1756.108" gradientTransform="matrix(1.485, 0, 0, -1.774, -4789.002, -2645.54)" xlink:href="#i"/>
  </defs>
  <title>gluster</title>
  <g opacity="0.2" style="isolation: isolate">
    <ellipse cx="488.977" cy="714.131" rx="231.947" ry="166.798"/>
  </g>
  <path d="M422.7,574.631c-55.215.44-109.952,8.926-160.592,30.362a336.851,336.851,0,0,0-122.576,89.064A447.031,447.031,0,0,0,316.593,830.32c64.163,27.276,135.04,37.2,204.48,30.96,81.208-7.3,182.528-69.781,156.176-135.76,18-5.78,10.885-39.575,4.927-53.7-12.491-29.629-38.44-52.081-67.442-65.968s-61.043-20.037-92.9-24.382a695.139,695.139,0,0,0-99.136-6.832Z" fill="url(#a)"/>
  <path d="M528.648,538.871c-21.912,41.509-36.61,86.584-46.184,132.536-5.946,28.538-9.958,57.643-9.044,86.784q0.223,7.11.836,14.2,19.838-17.074,40.519-33.134c35.6-27.646,72.968-52.95,108.664-80.472,24.094-18.572,47.867-38.654,63.614-64.68,7.875-13.013,13.619-27.43,15.8-42.482s0.713-30.757-5.2-44.769a75.978,75.978,0,0,0-35.023-37.612,78.254,78.254,0,0,0-50.992-6.893c-19.063,3.906-36.191,14.859-49.839,28.73s-24.07,30.585-33.154,47.793h0Z" fill="url(#b)"/>
  <path d="M424.512,569.423c-2.072-.007-4.14.007-6.21,0.023-55.215.44-109.952,8.926-160.592,30.362a336.705,336.705,0,0,0-122.576,89.064A446.855,446.855,0,0,0,312.2,825.127c64.163,27.276,135.256,39.186,204.48,30.96,48.043-5.709,96.7-22.152,130.576-56.7C677.86,773.1,685.6,744.5,675.039,723.714c20.726-14.438,9.251-40.546,2.737-57.089-12.491-29.629-38.44-52.081-67.442-65.968s-61.043-20.037-92.9-24.382A704.514,704.514,0,0,0,424.5,569.42Z" fill="url(#c)"/>
  <g opacity="0.181" style="isolation: isolate">
    <path d="M157.67,685.965c140.283-13.361,376.76-5.344,514.371,37.409-1.336-128.256-243.16-221.786-514.371-37.409h0Z" fill="#fff"/>
  </g>
  <g opacity="0.121">
    <path d="M150.647,687.131c178-30.187,425.737-5.2,522.549,36.432C576.391,704.826,307.83,669.435,150.647,687.131Z"/>
    <path d="M439.884,838.977c22.8-34.022,107-124.539,124.782-136.154l16.394,2.251c-27.666,19.806-107.713,89.437-141.181,133.9Z"/>
    <path d="M328.52,810.86c22.8-34.022,101.8-107.882,127.9-119.5l16.394,2.251c-32.872,11.479-110.841,72.785-144.3,117.252Z"/>
    <path d="M231.656,765.078c22.8-34.022,72.646-73.535,98.763-85.146l16.394,2.251c-32.872,11.479-79.611,41.558-115.154,82.9Z"/>
    <path d="M499.209,579.962c30.083,30.9,70.565,92.271,74.819,116.376l19.517,6.077c-20.38-38.542-51.506-84.233-94.339-122.456Z"/>
    <path d="M382.62,583.127c33.205,29.858,76.814,75.614,81.068,99.72l16.394-2.251c-20.38-38.542-53.588-64.459-97.46-97.475Z"/>
    <path d="M255.652,608.079c21.755,14.245,57.033,39.184,68.574,68.494l16.394-2.251c-16.217-23.969-57.752-57.172-84.969-66.244h0Z"/>
  </g>
  <g opacity="0.75" style="isolation: isolate">
    <path d="M645.321,628.8c4.484,25.3-32.038,31.054-119.824,46.616s-109.879,24.112-134.242,35.276c-7.941-27.144,26.565-78.481,114.354-94.043S640.837,603.5,645.321,628.8Z"/>
  </g>
  <path d="M330.7,383.479c-14.317,28.21-21.3,59.815-22.65,91.416s2.789,63.265,9.818,94.112c9.773,42.886,25.323,84.832,49.648,121.48q6.8,10.245,14.469,19.878a369.206,369.206,0,0,1,82.56-46.382c28.794-11.6,58.908-19.519,88.592-28.594,26.53-8.11,52.917-17.228,77.288-30.478s46.8-30.856,62.721-53.573c24.134-34.423,31.694-79.307,23.016-120.44S683.3,352.581,651.078,325.585c-43.585-36.511-102.088-54.573-158.7-49.23a209.581,209.581,0,0,0-94.68,32.811,194.941,194.941,0,0,0-67,74.312h0Z" fill="url(#d)"/>
  <path d="M329.5,383.015c-14.317,28.21-21.3,59.815-22.65,91.416s2.789,63.265,9.818,94.112c9.773,42.886,25.323,84.832,49.648,121.48q6.8,10.245,14.469,19.878a369.206,369.206,0,0,1,82.56-46.382c28.794-11.6,58.908-19.519,88.592-28.594,26.53-8.11,52.918-17.228,77.288-30.478s46.8-30.856,62.721-53.573c24.134-34.423,31.694-79.307,23.016-120.44s-32.863-78.316-65.089-105.312c-43.585-36.511-102.088-54.573-158.7-49.23a209.581,209.581,0,0,0-94.68,32.811,194.941,194.941,0,0,0-67,74.312h0Z" fill="url(#e)"/>
  <g opacity="0.526" style="isolation: isolate">
    <path d="M377.546,329.093c-6.2.023-12.418,2.055-18.4,3.857-13.225,3.986-25.63,9.137-35.6,19.456s-17.922,22.826-24.223,36.164c-9.113,19.29-14.917,41.007-13.111,62.634a81.546,81.546,0,0,0,8.662,30.917c10.837,17.782,11.069,22.186,28.871,27.147,5.313-31.082,22.3-61.083,34.216-85.352,9.535-19.278,20.106-36.506,33.964-52.332,10.31-9.676,17.939-21.638,31.36-24.834-5.941-6.348-11.995-11.367-19.765-14.588-7.458-3.091-18-3.1-25.982-3.069h0Z"/>
  </g>
  <path d="M444.184,185.356c0.674,7,2.267,29.418,3.4,53.829,1.212,26.121,1.524,45.1,1.717,54.685a33.965,33.965,0,0,1-17.014,8.99c-6.18,1.155-12.086.082-15.236-4.2a527.089,527.089,0,0,0,12.989-58.889c3.725-23.43,5.278-45.017,5.219-51.811q-0.1-11.025.3-23.8c-24.291,19.36-50.717,39.027-78.13,54.145-26.941,11.66-51.932,18.387-69.945,20.5-17.894,2.1-27.006-.473-22.838-7.387,4.534-7.52,15.365-14.143,29.61-20.953,13.389-6.4,32.9-14.3,50.694-22.078,36.617-10.532,65.568-20.321,96.4-35.024,0.982,11.492,1.932,22.713,2.826,31.991h0Z" fill="#2d2d2d"/>
  <g opacity="0.524" style="isolation: isolate">
    <path d="M335.881,384.763c-14.317,28.21-21.3,59.814-22.65,91.417s2.789,63.267,9.817,94.111c9.773,42.886,25.323,84.829,49.646,121.477q6.8,10.246,14.468,19.878a369.326,369.326,0,0,1,82.555-46.383c28.793-11.6,58.908-19.519,88.6-28.594,26.53-8.11,52.916-17.228,77.292-30.478s46.8-30.857,62.722-53.572c24.134-34.423,31.694-79.309,23.016-120.439s-32.864-78.315-65.091-105.314c-43.585-36.512-102.09-54.572-158.692-49.23a209.613,209.613,0,0,0-94.685,32.811,194.95,194.95,0,0,0-67,74.311v0Z" fill="url(#f)"/>
  </g>
  <g opacity="0.374" style="isolation: isolate">
    <path d="M600.873,289.587c11.052-1.266,20.634,3.789,21.4,11.292s-7.567,14.611-18.619,15.877-20.634-3.789-21.4-11.292S589.822,290.853,600.873,289.587Z" fill="url(#g)"/>
  </g>
  <path d="M675.568,176.193c-3.817,8.866-15.918,35.756-30.066,65.624-15.086,31.849-26.826,55.257-32.733,67.112-6.659,3.111-14.521,4.566-20.844,3.28-6.3-1.281-10.873-5.269-10.423-13.014,14.229-18.974,32.414-43.256,53.415-75.056,19.278-29.189,34.574-55.415,39.52-65.112q9.408-18.45,21.192-40.026c25.018,46.811,57.354,89.64,94.664,131.416,24.881,31.051,39.987,46.806,55.959,66.117,12.9,15.6,18.394,24.965,8.879,23.978-19.152-1.984-54.792-28.72-89.816-69.992-29.04-40.664-53-92.016-69.952-139.68-6.96,15.892-14.264,32.484-19.8,45.355Z" fill="#2d2d2d"/>
  <g opacity="0.504" style="isolation: isolate">
    <path d="M551.469,345.311c17.718-.665,35.477,5.722,49.205,16.943a85.022,85.022,0,0,1,27.9,44.253c4.326,16.6,3.859,34.262-.118,50.948s-11.382,32.433-20.638,46.875c-13.386,20.887-31.244,39.6-53.77,50a87.03,87.03,0,0,1-35.99,8.271,71.162,71.162,0,0,1-35.628-9.159,71.916,71.916,0,0,1-27.241-28.815,90.28,90.28,0,0,1-9.965-38.581c-1.043-26.766,8.39-53,21.44-76.394,9.041-16.207,20.023-31.584,34.265-43.483s31.993-20.156,50.539-20.852h0Z"/>
  </g>
  <path d="M548.552,340.184c17.718-.665,35.478,5.722,49.206,16.943a85.026,85.026,0,0,1,27.9,44.253c4.326,16.6,3.859,34.262-.118,50.945S614.158,484.758,604.9,499.2c-13.386,20.888-31.244,39.6-53.769,50a87.031,87.031,0,0,1-35.99,8.271,71.161,71.161,0,0,1-35.627-9.159A71.916,71.916,0,0,1,452.276,519.5a90.273,90.273,0,0,1-9.965-38.581c-1.043-26.766,8.39-53,21.44-76.4,9.041-16.207,20.023-31.584,34.265-43.483s31.993-20.156,50.537-20.852h0Z" fill="url(#h)"/>
  <path d="M552.456,360.552c-0.683.009-1.366,0.038-2.047,0.069a68.048,68.048,0,0,0-32.386,10.1,73.26,73.26,0,0,0-16.032,13.456,110.3,110.3,0,0,1,33.651-6.9c13.566-.71,27.506.828,39.793,6.624a54.043,54.043,0,0,1,16.446,11.822,43.916,43.916,0,0,1,10.143,17.458c0.144,0.488.267,0.98,0.391,1.472a45.991,45.991,0,0,0-.736-21.53c-3.065-10.471-10.514-19.418-19.874-25.026a55.887,55.887,0,0,0-29.35-7.545h0Z" opacity="0.614" fill="url(#i)" style="isolation: isolate"/>
  <path d="M373.681,327.112a75.283,75.283,0,0,0-19.689,2.691c-14.153,3.9-27.035,11.81-37.7,21.9s-19.179,22.314-25.922,35.354c-9.753,18.858-15.964,40.088-14.03,61.229a74.533,74.533,0,0,0,9.27,30.224,60.868,60.868,0,0,0,22.035,22.472,57.8,57.8,0,0,0,14.376,5.865c6.4,5.754,23.3-53.145,35.675-81.536,15.158-34.781,45.847-64.275,63.368-79.493a65.164,65.164,0,0,0-22.334-14.261,70.147,70.147,0,0,0-25.049-4.439v0Z" fill="url(#j)"/>
  <path d="M358.7,351.44a40,40,0,0,0-10.788,1.426,48.439,48.439,0,0,0-20.655,12.283A69.87,69.87,0,0,0,316.175,379.5a66.175,66.175,0,0,1,21.162-10.35,55.714,55.714,0,0,1,34.066,1.265,49.482,49.482,0,0,1,11.685,6.279q3.262-4.073,6.831-7.889a35.49,35.49,0,0,0-17.527-14.813,37.94,37.94,0,0,0-13.686-2.553h0Z" opacity="0.626" fill="url(#k)" style="isolation: isolate"/>
  <path d="M430.831,347.3c-89.385,104.474-115.258,247.238-48.4,348.709C387.91,558.087,434.485,439.547,430.831,347.3Z" fill="url(#l)"/>
  <path d="M424.928,345.808c-135.016,104.472-85.816,301.7-48.4,348.711C308.409,527.159,374.121,441.007,424.928,345.808Z" opacity="0.366" fill="url(#m)" style="isolation: isolate"/>
  <g opacity="0.476" style="isolation: isolate">
    <path d="M444.019,286.959c5.819,1.857,6.072,7.375.565,12.325s-14.689,7.458-20.508,5.6-6.072-7.375-.565-12.325S438.2,285.1,444.019,286.959Z" fill="url(#n)"/>
  </g>
  <g opacity="0.222" style="isolation: isolate">
    <path d="M180.385,691.338c112.225,1.336,375.428,14.7,484.981,41.417C537.044,879.943,312.2,810.9,180.385,691.338h0Z" fill="url(#o)"/>
  </g>
  <path d="M562.088,416.5q-0.831.008-1.666,0.059c-15.586.011-28.976,11.638-35.3,25.242a55.149,55.149,0,0,0-5.15,29.618c0.832,18.552,12.45,37.266,30.444,43.441,12.261,4.18,26.374.808,35.869-7.875,23.742-20.534,22.962-62.449-1.4-82.168a36.03,36.03,0,0,0-22.794-8.316v0Z" fill="#1d1d1d"/>
  <path d="M342.009,397.559q-0.616-.017-1.236,0c-12.379.326-22.314,10.466-25.93,21.746-2.646,8.328-2.113,17.6.655,25.823,3.785,9.087,11.87,17.4,22,18.623,2.606-.041,7,1.352,7.348-2.383,5.114-15.739,11.788-30.88,18.6-45.928,2.159-4.437-2.428-7.783-5.128-10.542a24.4,24.4,0,0,0-16.31-7.342h0Z" fill="#1d1d1d"/>
  <path d="M340.809,398.071c-14.606.342-26.72,14.217-27.362,31.73-0.033.894-.039,1.775-0.012,2.653a88.273,88.273,0,0,1,50.057-21.022c-4.768-7.829-12.44-13.028-21.259-13.351h0q-0.714-.026-1.422-0.009h0Z" opacity="0.324" fill="url(#p)" style="isolation: isolate"/>
  <path d="M561.7,416.783c-22.967,0-41.586,22.242-41.586,49.684a59.557,59.557,0,0,0,.528,7.867c14.644-19.469,41.726-32.525,72.708-32.525,1.5,0,3,.009,4.486.07-7.16-14.989-20.656-25.1-36.136-25.1v0h0Z" opacity="0.312" fill="url(#q)" style="isolation: isolate"/>
</svg>
