<svg xmlns="http://www.w3.org/2000/svg" viewBox="0 0 100 100">
  <title>jenkins</title>
  <g>
    <rect width="100" height="100" fill="#d33833"/>
    <g>
      <path d="M59,86.45,32.057,77.494,27.364,55.245l11.6-7.893H63.869L68.9,52.924Z" fill="#335061"/>
      <g>
        <path d="M40.2,51.249l-9.827,4.378s4.065,16.215,2.01,21.263L30.9,76.353l-.712-10.559-3.308-10.57L37.158,48.3,40.2,51.249" fill="#49728b"/>
        <path d="M41.223,60.227l1.385,1.7v6.3h-1.7Z" fill="#49728b"/>
        <path d="M41.267,69.161l-4.735.223,1.34.938,3.395.491Z" fill="#49728b"/>
        <path d="M61.011,67.374l-3.663.715.536,2.948c1.34.625,3.663-1.027,3.663-1.027Z" fill="#49728b"/>
        <path d="M61.145,49.06l7.326,5.45.223-2.5-5.584-5.137L61.145,49.06" fill="#49728b"/>
      </g>
      <polygon points="48.459 63.131 58.326 67.468 63.864 58.652 60.421 56.909 51.667 58.652 48.459 63.131" fill="#81b0c4"/>
      <path d="M50.988,12.593c-15.436,0-20.8,24.317-20.8,24.317l4.866,4.675,4.554,8.388S47.774,54,50.988,54C60.108,54,67.5,43.683,67.5,33.3,67.5,21.862,60.108,12.593,50.988,12.593Z" fill="#f0d6b7"/>
      <g>
        <path d="M36.13,40.483l1.385-1.34a.888.888,0,0,1,.715.8c.089.715.4,7.326,4.914,10.9.4.313-3.35-.536-3.35-.536l-3.35-5.226Z" fill="#f7e4cd"/>
        <path d="M55.383,38.473s.223-3.172,1.117-2.948a1.178,1.178,0,0,1,.849,1.117s-2.1,1.34-1.965,1.831" fill="#f7e4cd"/>
        <path d="M64.049,26.859s-1.742.357-1.876,1.876c-.179,1.519,1.876.313,2.189.223Z" fill="#f7e4cd"/>
        <path d="M51.407,26.948s-2.323.313-2.323,1.787,2.636,1.34,3.35.715Z" fill="#f7e4cd"/>
        <path d="M37.158,33.782s-3.976-2.412-4.378-.089-1.34,3.976.625,6.388L30,36.286l2.251-5.693,3.876.988,1.027,2.2" fill="#f7e4cd"/>
        <path d="M39.034,27.171s1.787-9.2,10.766-10.989c7.415-1.474,11.3.313,12.776,2.01,0,0-6.611-7.862-12.865-5.45-6.3,2.412-10.9,6.79-10.766,9.649a37.337,37.337,0,0,1,.089,4.78" fill="#f7e4cd"/>
        <path d="M63.334,19.22s-3.038-.089-3.127,2.636a2.1,2.1,0,0,0,.223.849s2.412-2.725,3.886-1.251Z" fill="#f7e4cd"/>
        <path d="M50.023,22.972s-.536-4.2-4.065-1.742c-2.323,1.563-2.1,3.752-1.653,4.2.4.4.313,1.251.625.67s.223-2.457,1.385-2.993c1.117-.536,2.993-1.117,3.708-.134" fill="#f7e4cd"/>
        <path d="M48.5,40.93c.134-.179.893-.447,1.965.045,0,0-1.251.223-1.161,2.323l-.536-.089s-.536-1.921-.268-2.278" fill="#f7e4cd"/>
      </g>
      <g>
        <path d="M44.378,88.28,41.267,69.161l16.3-1.787.137,22.163Z" fill="#fff"/>
        <path d="M62.352,76.8l12.954-3.325-2.1-7.976-2.368-.313L61.235,68Z" fill="#fff"/>
        <path d="M52.894,56.247l6.663.257L58.394,67.7Z" fill="#fff"/>
        <path d="M45.824,51.472l-6.7-.556L45.734,54.6Z" fill="#fff"/>
      </g>
      <path d="M31.618,31.46l2.725-.938,2.189,1.027,1.027,2.323,1.251-.223.313-1.251L38.5,29.985l.625-5.762L38.587,21.1l1.876-2.189,4.065-3.261-1.161-1.563L37.694,16.9l-2.412,1.876-1.34,2.948-2.1,2.814-.625,3.35.4,3.574" fill="#6d6b6d"/>
      <g>
        <path d="M35.907,21.632s1.563-3.886,7.862-5.762.313-1.34.313-1.34l-6.79,2.636-3.8,4.735,2.412-.268" fill="#dcd9d8"/>
        <path d="M32.78,30.745s-2.189-7.326,6.164-8.353l-.313-1.251-5.762,1.34-1.7,5.45.4,3.574,1.206-.759" fill="#dcd9d8"/>
        <path d="M56.008,68s-.536,10.9,1.027,18.627a19.366,19.366,0,0,1-7.728,2.5l9.85-.625L57.572,67.374Z" fill="#dcd9d8"/>
        <path d="M62.307,74.7a16.519,16.519,0,0,1,3.127-1.161l-1.161-5.762,1.34-.536s.938,5.45.938,6.075c0,0,5.852.313,6.388.313a9.545,9.545,0,0,0,.938-4.914l1.251,5.226-1.653,2.5-5,.313-1.027-1.34-4.824.938Z" fill="#dcd9d8"/>
        <path d="M58.84,65.706S55.7,59.6,55.7,58.8c0,0,.536-1.251,1.251-.938s2.323,1.161,2.323,1.161l-.359-3.077-5.389,1.228,3.827,9.041Z" fill="#dcd9d8"/>
        <path d="M41.133,51.785s3.261,1.34,4.288,1.027l.089,1.251-4.69-1.876.313-.4" fill="#dcd9d8"/>
        <path d="M61.782,84.468,58.91,85.2l-.489-6.51,2.256-.438Z" fill="#dcd9d8"/>
      </g>
      <polygon points="46.449 51.249 45.336 54.805 47.352 60.691 52.072 58.932 54.713 56.52 57.125 56.52 62.559 57.458 63.406 53.39 61.547 50.31 54.371 53.625 51.975 51.9 46.449 51.249" fill="#d33833"/>
      <path d="M58.287,56.609s-.715-1.027-.223-1.34c.536-.313,1.027,0,1.34-.536s0-.849.089-1.474.625-.715,1.161-.849c.536-.089,2.01-.313,2.189.223l-.749-2.179-4.97,1.838-.356,3.869Z" fill="#ef3d3a"/>
      <path d="M55.562,53.437c-.313-.357-2.055-.357-2.055-.357L51.05,51.829l-5.144-.656L45.693,55.5s.96,2.717,1.541,3.815C47.126,58,47,56.461,46.9,55.135c-.223-2.457.581-2.01,2.68-2.01a6.076,6.076,0,0,1,2.1.625c.581,1.161-.938.893.67,1.787C53.686,56.3,56.1,55.09,55.562,53.437Z" fill="#ef3d3a"/>
      <g>
        <path d="M50.023,22.972c-2.859-.67-4.288,1.206-5.137,3.127-.759-.179-.447-1.251-.268-1.787.491-1.385,2.591-3.261,4.244-3.038.759.134,1.742.8,1.161,1.7" fill="#231f20"/>
        <path d="M63.96,26.189h.134a27.065,27.065,0,0,0,2.01,3.931c-.536,1.251-4.11,2.412-4.065.134.759-.357,2.1-.089,2.814-.491a7.162,7.162,0,0,1-.893-3.574" fill="#231f20"/>
        <path d="M51.5,26.233c.625,1.117.8,2.278,1.7,3.127.4.4,1.161.849.759,1.921a2.378,2.378,0,0,1-1.117.938c-1.34.4-4.512.089-3.44-1.608,1.117.045,2.636.715,3.484-.089-.67-1.027-1.787-3.082-1.385-4.288" fill="#231f20"/>
        <path d="M63.424,37.624c-2.055,1.3-4.333,2.725-7.683,2.412a2.285,2.285,0,0,1-.313-2.9c.357.625.134,1.787,1.161,1.921,1.921.313,4.11-1.161,5.494-1.7.849-1.429-.089-1.965-.849-2.859-1.563-1.876-3.663-4.244-3.574-7.058.625-.447.67.715.759.893A24.209,24.209,0,0,0,62.8,34.318c.357.4.983.8,1.027,1.072.223.8-.491,1.742-.4,2.234" fill="#231f20"/>
        <path d="M36.443,36.239c-.625-.357-.8-1.965-1.563-2.01-1.072-.045-.893,2.1-.893,3.35-.759-.67-.893-2.725-.313-3.8-.625-.313-.893.357-1.251.581.491-3.216,4.735-1.519,4.02,1.876" fill="#231f20"/>
        <path d="M64.719,38.964c-.938,1.831-2.323,3.8-5.092,3.886a8.3,8.3,0,0,1,0-1.831c2.144-.223,3.484-1.3,5.092-2.055" fill="#231f20"/>
        <path d="M51.363,40.17c1.787.938,5.048,1.027,7.5.983A8.037,8.037,0,0,1,59,42.985c-3.172.134-6.835-.625-7.639-2.814" fill="#231f20"/>
        <path d="M51.005,41.912c1.251,3.082,5.45,2.725,9.023,2.636a1.775,1.775,0,0,1-.938,1.027c-1.161.447-4.288.8-5.9-.045a7.507,7.507,0,0,1-2.189-2.457c-.268-.313-1.563-1.161,0-1.161" fill="#231f20"/>
        <path d="M71.062,67.911c-1.608.313-2.77,1.921-4.333,1.787.893-1.251,2.412-1.742,4.333-1.787" fill="#231f20"/>
        <path d="M71.777,70.412a22.071,22.071,0,0,1-4.2.223c.625-.938,3.082-.581,4.2-.223" fill="#231f20"/>
        <path d="M72.224,72.6a41.319,41.319,0,0,1-4.735-.134c.849-.849,3.8-.313,4.735.134" fill="#231f20"/>
        <path d="M58.733,78.855c-.089,1.653.179,4.288.223,6.03a5.65,5.65,0,0,0,2.412-.536c.089-2.055-.625-3.931-.849-5.807C60.073,78.5,59.269,78.9,58.733,78.855ZM41.58,69.474a86.275,86.275,0,0,0,3.708,18.181,23.831,23.831,0,0,0,13.222.223c-.715-3.35-.4-7.371-.8-10.944-.313-2.68-.134-5.36-.581-8.085C52.569,67.911,46.092,68.625,41.58,69.474Zm16.662-.581c-.045,2.859.134,5.673.357,8.532,1.117-.179,1.831-.268,2.859-.491-.313-2.77-.313-5.852-.983-8.309A6.265,6.265,0,0,0,58.242,68.893Zm5.539-.447a6.455,6.455,0,0,0-1.608,0c.223,2.323.8,4.914.983,7.371.8.045,1.206-.357,1.831-.491C65.076,73.182,64.853,70.189,63.781,68.447Zm8.443,7.683c1.653-.4,2.68-2.412,2.189-4.467a21.7,21.7,0,0,0-1.429-4.869c-.447-.67-1.608-1.519-2.546-.893-1.519.983-4.2,1.251-5.316,2.457a40.262,40.262,0,0,1,.938,6.745c1.921.134,4.244-.536,5.807.179-1.117.357-2.546.357-3.484.893a8,8,0,0,0,3.842-.045ZM57.036,66.213c-1.161-2.68-2.189-5.494-3.886-7.683-1.653,1.117-3.484,2.144-3.976,4.2A41.6,41.6,0,0,0,57.036,66.213Zm2.859-8.4a34.042,34.042,0,0,1-1.117,8.353,72.806,72.806,0,0,0,4.556-7.192A2.747,2.747,0,0,0,59.895,57.815ZM56.678,56.7c-.67-.089-1.206.759-2.055.4a7.765,7.765,0,0,1-.581.67C55.919,60,56.768,63.22,58.2,65.856c.759-2.546.67-5.316.849-8.085C58.019,57.815,57.393,56.788,56.678,56.7Zm-2.055-2.725a5.1,5.1,0,0,0,.268,1.921C57.393,56.654,56.946,52.41,54.624,53.973Zm-2.814-.938a15.718,15.718,0,0,0-4.154-1.519c-1.742-.313-1.563,2.368-1.519,4.02a11.484,11.484,0,0,0,1.027,3.484c.134.4.179.8.491.893a8.685,8.685,0,0,0,3.172-.983,38.013,38.013,0,0,0,3.127-2.368c0-.357.045-.67.045-1.027a5.284,5.284,0,0,0-2.234-.581c.625-.313,1.519-.313,2.055-.67v-.4A3.312,3.312,0,0,1,51.809,53.035ZM41.357,51.159c-.893.938,2.546,2.189,3.618,2.234,0-.581.313-1.117.268-1.563C43.947,51.606,42.25,51.785,41.357,51.159Zm11.168.447c0,.089-.134.045-.134.134a4.614,4.614,0,0,0,3.618,1.027c.715-.536,1.34-1.117,2.1-1.608C56.366,51.293,54.222,52.365,52.524,51.606Zm10.229,3.082c-.045-1.027-.313-3.127-.938-3.484-1.34-.759-3.663,1.563-4.69,1.921a5.776,5.776,0,0,1,.313.938,2.881,2.881,0,0,1,1.831.223,3.228,3.228,0,0,0-1.653.357c-.134.4.045.983-.045,1.563a18.974,18.974,0,0,0,4.78.67A3.645,3.645,0,0,0,62.754,54.688ZM39.838,52.053c-.268-.223-2.189-2.725-2.457-2.591a42.024,42.024,0,0,0-9.649,5.986c2.77,5.941,3.886,13.267,4.11,20.28,3.172,1.474,5.986,3.618,10.274,3.842-.491-3.529-.938-6.7-1.251-10.006-1.072-.447-2.636,0-3.663-.134,0-1.206,1.563-.536,1.7-1.34.089-.625-.849-.67-.536-1.653.8.268,1.206.938,2.055,1.161.759-1.7,0-4.69.089-6.075,0-.268.134-1.474.715-1.251.536.179-.045,3.216.045,4.556.045,1.251-.134,2.412.357,3.216A98.466,98.466,0,0,1,54.49,66.928c-.983-.447-2.189-.849-3.484-1.563-.715-.4-2.9-1.206-3.127-1.876-.313-1.072.849-1.608,1.027-2.546-2.1,1.161-2.5-1.117-2.993-2.68a18.337,18.337,0,0,1-.8-3.35A39.633,39.633,0,0,1,39.838,52.053ZM60.922,49.73c2.9-1.429,3.44,5.271,2.278,7.415.179.625.759.893,1.027,1.474-1.608,2.9-3.44,5.628-5.092,8.487,1.251-.759,2.993-.134,4.422-.715.536-.223.893-1.429,1.3-2.368a48.949,48.949,0,0,0,2.77-8.577,8.957,8.957,0,0,0,.357-2.368c-.134-.938-1.385-1.608-2.01-2.189-1.161-1.072-1.921-1.965-3.127-2.948C62.4,48.658,61.324,49.149,60.922,49.73ZM33.182,24c-1.385,1.519-1.072,4.378-.938,6.388,2.5-1.563,5.807.134,5.807,2.814,1.206-.045.447-1.474.223-2.412-.715-3.082,1.206-6.388.089-9.2A7.571,7.571,0,0,0,33.182,24ZM43.1,15.155c-3.127.893-7.147,3.172-8.443,5.986.983-.134,1.7-.625,2.68-.715a11.714,11.714,0,0,0,1.3.045c.849-.223,1.563-2.1,2.189-2.814s1.385-.983,1.876-1.608c.313-.179.8-.134.849-.625-.134-.179-.268-.313-.447-.268ZM59.4,16c-3.261-1.831-8.755-3.216-12.195-1.474-2.77,1.385-6.567,3.708-7.862,6.611,1.206,2.814-.357,5.405-.447,8.264-.045,1.519.715,2.859.759,4.512-.4.67-1.653.759-2.546.715-.313-1.474-.8-3.127-2.323-3.261a3.5,3.5,0,0,0-3.8,3.395c-.134,2.189,1.653,5.762,4.2,5.494.983-.089,1.206-1.072,2.278-1.072.581,1.161-.893,1.519-1.027,2.323a6.607,6.607,0,0,0,.223,1.429,19.372,19.372,0,0,0,2.5,5.807c1.3,1.831,3.8,2.1,6.477,2.278.491-1.027,2.278-.938,3.395-.67a11.5,11.5,0,0,1-3.752-3.038c-1.206-1.34-2.457-2.814-2.546-4.556,2.323,3.216,4.244,6.03,8.443,7.46,3.172,1.072,6.924-.491,9.381-2.234a10.868,10.868,0,0,0,2.368-2.9c2.725-3.886,3.976-9.47,3.708-14.831-.134-2.234-.089-4.422-.849-5.941-.759-1.563-3.395-2.948-4.958-1.563-.268-1.519,1.3-2.457,3.127-1.921C62.62,19.086,61.279,17.076,59.4,16Zm6.03,50.12c2.546-1.251,7.281-3.395,8.889,0a26.275,26.275,0,0,1,1.563,4.69c.447,1.831-.447,5.673-2.323,6.3a11.17,11.17,0,0,1-5.584.089,2.918,2.918,0,0,1-.67-.893,7.859,7.859,0,0,0-3.886.67c.089,1.072-.625,1.206-1.3,1.429-.491,1.965.983,4.556.625,6.343-.268,1.3-1.831,1.474-2.993,1.7a8.851,8.851,0,0,0,.134,1.921A2.845,2.845,0,0,1,57.3,90.022c-3.708.447-9.291.625-12.865-.625-.983-2.412-1.787-5.405-2.591-8.175-3.484.357-6.254-1.474-8.889-2.725-.893-.4-2.189-.67-2.5-1.385a13.833,13.833,0,0,1-.268-3.35,52.875,52.875,0,0,0-1.251-9.738c-.4-1.519-1.072-2.814-1.519-4.244a27.06,27.06,0,0,1-1.385-4.333c-.313-1.965,1.563-2.1,2.77-2.948,1.831-1.34,3.306-2.055,5.271-3.261a13.677,13.677,0,0,0,2.591-1.653c.4-.8-.67-1.965-.983-2.591a7.8,7.8,0,0,1-.759-2.859,5.6,5.6,0,0,1-3.708-2.368c-1.251-1.876-2.144-5.271-1.027-7.907.089-.223.536-.625.581-.938a8.73,8.73,0,0,0-.268-2.1c-.134-3.395.581-6.3,2.859-7.326.938-3.708,4.244-4.914,7.371-6.745a24.235,24.235,0,0,1,3.8-1.608c4.78-1.742,12.106-1.429,16.081,1.563a20.935,20.935,0,0,1,5.316,5.9c2.546,5.137,2.368,13.714.581,19.968a18.23,18.23,0,0,1-1.072,3.082c-.357.715-1.385,2.1-1.251,2.725s2.368,2.368,2.859,2.814c.893.849,2.546,1.965,2.68,3.038a11.085,11.085,0,0,1-.8,3.752c-1.161,3.529-2.234,6.879-3.484,10.14" fill="#231f20"/>
      </g>
      <path d="M57.661,58.932a.581.581,0,1,1-.581-.581.591.591,0,0,1,.581.581" fill="#231f20"/>
      <path d="M58.242,61.612a.581.581,0,1,1-.581-.581.563.563,0,0,1,.581.581" fill="#231f20"/>
    </g>
  </g>
</svg>
