<?xml version="1.0" encoding="utf-8"?>
<!-- Generator: Adobe Illustrator 18.0.0, SVG Export Plug-In . SVG Version: 6.00 Build 0)  -->
<!DOCTYPE svg PUBLIC "-//W3C//DTD SVG 1.1//EN" "http://www.w3.org/Graphics/SVG/1.1/DTD/svg11.dtd">
<svg version="1.1" xmlns="http://www.w3.org/2000/svg" xmlns:xlink="http://www.w3.org/1999/xlink" x="0px" y="0px"
	 viewBox="0 0 200 200" enable-background="new 0 0 200 200" xml:space="preserve">
<g id="Layer_14">
</g>
<g id="rabbitmq">
</g>
<g id="python">
</g>
<g id="golang">
</g>
<g id="django">
</g>
<g id="postgres">
</g>
<g id="centos">
</g>
<g id="fedora">
</g>
<g id="ruby">
</g>
<g id="rails">
</g>
<g id="ubuntu">
	<rect fill="#D1462A" width="200" height="200"/>
	<path fill="#FFFFFF" d="M100,38c-34.2,0-62,27.8-62,62c0,34.2,27.8,62,62,62c34.2,0,62-27.8,62-62C162,65.8,134.2,38,100,38L100,38
		z M113.9,59.4c2.3-4,7.3-5.3,11.3-3c4,2.3,5.3,7.3,3,11.3c-2.3,4-7.3,5.3-11.3,3C113,68.4,111.6,63.3,113.9,59.4L113.9,59.4z
		 M100,64c3.3,0,6.5,0.5,9.6,1.3c0.5,3.3,2.5,6.4,5.7,8.2c3.1,1.8,6.8,2,9.9,0.8c6.1,6,10.1,14.2,10.7,23.3l-11.8,0.2
		c-1.1-12.4-11.5-22-24.1-22c-3.6,0-7.1,0.8-10.2,2.2l-5.8-10.3C88.9,65.4,94.3,64,100,64L100,64z M57.8,108.3
		c-4.6,0-8.3-3.7-8.3-8.3c0-4.6,3.7-8.3,8.3-8.3c4.6,0,8.3,3.7,8.3,8.3C66.1,104.6,62.4,108.3,57.8,108.3z M65.2,109
		c2.6-2.1,4.3-5.4,4.3-9c0-3.6-1.7-6.9-4.3-9c2.2-8.7,7.6-16.1,14.9-20.9l6.1,10.1c-6.2,4.4-10.3,11.6-10.3,19.8s4.1,15.4,10.3,19.8
		l-6.1,10.1C72.8,125.1,67.4,117.7,65.2,109L65.2,109z M125.2,143.7c-4,2.3-9,0.9-11.3-3c-2.3-4-0.9-9,3-11.3c4-2.3,9-0.9,11.3,3
		C130.5,136.3,129.2,141.4,125.2,143.7L125.2,143.7z M125.2,125.6c-3.1-1.2-6.8-1-9.9,0.8c-3.1,1.8-5.1,4.9-5.7,8.2
		c-3.1,0.8-6.3,1.3-9.6,1.3c-5.7,0-11.1-1.3-15.9-3.7l5.8-10.3c3.1,1.4,6.5,2.2,10.2,2.2c12.6,0,23-9.7,24.1-22l11.8,0.2
		C135.3,111.4,131.3,119.6,125.2,125.6z"/>
</g>
<g id="php">
</g>
<g id="java">
</g>
<g id="deer-resume">
</g>
<g id="_x32_048">
</g>
<g id="redis">
</g>
<g id="wordpress">
</g>
<g id="ghost">
</g>
<g id="phpmyadmin">
</g>
<g id="mongo-express">
</g>
<g id="earth">
</g>
<g id="nginx">
</g>
<g id="mysql">
</g>
<g id="mongo-db">
</g>
<g id="docker">
</g>
<g id="tomcat">
</g>
</svg>
