<svg xmlns="http://www.w3.org/2000/svg" viewBox="0 0 1000 1000">
  <title>JBoss</title>
  <circle cx="273.794" cy="281.512" r="31.719" fill="#1c83c6"/>
  <circle cx="384.078" cy="704.392" r="59.914" fill="#dd2527"/>
  <path d="M287.891,683.136a52.865,52.865,0,1,1-52.866-52.872A52.864,52.864,0,0,1,287.891,683.136Z" fill="#ea7f28"/>
  <circle cx="118.458" cy="586.325" r="47.58" fill="#f0c32e"/>
  <circle cx="99.255" cy="452.409" r="42.292" fill="#a1c541"/>
  <circle cx="168.063" cy="336.105" r="35.244" fill="#4cbbd9"/>
  <circle cx="384.078" cy="262.127" r="26.433" fill="#58629b"/>
  <g>
    <path d="M373.941,497.367q0,17.18-4.2,29.127a46,46,0,0,1-12.6,19.463A51,51,0,0,1,336.384,556.9a108.139,108.139,0,0,1-28.7,3.422,86.591,86.591,0,0,1-26.592-3.76,54.564,54.564,0,0,1-19.6-10.738,45.912,45.912,0,0,1-12.13-17.046,58.055,58.055,0,0,1-4.2-22.552v-5.368h38.414q0,14.227,5.755,21.745t18.349,7.516q8.244,0,13.452-2.35a18.175,18.175,0,0,0,8.012-6.642,25.9,25.9,0,0,0,3.731-10.27,86.006,86.006,0,0,0,.933-13.221V375.621h40.123V497.367Z" fill="#df242c"/>
    <path d="M373.941,497.367q0,17.18-4.2,29.127a46,46,0,0,1-12.6,19.463A51,51,0,0,1,336.384,556.9a108.139,108.139,0,0,1-28.7,3.422,86.591,86.591,0,0,1-26.592-3.76,54.564,54.564,0,0,1-19.6-10.738,45.912,45.912,0,0,1-12.13-17.046,58.055,58.055,0,0,1-4.2-22.552v-5.368h38.414q0,14.227,5.755,21.745t18.349,7.516q8.244,0,13.452-2.35a18.175,18.175,0,0,0,8.012-6.642,25.9,25.9,0,0,0,3.731-10.27,86.006,86.006,0,0,0,.933-13.221V375.621h40.123V497.367Z" fill="none" stroke="#df242c" stroke-miterlimit="10" stroke-width="3"/>
  </g>
  <g>
    <path d="M536.424,503.675q0,25.639-19.674,39.6t-58.864,13.96h-81.96V375.621h79.939a130.222,130.222,0,0,1,30.248,3.221A72.94,72.94,0,0,1,508.9,388.1a42.889,42.889,0,0,1,14.232,14.561,38.013,38.013,0,0,1,4.9,19.264q0,13.555-7.54,23.421t-22.941,16.042a60.894,60.894,0,0,1,17.184,6.239,48,48,0,0,1,12.13,9.533,35.135,35.135,0,0,1,7.232,12.211A43.652,43.652,0,0,1,536.424,503.675ZM415.9,449.716H454q17.727,0,26.128-5.3t8.4-18.056a23.377,23.377,0,0,0-1.944-9.864,16.234,16.234,0,0,0-6.3-6.979,33.741,33.741,0,0,0-11.275-4.165,87.357,87.357,0,0,0-17.03-1.407H415.9v45.772Zm0,79.195h39.658q20.062,0,29.859-6.243t9.8-19.125A27.928,27.928,0,0,0,493.034,492a18.058,18.058,0,0,0-7.076-7.92,36.771,36.771,0,0,0-12.987-4.564,112.033,112.033,0,0,0-19.75-1.476H415.9v50.872Z" fill="#df242c"/>
    <path d="M536.424,503.675q0,25.639-19.674,39.6t-58.864,13.96h-81.96V375.621h79.939a130.222,130.222,0,0,1,30.248,3.221A72.94,72.94,0,0,1,508.9,388.1a42.889,42.889,0,0,1,14.232,14.561,38.013,38.013,0,0,1,4.9,19.264q0,13.555-7.54,23.421t-22.941,16.042a60.894,60.894,0,0,1,17.184,6.239,48,48,0,0,1,12.13,9.533,35.135,35.135,0,0,1,7.232,12.211A43.652,43.652,0,0,1,536.424,503.675ZM415.9,449.716H454q17.727,0,26.128-5.3t8.4-18.056a23.377,23.377,0,0,0-1.944-9.864,16.234,16.234,0,0,0-6.3-6.979,33.741,33.741,0,0,0-11.275-4.165,87.357,87.357,0,0,0-17.03-1.407H415.9v45.772Zm0,79.195h39.658q20.062,0,29.859-6.243t9.8-19.125A27.928,27.928,0,0,0,493.034,492a18.058,18.058,0,0,0-7.076-7.92,36.771,36.771,0,0,0-12.987-4.564,112.033,112.033,0,0,0-19.75-1.476H415.9v50.872Z" fill="none" stroke="#df242c" stroke-miterlimit="10" stroke-width="3"/>
  </g>
  <g>
    <path d="M604.643,422.871a77.894,77.894,0,0,1,26.98,4.429,54.725,54.725,0,0,1,20.606,13.154A59.157,59.157,0,0,1,665.383,462q4.625,12.824,4.625,29.6,0,16.645-4.625,29.462A59.123,59.123,0,0,1,652.229,542.6a55.444,55.444,0,0,1-20.606,13.223,76.933,76.933,0,0,1-26.98,4.5,77.927,77.927,0,0,1-27.184-4.5A55.3,55.3,0,0,1,556.788,542.6a59.752,59.752,0,0,1-13.22-21.546q-4.7-12.814-4.7-29.462,0-16.778,4.7-29.6a59.787,59.787,0,0,1,13.22-21.541A54.585,54.585,0,0,1,577.459,427.3,78.9,78.9,0,0,1,604.643,422.871Zm0,112.348a29.11,29.11,0,0,0,12.549-2.685,25.8,25.8,0,0,0,9.732-8.053,38.774,38.774,0,0,0,6.174-13.557,76.752,76.752,0,0,0,2.149-19.329,77.565,77.565,0,0,0-2.149-19.4,38.756,38.756,0,0,0-6.174-13.624,25.819,25.819,0,0,0-9.732-8.054,29.13,29.13,0,0,0-12.549-2.683,29.739,29.739,0,0,0-12.817,2.683,25.807,25.807,0,0,0-9.735,8.054,39.719,39.719,0,0,0-6.243,13.624,75.56,75.56,0,0,0-2.214,19.4,74.767,74.767,0,0,0,2.214,19.329,39.749,39.749,0,0,0,6.243,13.557,25.789,25.789,0,0,0,9.735,8.053A29.719,29.719,0,0,0,604.643,535.219Z" fill="#6b7074"/>
    <path d="M604.643,422.871a77.894,77.894,0,0,1,26.98,4.429,54.725,54.725,0,0,1,20.606,13.154A59.157,59.157,0,0,1,665.383,462q4.625,12.824,4.625,29.6,0,16.645-4.625,29.462A59.123,59.123,0,0,1,652.229,542.6a55.444,55.444,0,0,1-20.606,13.223,76.933,76.933,0,0,1-26.98,4.5,77.927,77.927,0,0,1-27.184-4.5A55.3,55.3,0,0,1,556.788,542.6a59.752,59.752,0,0,1-13.22-21.546q-4.7-12.814-4.7-29.462,0-16.778,4.7-29.6a59.787,59.787,0,0,1,13.22-21.541A54.585,54.585,0,0,1,577.459,427.3,78.9,78.9,0,0,1,604.643,422.871Zm0,112.348a29.11,29.11,0,0,0,12.549-2.685,25.8,25.8,0,0,0,9.732-8.053,38.774,38.774,0,0,0,6.174-13.557,76.752,76.752,0,0,0,2.149-19.329,77.565,77.565,0,0,0-2.149-19.4,38.756,38.756,0,0,0-6.174-13.624,25.819,25.819,0,0,0-9.732-8.054,29.13,29.13,0,0,0-12.549-2.683,29.739,29.739,0,0,0-12.817,2.683,25.807,25.807,0,0,0-9.735,8.054,39.719,39.719,0,0,0-6.243,13.624,75.56,75.56,0,0,0-2.214,19.4,74.767,74.767,0,0,0,2.214,19.329,39.749,39.749,0,0,0,6.243,13.557,25.789,25.789,0,0,0,9.735,8.053A29.719,29.719,0,0,0,604.643,535.219Z" fill="none" stroke="#6b7074" stroke-miterlimit="10" stroke-width="2"/>
  </g>
  <path d="M726.564,560.321q-29.4,0-43.622-10.671T667.234,517.9H699.05q0.27,10.6,6.781,16.109t20.464,5.5q11.949,0,18.325-4.7a15.149,15.149,0,0,0,6.373-12.886,11.784,11.784,0,0,0-1.672-6.578,13.973,13.973,0,0,0-5.507-4.5,56.03,56.03,0,0,0-10.063-3.69Q727.5,505.421,718.379,503q-6.311-1.611-12.149-3.222a106.356,106.356,0,0,1-11.207-3.757,59.22,59.22,0,0,1-9.8-4.967,32.284,32.284,0,0,1-7.715-6.846,29.85,29.85,0,0,1-5.1-9.331,38.984,38.984,0,0,1-1.81-12.549,34.9,34.9,0,0,1,3.621-15.838,35.994,35.994,0,0,1,10.407-12.485,50.658,50.658,0,0,1,16.707-8.188,79.184,79.184,0,0,1,22.55-2.951q27.382,0,41.212,9.8t14.5,28.188h-31.28q-0.806-16.913-23.355-16.913-9.665,0-15.9,3.693a11.932,11.932,0,0,0-6.245,10.938,14.421,14.421,0,0,0,1.074,5.975,9.946,9.946,0,0,0,4.364,4.227,43.753,43.753,0,0,0,9.4,3.624q6.105,1.745,16.17,4.161,12.351,3.088,21.684,6.309a57.72,57.72,0,0,1,15.5,7.786,28.743,28.743,0,0,1,9.2,11.071q3.015,6.517,3.015,16.446a40.887,40.887,0,0,1-3.421,16.913,35.2,35.2,0,0,1-10.539,13.288,52.162,52.162,0,0,1-17.719,8.795A88.123,88.123,0,0,1,726.564,560.321Z" fill="#6b7074"/>
  <path d="M841.064,560.321q-29.4,0-43.627-10.671t-15.7-31.746h31.809q0.267,10.6,6.781,16.109t20.471,5.5q11.947,0,18.324-4.7a15.148,15.148,0,0,0,6.375-12.886,11.74,11.74,0,0,0-1.68-6.578,14.017,14.017,0,0,0-5.5-4.5,56.065,56.065,0,0,0-10.071-3.69q-6.234-1.745-15.371-4.161-6.309-1.611-12.142-3.222a106.024,106.024,0,0,1-11.213-3.757,59.011,59.011,0,0,1-9.795-4.967,32.134,32.134,0,0,1-7.717-6.846,29.71,29.71,0,0,1-5.1-9.331,38.747,38.747,0,0,1-1.818-12.549,34.887,34.887,0,0,1,3.629-15.838,36.048,36.048,0,0,1,10.4-12.485,50.688,50.688,0,0,1,16.713-8.188,79.191,79.191,0,0,1,22.55-2.951q27.386,0,41.206,9.8t14.5,28.188H862.81Q862,443.944,839.453,443.944q-9.665,0-15.907,3.693a11.946,11.946,0,0,0-6.243,10.938,14.421,14.421,0,0,0,1.074,5.975,9.938,9.938,0,0,0,4.364,4.227,43.873,43.873,0,0,0,9.4,3.624q6.113,1.745,16.175,4.161,12.351,3.088,21.678,6.309a57.568,57.568,0,0,1,15.5,7.786,28.677,28.677,0,0,1,9.2,11.071q3.023,6.517,3.021,16.446a41.019,41.019,0,0,1-3.421,16.913,35.247,35.247,0,0,1-10.538,13.288,52.162,52.162,0,0,1-17.718,8.795A88.14,88.14,0,0,1,841.064,560.321Z" fill="#6b7074"/>
  <path d="M896.886,372.925h-9.279v-3.35h22.587v3.35H900.87v27.16h-3.984v-27.16Z" fill="#6b7074"/>
  <path d="M938.421,386.686c-0.226-4.255-.5-9.37-0.453-13.173h-0.135c-1.041,3.576-2.309,7.379-3.848,11.588L928.6,399.9H925.61l-4.934-14.531c-1.449-4.3-2.671-8.238-3.531-11.86h-0.09c-0.091,3.8-.317,8.918-0.589,13.489l-0.815,13.082h-3.757l2.128-30.51h5.024l5.206,14.757c1.267,3.757,2.308,7.107,3.078,10.276h0.136c0.769-3.078,1.856-6.428,3.214-10.276l5.432-14.757h5.024l1.9,30.51h-3.847Z" fill="#6b7074"/>
</svg>
