<svg xmlns="http://www.w3.org/2000/svg" viewBox="0 0 100 100">
  <title>kubernetes</title>
  <g>
    <rect width="100" height="100" fill="#326ce5"/>
    <g>
      <path d="M46.017,45.09a1.182,1.182,0,0,0,1.876-.905l.029-.014.4-7.033a14.126,14.126,0,0,0-1.429.246,13.81,13.81,0,0,0-6.652,3.624L46.005,45.1Z" fill="#fff"/>
      <path d="M45.243,55.391a1.182,1.182,0,0,0-1.134-.92h0a1.2,1.2,0,0,0-.232.02l-.011-.014-6.921,1.174a13.882,13.882,0,0,0,5.572,6.972l2.681-6.48-.02-.026A1.171,1.171,0,0,0,45.243,55.391Z" fill="#fff"/>
      <path d="M42.943,50.4a1.181,1.181,0,0,0,.464-2.031l.006-.029-5.265-4.709a13.807,13.807,0,0,0-1.959,8.74l6.749-1.948Z" fill="#fff"/>
      <polygon points="48.056 52.472 49.999 53.406 51.935 52.475 52.416 50.384 51.076 48.708 48.919 48.708 47.575 50.381 48.056 52.472" fill="#fff"/>
      <path d="M52.084,44.162a1.184,1.184,0,0,0,1.879.9l.02.009,5.729-4.062a13.927,13.927,0,0,0-8.032-3.873l.4,7.021Z" fill="#fff"/>
      <path d="M61.812,43.638l-5.236,4.686,0,.014a1.182,1.182,0,0,0,.464,2.031l.006.029,6.783,1.954a14.064,14.064,0,0,0-2.02-8.714Z" fill="#fff"/>
      <path d="M51.038,57.932a1.181,1.181,0,0,0-2.083,0H48.95l-3.4,6.153a13.863,13.863,0,0,0,7.565.39,14.142,14.142,0,0,0,1.364-.381l-3.412-6.165Z" fill="#fff"/>
      <path d="M82.106,56.592l-5.534-24.04a4.255,4.255,0,0,0-2.317-2.882l-22.4-10.7a4.317,4.317,0,0,0-3.718,0l-22.4,10.7a4.255,4.255,0,0,0-2.317,2.882L17.894,56.6a4.219,4.219,0,0,0,.582,3.257q.113.175.243.338l15.5,19.276a4.3,4.3,0,0,0,3.349,1.6l24.862-.006a4.3,4.3,0,0,0,3.349-1.6l15.5-19.279A4.222,4.222,0,0,0,82.106,56.592ZM73.586,56.3a1.418,1.418,0,0,1-1.73.98l-.02,0-.026-.009c-.111-.024-.25-.049-.347-.074a11.207,11.207,0,0,1-1.2-.464,12.532,12.532,0,0,0-2.337-.687,1.059,1.059,0,0,0-.751.278c-.1-.02-.4-.073-.573-.1a17.446,17.446,0,0,1-7.729,9.722,4.607,4.607,0,0,0,.223.541,1.051,1.051,0,0,0-.1.791A12.526,12.526,0,0,0,60.179,69.4,11.18,11.18,0,0,1,60.9,70.47c.053.1.124.255.175.361a1.347,1.347,0,1,1-2.423,1.146c-.051-.1-.123-.245-.166-.344a11.215,11.215,0,0,1-.39-1.229,12.51,12.51,0,0,0-.92-2.254,1.061,1.061,0,0,0-.685-.415c-.043-.073-.2-.364-.286-.516a17.351,17.351,0,0,1-12.372-.032l-.3.55a1.086,1.086,0,0,0-.578.281,9.373,9.373,0,0,0-1.038,2.408,11.186,11.186,0,0,1-.387,1.229c-.043.1-.115.236-.166.341v0l0,0a1.346,1.346,0,1,1-2.421-1.149c.051-.106.119-.26.172-.361a11.231,11.231,0,0,1,.719-1.071,13.1,13.1,0,0,0,1.213-2.181,1.329,1.329,0,0,0-.119-.758l.243-.584a17.447,17.447,0,0,1-7.732-9.654l-.584.1a1.481,1.481,0,0,0-.771-.272,12.531,12.531,0,0,0-2.338.688,11.2,11.2,0,0,1-1.2.461c-.1.026-.236.053-.347.077l-.026.009-.02,0a1.345,1.345,0,1,1-.6-2.612l.02-.006.011,0c.112-.026.255-.064.358-.083a11.218,11.218,0,0,1,1.286-.1,12.518,12.518,0,0,0,2.4-.4,1.858,1.858,0,0,0,.576-.582l.561-.163A17.348,17.348,0,0,1,35.5,41.269l-.43-.384a1.491,1.491,0,0,0-.269-.773,12.516,12.516,0,0,0-1.994-1.4,11.176,11.176,0,0,1-1.111-.65c-.081-.06-.189-.152-.278-.223l-.02-.014a1.421,1.421,0,0,1-.329-1.977,1.292,1.292,0,0,1,1.068-.473,1.594,1.594,0,0,1,.934.352c.091.072.216.167.3.238a11.171,11.171,0,0,1,.882.937,12.521,12.521,0,0,0,1.808,1.633,1.059,1.059,0,0,0,.8.077c.077.057.336.243.484.344a17.245,17.245,0,0,1,8.76-5,17.447,17.447,0,0,1,2.423-.372l.032-.567a1.463,1.463,0,0,0,.435-.693,12.523,12.523,0,0,0-.149-2.432,11.185,11.185,0,0,1-.183-1.275c0-.1,0-.232,0-.344,0-.013,0-.025,0-.037a1.348,1.348,0,1,1,2.681,0c0,.117.007.273,0,.381a11.185,11.185,0,0,1-.183,1.275,12.546,12.546,0,0,0-.152,2.432,1.06,1.06,0,0,0,.438.67c0,.1.02.42.032.6a17.57,17.57,0,0,1,11.129,5.377l.51-.364a1.493,1.493,0,0,0,.814-.089,12.555,12.555,0,0,0,1.808-1.636,11.217,11.217,0,0,1,.885-.937c.082-.071.206-.165.3-.238a1.348,1.348,0,1,1,1.67,2.1c-.091.073-.209.174-.3.238a11.21,11.21,0,0,1-1.114.65,12.517,12.517,0,0,0-1.994,1.4,1.059,1.059,0,0,0-.252.759c-.074.068-.337.3-.476.427a17.415,17.415,0,0,1,2.793,12.066l.541.158a1.5,1.5,0,0,0,.579.582,12.517,12.517,0,0,0,2.4.4,11.218,11.218,0,0,1,1.286.1c.112.021.275.066.39.092A1.419,1.419,0,0,1,73.586,56.3Z" fill="#fff"/>
      <path d="M56.106,54.463a1.176,1.176,0,0,0-.272-.02h0a1.186,1.186,0,0,0-1.026,1.65L54.8,56.1l2.71,6.546A13.825,13.825,0,0,0,63.1,55.629l-6.981-1.18Z" fill="#fff"/>
    </g>
  </g>
</svg>
