<?xml version="1.0" encoding="utf-8"?>
<!-- Generator: Adobe Illustrator 18.0.0, SVG Export Plug-In . SVG Version: 6.00 Build 0)  -->
<!DOCTYPE svg PUBLIC "-//W3C//DTD SVG 1.1//EN" "http://www.w3.org/Graphics/SVG/1.1/DTD/svg11.dtd">
<svg version="1.1" xmlns="http://www.w3.org/2000/svg" xmlns:xlink="http://www.w3.org/1999/xlink" x="0px" y="0px"
	 viewBox="0 0 200 200" enable-background="new 0 0 200 200" xml:space="preserve">
<g id="Layer_14">
</g>
<g id="rabbitmq">
</g>
<g id="python">
</g>
<g id="golang">
</g>
<g id="django">
</g>
<g id="postgres">
</g>
<g id="centos">
	<rect fill="#176BAA" width="200" height="200"/>
	<g>
		<path fill="#176BAA" d="M150.1,118.3l18.3-18.3l-18.3-18.3V49.9h-31.8L100,31.7L81.6,50.1H50.2v31.4L31.6,100l18.6,18.6v31.2h31.1
			l18.6,18.6l18.6-18.6h31.6V118.3z M99.9,106.1l-5.6,5.6v-6h-6L94,100l-6-6h6.1v-5.8l5.8,5.8l6-6v6h6l-6,6l5.7,5.7h-5.7v6.5
			L99.9,106.1z"/>
		<path fill="#FFFFFF" d="M170,100l-0.8-0.8l-18-18V49.9v-1.2H150h-31.3l-17.9-17.9L100,30l-0.8,0.8L81.1,48.9H50.2H49v1.2V81
			L30.8,99.2L30,100l0.8,0.8L49,119v30.8v1.2h1.2h30.7l18.2,18.2l0.8,0.8l0.8-0.8l18.2-18.2H150h1.2v-1.2v-31l18-18L170,100z
			 M148.9,51.1v27.8L138,68l-0.8-0.8l-0.8,0.8l-24.9,24.9h-4.4v-4.3L132,63.7l0.8-0.8L132,62l-11-11H148.9z M148.9,82.2v10.7h-34.2
			l22.4-22.4L148.9,82.2z M105.1,100.8l3.7,3.7h-2.9h-1.2v1.2v3.7l-4-4l-0.8-0.8l-0.8,0.8l-3.6,3.6v-3.3v-1.2h-1.2h-3.1l3.6-3.6
			l0.8-0.8l-0.8-0.8l-4-4h3.4h1.2V94v-2.9l3.8,3.8l0.8,0.8l0.8-0.8l3.9-3.9V94v1.2h1.2h3.2l-4,4l-0.8,0.8L105.1,100.8z M107.1,85.3
			V51.1h10.7l11.8,11.8L107.1,85.3z M100,33.3l15.5,15.5h-9.5h-1.2v1.2v37.7l-4.8,4.8l-4.6-4.6V50.1v-1.2h-1.2h-9.8L100,33.3z
			 M93.1,85.5L70.4,62.8l11.6-11.6h11V85.5z M51.3,51.2h27.4L68,62l-0.8,0.8l0.8,0.8l25.1,25.1v4.1h-4.6L63.6,68l-0.8-0.8L62,68
			L51.3,78.7V51.2z M51.3,81.9l11.5-11.5l22.4,22.4H51.3V81.9z M33.3,100L49,84.3V94v1.2h1.2h37.3l4.9,4.9l-4.4,4.4H50.2H49v1.2
			v10.1L33.3,100z M85.6,106.8l-22.7,22.8l-11.5-11.5v-11.2H85.6z M51.3,148.6v-27.3L62,132l0.8,0.8l0.8-0.8l25.2-25.2h4.3v4.5
			L68,136.4l-0.8,0.8l0.8,0.8l10.5,10.5H51.3z M93.1,114.5v34.1H81.8l-11.4-11.4L93.1,114.5z M99.9,166.7l-15.8-15.8h10.2h1.2v-1.2
			v-37.6l4.4-4.4l4.9,4.9v37.1v1.2h1.2h9.7L99.9,166.7z M107.1,115l22.3,22.3L118,148.6h-10.9V115z M148.9,148.6h-27.6l10.5-10.5
			l0.8-0.8l-0.8-0.8l-24.7-24.7v-4.9h4l25.2,25.2l0.8,0.8l0.8-0.8l10.9-10.9V148.6z M148.9,117.8l-11.7,11.7l-22.7-22.8h34.5V117.8z
			 M151.2,115.5v-9.9v-1.2H150h-38l-4.5-4.5l4.8-4.8H150h1.2V94v-9.5l15.5,15.5L151.2,115.5z"/>
	</g>
</g>
<g id="fedora">
</g>
<g id="ruby">
</g>
<g id="rails">
</g>
<g id="ubuntu">
</g>
<g id="php">
</g>
<g id="java">
</g>
<g id="deer-resume">
</g>
<g id="_x32_048">
</g>
<g id="redis">
</g>
<g id="wordpress">
</g>
<g id="ghost">
</g>
<g id="phpmyadmin">
</g>
<g id="mongo-express">
</g>
<g id="earth">
</g>
<g id="nginx">
</g>
<g id="mysql">
</g>
<g id="mongo-db">
</g>
<g id="docker">
</g>
<g id="tomcat">
</g>
</svg>
