<svg xmlns="http://www.w3.org/2000/svg" viewBox="0 0 1000 1000">
  <title>未标题-3</title>
  <path d="M986.831,602.223c-3.312,5.525-7.2,6.115-12.1,1.84-0.814-.71-1.647-1.4-2.469-2.1a12.547,12.547,0,0,0-12.563-2.522,51.765,51.765,0,0,0-14.923,7.8c-5.963,4.238-11.657,8.824-17.36,13.4a3.345,3.345,0,0,0-1.374,2.943q0.077,17.958,0,35.917c-0.009,1.625.427,2.1,2.082,2.09,10.891-.074,21.783-0.038,32.675-0.038a13.985,13.985,0,0,1,4.684.511,5.7,5.7,0,0,1-.25,10.926,18.937,18.937,0,0,1-4.438.511q-32.425.047-64.851,0a19.469,19.469,0,0,1-3.953-.4,5.571,5.571,0,0,1,.307-11.022,49.706,49.706,0,0,1,7.967-.278c3.824-.018,7.651-0.071,11.473.029,1.452,0.038,1.779-.45,1.776-1.826q-0.062-28.684.008-57.368c0-1.548-.4-1.959-1.939-1.924-4.321.1-8.651,0.145-12.967-.034-4.748-.2-7.423-3.769-6.094-7.858,0.938-2.886,3.3-3.974,5.994-4.015,8.728-.132,17.459-0.039,26.189-0.107,1.394-.011,1.388.691,1.383,1.692-0.025,5.044-.011,10.089-0.011,15.706,1.259-.97,2.138-1.645,3.014-2.323,6.634-5.13,13.2-10.37,20.957-13.785,11.685-5.141,22.579-4.4,32.471,4.265a33.2,33.2,0,0,1,4.321,4.967v2.994Z" fill="#383637"/>
  <path d="M633.711,413.591c-1.358-2.627-3.763-4.366-5.61-6.582-9.771-11.72-15.919-24.885-15.956-40.386-0.037-15.7,6.189-29.014,16.148-40.8a73.977,73.977,0,0,1,12.776-12.2c3.458-2.522,4.721-5.883,4.947-9.836,0.655-11.444-2.391-22.2-6.273-32.782-0.792-2.159-1.742-4.261-2.7-6.6a5.258,5.258,0,0,1,2.852,1.025c13.974,6.962,27.994,13.818,42.9,18.636a79.917,79.917,0,0,0,10.881,2.618c4.415,0.77,8.572-.613,12.79-1.4a200.911,200.911,0,0,1,80.172,1.13c5.094,1.1,9.92-.031,14.709-1.385,14.855-4.2,28.658-10.956,42.472-17.677,2.081-1.013,4.188-1.971,6.284-2.955l0.1,0.129c-0.55,2.783-2.039,5.213-2.952,7.864-3.475,10.1-6.288,20.3-5.717,31.138a12.984,12.984,0,0,0,5.138,10.248c10.931,8.617,19.827,18.977,24.806,32.164,8.033,21.275,3.612,40.6-9.836,58.29-2.452,3.226-5.24,6.2-7.871,9.284-2.8,2.312-5.539,4.714-8.425,6.921-15.709,12.013-33.437,19.734-52.484,24.694-5.822,1.516-11.755,2.469-17.6,3.872a19.529,19.529,0,0,0-2.483.1c-11.493,1.907-23.076,2.082-34.687,1.994-8.636-.066-17.162-1.256-25.722-2.131a1.157,1.157,0,0,0-.4-0.284,166.72,166.72,0,0,1-35.237-9.272,133.236,133.236,0,0,1-35.528-19.789C638.694,417.625,636.6,415.115,633.711,413.591Zm47.264,5.3a50.371,50.371,0,1,0-50.368-50.536A50.445,50.445,0,0,0,680.975,418.892Zm125.757-100.74a50.371,50.371,0,0,0-.39,100.741c27.537,0.2,50.486-22.519,50.626-50.112A50.391,50.391,0,0,0,806.731,318.152ZM759.593,408.68a1.6,1.6,0,0,0-.337-0.372q-16.566-.062-33.131-0.118c-1.125,0-1.3.417-.786,1.342,0.972,1.738,1.922,3.489,2.883,5.233l14,25.407Z" fill="#7b7d7f"/>
  <path d="M712.369,448.96c8.56,0.875,17.086,2.065,25.722,2.131,11.611,0.089,23.195-.086,34.687-1.994a19.49,19.49,0,0,1,2.483-.1,142.8,142.8,0,0,0,1.957,16.48,228.634,228.634,0,0,0,12.6,48.957c7.223,18.631,17.174,35.522,31.965,49.274,2.238,2.081,5.055,3.5,6.858,6.064A57.438,57.438,0,0,1,813.2,580.835c-1.366-2.249-2.314-4.772-4.515-6.457-2.918-2.233-5.506-1.6-6.933,1.8-0.886,2.108-.739,4.392-1.059,6.6l0.025-.022c-0.816-.914-1.594-1.866-2.456-2.733-1.252-1.259-2.652-2.374-4.577-1.926-2.147.5-2.882,2.269-3.473,4.165a21,21,0,0,0-.486,5.39,43.176,43.176,0,0,0-2.634-3.5c-1.319-1.416-2.833-2.751-4.967-2.2-2.107.543-2.838,2.359-3.381,4.262-0.927,3.245-.3,6.415.392,9.587l-1.386.932c-0.7-.867-1.477-0.332-2.265-0.154a157.482,157.482,0,0,1-21.525,3.227,133.107,133.107,0,0,1-26.251-.548,27.7,27.7,0,0,0-3.235,0c-4.073-1.369-8.381-1.625-12.526-2.654,0.7-3.434,1.2-6.874-.129-10.273-1.3-3.332-4.233-4.107-6.927-1.761a45.209,45.209,0,0,0-3.366,3.623,46.921,46.921,0,0,0-1.051-5.227c-1.275-3.984-4.344-4.788-7.417-1.967a40.642,40.642,0,0,0-3.059,3.534c-0.185-2.28.131-4.272-.517-6.229-1.429-4.323-4.576-5.113-7.894-1.956-1.915,1.823-2.868,4.215-4.041,6.484A90.592,90.592,0,0,1,658.5,569.74a109.825,109.825,0,0,0,16.99-16.277c10.6-13.077,18.254-27.791,23.859-43.6a234.7,234.7,0,0,0,10.168-39.826C710.684,463.033,711.711,456.024,712.369,448.96Zm-6.935,67.9c-0.065-.451.112-1.006-0.485-1.23a0.4,0.4,0,0,0-.341.194,1.1,1.1,0,0,0,.758,1.095c2.412,5.487,5.529,10.577,8.686,16.145,3-5.931,6.423-11.016,8.83-16.651,0.122-.187.246-0.373,0.356-0.566a1.73,1.73,0,0,0-.182-0.135l-0.226.656a1.992,1.992,0,0,0-1.529,1.106c-1.508,1.972-3.046,3.922-4.633,5.831-2.791,3.355-2.657,3.21-5.487-.131C709.351,521.011,708.19,518.187,705.434,516.859Zm77.276-.492a1.992,1.992,0,0,0-1.529,1.106c-1.508,1.972-3.046,3.922-4.633,5.831-2.79,3.354-2.657,3.209-5.487-.132-1.831-2.161-2.992-4.985-5.748-6.313-0.065-.451.112-1.006-0.485-1.23a0.4,0.4,0,0,0-.341.194,1.1,1.1,0,0,0,.758,1.095c2.412,5.487,5.529,10.577,8.686,16.145,3-5.931,6.423-11.016,8.83-16.651,0.122-.187.246-0.373,0.356-0.566a1.735,1.735,0,0,0-.182-0.135Zm-29.939,7.486a1.988,1.988,0,0,0-1.53,1.1c-1.508,1.971-3.045,3.923-4.633,5.831-2.791,3.355-2.657,3.21-5.487-.131-1.831-2.162-2.991-4.985-5.747-6.314-0.065-.451.112-1.006-0.485-1.23a0.4,0.4,0,0,0-.341.194,1.1,1.1,0,0,0,.758,1.1c2.412,5.487,5.529,10.576,8.686,16.144,3-5.93,6.423-11.016,8.83-16.651,0.122-.187.246-0.373,0.357-0.566A1.792,1.792,0,0,0,753,523.2Zm0.015,33.946a1.506,1.506,0,0,0-1.161.8c-2.16,2.708-4.374,5.373-6.521,8.09-0.982,1.243-1.766,1.96-2.859.051a15.208,15.208,0,0,0-2.6-3.3c-1.688-1.639-2.468-4.113-4.781-5.159l-0.23-.656a1.613,1.613,0,0,0-.182.136c0.11,0.195.234,0.381,0.355,0.57,2.483,5.639,5.694,10.869,8.866,16.476,0.872-1.533,1.557-2.659,2.169-3.825,2.308-4.394,5.018-8.576,6.963-13.161,0.124-.183.249-0.365,0.363-0.553,0,0-.12-0.082-0.184-0.126Zm29.939-7.485a1.509,1.509,0,0,0-1.161.8c-2.16,2.708-4.373,5.373-6.521,8.09-0.981,1.242-1.766,1.96-2.859.05a15.186,15.186,0,0,0-2.6-3.3c-1.688-1.639-2.467-4.114-4.781-5.159l-0.23-.656a1.6,1.6,0,0,0-.182.136c0.11,0.195.234,0.381,0.355,0.57,2.485,5.637,5.691,10.87,8.867,16.474,0.872-1.531,1.557-2.658,2.169-3.824,2.308-4.394,5.018-8.576,6.964-13.161,0.124-.183.248-0.365,0.362-0.554,0,0-.12-0.082-0.184-0.126Zm-59.88,0a1.509,1.509,0,0,0-1.161.8c-2.16,2.708-4.374,5.373-6.521,8.09-0.982,1.243-1.767,1.959-2.859.05a15.2,15.2,0,0,0-2.6-3.3c-1.688-1.639-2.468-4.113-4.78-5.159l-0.23-.656a1.619,1.619,0,0,0-.182.136c0.11,0.195.234,0.381,0.355,0.57,2.485,5.637,5.691,10.87,8.867,16.475,0.872-1.531,1.557-2.658,2.169-3.824,2.308-4.394,5.018-8.576,6.964-13.161,0.124-.183.248-0.365,0.362-0.554,0,0-.12-0.083-0.184-0.126Zm14.969-66.368a1.534,1.534,0,0,0-1.159.806c-2.093,2.656-4.216,5.288-6.327,7.929-1.064,1.332-2.023,2.226-3.187-.009a12.37,12.37,0,0,0-2.46-3.087c-1.7-1.628-2.466-4.114-4.783-5.155l-0.227-.657a1.663,1.663,0,0,0-.183.136c0.11,0.195.234,0.381,0.355,0.57,2.466,5.649,5.785,10.82,8.9,16.621,3.105-6.092,6.622-11.328,9.1-17.129,0.124-.183.25-0.365,0.365-0.554,0,0-.12-0.084-0.184-0.128Zm12.023,0.485-0.227-.657a1.651,1.651,0,0,0-.183.136c0.11,0.195.234,0.381,0.355,0.57,2.466,5.649,5.786,10.82,8.9,16.621,3.107-6.091,6.621-11.328,9.1-17.129,0.124-.183.25-0.366,0.364-0.555,0,0-.12-0.084-0.184-0.129l-0.209.658a1.537,1.537,0,0,0-1.158.807c-2.093,2.655-4.216,5.287-6.327,7.929-1.064,1.332-2.023,2.225-3.187-.009a12.385,12.385,0,0,0-2.46-3.087C752.923,487.956,752.154,485.472,749.838,484.43Z" fill="#d2d3d5"/>
  <path d="M712.369,448.96c-0.658,7.065-1.685,14.073-2.855,21.074a234.7,234.7,0,0,1-10.168,39.826c-5.6,15.813-13.257,30.528-23.859,43.6A109.825,109.825,0,0,1,658.5,569.74a157.365,157.365,0,0,1-14.592,8.549c-2.274,1.1-3.614.753-5.241-1.146-10.436-12.183-17.5-26.117-22.147-41.4a150.293,150.293,0,0,1-5.8-53.889c1.483-22.81,7.15-44.485,19.711-63.949a16.805,16.805,0,0,1,3.287-4.315c2.884,1.525,4.983,4.034,7.5,6.024A133.236,133.236,0,0,0,676.736,439.4a166.72,166.72,0,0,0,35.237,9.272A1.157,1.157,0,0,1,712.369,448.96Z" fill="#a9abae"/>
  <path d="M828.646,569.77c-1.8-2.564-4.619-3.983-6.858-6.064-14.792-13.752-24.742-30.643-31.965-49.274a228.634,228.634,0,0,1-12.6-48.957,142.8,142.8,0,0,1-1.957-16.48c5.84-1.4,11.773-2.356,17.6-3.872,19.046-4.96,36.775-12.681,52.484-24.694,2.885-2.207,5.621-4.609,8.425-6.921,5.093,6.032,8.621,13,11.736,20.163a141.583,141.583,0,0,1,11.17,47.717c1.707,26.185-2.164,51.3-13.909,74.955A100.059,100.059,0,0,1,847.915,578.1a2.367,2.367,0,0,1-3.235.64,94.538,94.538,0,0,1-13.444-7.58C830.426,570.621,829.737,569.805,828.646,569.77Z" fill="#a9abae"/>
  <path d="M225.366,661.557c-3.005-7.4-6.009-14.476-8.725-21.663-0.853-2.258-2-2.858-4.307-2.842q-23.691.158-47.384,0c-2.024-.013-2.844.625-3.539,2.467-2.487,6.587-5.142,13.112-7.841,19.615-0.764,1.84-.766,2.572,1.585,2.473,3.983-.168,7.981-0.112,11.968.012,3.779,0.118,6.2,2.224,6.42,5.316a5.644,5.644,0,0,1-4.349,6.127,17.179,17.179,0,0,1-4.448.475q-14.714-.026-29.429,0a16.857,16.857,0,0,1-4.69-.53,5.647,5.647,0,0,1-4.135-5.32,5.51,5.51,0,0,1,3.995-5.638c2.35-.79,4.78-0.448,7.178-0.465a2.015,2.015,0,0,0,2.241-1.39q17.424-43.491,34.906-86.958a3.062,3.062,0,0,0,.01-0.9q-10.475,0-20.9,0a13.137,13.137,0,0,1-4.436-.47,5.736,5.736,0,0,1,.332-11.031,18.537,18.537,0,0,1,4.7-.472c13.218,0.016,26.436.071,39.652-.049,2.309-.021,3.411.6,4.311,2.813q19.572,48.119,39.3,96.175c0.7,1.712,1.51,2.433,3.4,2.311a16.429,16.429,0,0,1,6.185.383,5.723,5.723,0,0,1,4.31,5.453,5.848,5.848,0,0,1-4.457,5.622,17.267,17.267,0,0,1-4.448.471c-9.809-.019-19.619.009-29.429-0.03a20.6,20.6,0,0,1-4.444-.462,5.649,5.649,0,0,1-4.455-5.586,5.583,5.583,0,0,1,4.292-5.442c3.016-.881,6.115-0.343,9.176-0.444C220.288,661.494,222.673,661.557,225.366,661.557Zm-57.774-36.55h42.881l-21.758-52.749C187.434,574.584,168.312,622.417,167.592,625.007Z" fill="#383637"/>
  <path d="M344.068,600.63v-1.236c0-10.894-.04-21.789.04-32.682,0.013-1.768-.51-2.263-2.235-2.209a88.855,88.855,0,0,1-8.973-.142c-3.711-.259-5.857-2.5-5.88-5.807-0.022-3.216,1.971-5.5,5.589-5.8,7.632-.644,15.291-0.134,22.936-0.274a0.994,0.994,0,0,1,1.167,1.2c-0.021.665,0,1.33,0,2q0,51.519-.045,103.038c0,2.173.384,3.116,2.8,2.906a58.837,58.837,0,0,1,7.977.007c3.86,0.19,6.248,2.4,6.365,5.673,0.113,3.165-1.968,5.577-5.736,5.987-5.71.621-11.462,0.19-17.2,0.22-2.211.011-5.156,0.986-6.43-.449-1.091-1.229-.338-4.107-0.373-6.257-0.025-1.572,0-3.145,0-4.763-1.093-.079-1.433.828-1.98,1.347-25.644,24.313-68.188,13.67-78.524-19.657-6.966-22.459,5.828-47.023,29.1-54.93,18.18-6.178,34.692-2.7,49.1,10.165C342.41,599.53,342.849,600.4,344.068,600.63Zm-34.952-2.653a41.986,41.986,0,0,0-9.854,1.289c-22.765,6.08-32.649,33.29-18.484,51.376,8.866,11.321,20.729,15.6,34.883,13.422,15.326-2.359,32.524-17.913,27.551-40.117C339.812,608.771,325.511,597.922,309.116,597.977Z" fill="#383637"/>
  <path d="M97.872,594.4c0.632-1.148.756-2.427,1.578-3.409a6.474,6.474,0,0,1,6.77-1.978,5.559,5.559,0,0,1,4.354,5.433c0.127,6.9.162,13.8-.015,20.7a5.934,5.934,0,0,1-6.042,6.033,6.055,6.055,0,0,1-6.357-5.728,13.226,13.226,0,0,0-4.209-8.234,28.376,28.376,0,0,0-12.317-7.259,53.283,53.283,0,0,0-27.58-.377C38.988,603.306,29.317,619.264,30.44,634.4c1.233,16.612,14.527,27.912,29.419,29.642,16.692,1.939,31.821-1.916,44.706-13.157a9.122,9.122,0,0,1,3.408-2.012,5.791,5.791,0,0,1,6.156,1.639,5.415,5.415,0,0,1,1.017,6.239,13.3,13.3,0,0,1-4.469,5.265,69.477,69.477,0,0,1-35.134,14.056c-10.044,1.147-19.934.567-29.445-3.124C27.826,665.863,17.34,649.883,17.788,630a44.366,44.366,0,0,1,31.2-41.126c16.487-5.258,32.609-4.029,47.786,4.913C97.121,594,97.481,594.186,97.872,594.4Z" fill="#383637"/>
  <path d="M407.947,600.76c1.769,3.708,3.395,7.129,5.031,10.545q11.549,24.11,23.127,48.205c0.36,0.748.388,2.026,1.569,1.98,0.995-.038,1.036-1.174,1.37-1.883q13.373-28.334,26.7-56.69a2.875,2.875,0,0,0,.554-2.159c-3.207,0-6.48-.009-9.752,0a12.979,12.979,0,0,1-4.431-.537,5.66,5.66,0,0,1-3.937-5.482,5.52,5.52,0,0,1,3.956-5.444,11.909,11.909,0,0,1,3.425-.535q16.338-.058,32.675-0.007c4.442,0.019,7.026,2.095,7.233,5.575,0.215,3.6-2.1,6.065-6.145,6.356a43.449,43.449,0,0,1-6.479.027c-1.773-.139-2.59.563-3.319,2.109-10.67,22.644-21.429,45.247-32.076,67.9-0.963,2.049-1.99,3.02-4.4,2.865a106.75,106.75,0,0,0-11.468-.015,3.22,3.22,0,0,1-3.546-2.2c-10.831-22.753-21.755-45.462-32.59-68.213-0.848-1.78-1.79-2.7-3.877-2.455a37.017,37.017,0,0,1-5.482.013c-4.24-.146-6.926-2.44-6.991-5.908-0.066-3.5,2.752-5.986,7.1-6.052,5.486-.083,10.975-0.031,16.462-0.033,5.238,0,10.476.005,15.714,0a12.633,12.633,0,0,1,3.7.456,5.77,5.77,0,0,1,4.366,5.67,5.686,5.686,0,0,1-4.337,5.429c-3.428.952-6.948,0.3-10.423,0.465C410.539,600.8,409.4,600.76,407.947,600.76Z" fill="#383637"/>
  <path d="M777.745,596.727l1.385-.932c0.353,0.827.7,1.659,1.064,2.482,1.361,3.068,3.065,5.821,6.476,6.992-1.227,1.106-2.485,2.181-3.677,3.324-13.047,12.5-13.32,31.879-.641,44.741,15.008,15.226,40.348,15.163,55.334-.138a30.814,30.814,0,0,0-.386-44.236c-9.785-9.618-21.645-12.334-34.887-10.336,0.952-2.377.784-4.922,0.828-7.606a44.049,44.049,0,0,0,3.078,3.661c3.048,2.9,6.049,2.1,7.451-1.862,0.772-2.184.5-4.433,0.544-6.666,16.2,1.162,29.019,8.477,38.183,21.755,11.048,16.007,10.4,41.519-10.272,57.782-21.815,17.161-54.419,13.843-72.132-7.515a42.323,42.323,0,0,1,1.715-55.78C773.673,600.4,775.76,598.61,777.745,596.727Z" fill="#393637"/>
  <path d="M680.435,598.144a39.949,39.949,0,0,0-9.975,2.016,28.341,28.341,0,0,0-4.962,2.265c-3,1.859-6.088,3.963-5.881,8,0.218,4.252,3.577,6.231,7,7.647,6.058,2.509,12.589,2.834,19.013,3.6,8.235,0.979,16.534,1.651,24.417,4.511a34.022,34.022,0,0,1,11.155,6.41c9.841,8.728,10.411,22.038,1.35,31.566-5.955,6.261-13.385,9.674-21.782,11.111-13.323,2.279-26.46,1.957-39.206-3.121a15.075,15.075,0,0,1-2.267-1.011c-2.308-1.4-4.215-2.716-6.366.7-1.316,2.091-4.214,2.125-6.646,1.126a5.746,5.746,0,0,1-3.7-5.462c-0.127-6.232-.166-12.472.009-18.7a5.919,5.919,0,0,1,6.079-6,5.986,5.986,0,0,1,6.427,5.87c0.133,4.686,2.554,7.747,6.268,10.084A38.814,38.814,0,0,0,679,664.284c7.835,0.688,15.609.467,23.222-1.731a23.231,23.231,0,0,0,11.432-7.193c4.161-4.842,3.567-10.4-1.5-14.307-4.4-3.388-9.628-4.737-14.915-5.873-8.462-1.819-17.165-1.9-25.661-3.5-4.826-.908-9.582-2-13.89-4.5-8.971-5.2-12.949-14.905-9.718-23.7,1.748-4.756,5.161-8.061,9.372-10.621a49.289,49.289,0,0,1,19.456-6.447,28.2,28.2,0,0,0-.252,4.211c0.244,2.917.577,5.879,3.881,7.182Q680.43,597.976,680.435,598.144Z" fill="#383637"/>
  <path d="M561.675,673.527q-18.089,0-36.177.01a17.847,17.847,0,0,1-4.7-.491,5.723,5.723,0,0,1-4.312-5.461,5.58,5.58,0,0,1,4.134-5.563,12.834,12.834,0,0,1,4.191-.46c9.481-.005,18.963-0.061,28.442.045,1.913,0.021,2.332-.537,2.325-2.369q-0.1-28.068.012-56.137c0.01-2.11-.738-2.4-2.559-2.379-6.652.094-13.306,0.028-19.959,0.044a12.409,12.409,0,0,1-4.177-.575,5.743,5.743,0,0,1,.11-10.927,13.3,13.3,0,0,1,4.184-.536c10.895,0.016,21.79.056,32.684-.039,1.855-.016,2.326.427,2.32,2.307-0.073,22.621-.019,45.242-0.094,67.863-0.007,2.079.331,2.806,2.646,2.766,9.312-.161,18.628-0.068,27.943-0.065a13.6,13.6,0,0,1,4.439.485,5.494,5.494,0,0,1,4.02,5.618A5.575,5.575,0,0,1,603.042,673a17.819,17.819,0,0,1-4.941.542Q579.889,673.506,561.675,673.527Z" fill="#383636"/>
  <path d="M680.427,597.807c-3.3-1.3-3.637-4.265-3.881-7.182a28.2,28.2,0,0,1,.252-4.211q0.372-1.794.745-3.587c1.173-2.268,2.126-4.661,4.041-6.483,3.318-3.158,6.464-2.368,7.894,1.956,0.647,1.957.331,3.949,0.517,6.229A40.642,40.642,0,0,1,693.054,581c3.073-2.821,6.142-2.017,7.417,1.967a46.921,46.921,0,0,1,1.051,5.227,45.209,45.209,0,0,1,3.366-3.623c2.694-2.346,5.625-1.571,6.927,1.761,1.329,3.4.827,6.839,0.129,10.273a32.065,32.065,0,0,1-3.712,7.572c-0.133.1-.273,0.187-0.4,0.295-1.515,1.3-3.038,2.795-5.256,1.938-2.3-.888-2.874-3.012-3.225-5.2-0.078-.488-0.193-0.971-0.288-1.456q0.172-1.655.34-3.312l-0.344-.107-1.536,2.922c-0.224.245-.446,0.491-0.671,0.733-4.023,4.336-6.983,3.7-8.941-1.906,0-1.942,0-3.883,0-6.281C685.737,594.709,684.215,597.747,680.427,597.807Z" fill="#f4c536"/>
  <path d="M814.312,586.15c-0.044,2.233.228,4.481-.544,6.666-1.4,3.967-4.4,4.765-7.451,1.862a44.049,44.049,0,0,1-3.078-3.661c-0.044,2.684.124,5.229-.828,7.606-2.051,3.072-3.23,3.381-6.663,1.748a31.894,31.894,0,0,1-3.825-4.782,21.639,21.639,0,0,1-1.064,7.055c-0.934,1.612-2.164,2.753-4.189,2.623-3.411-1.171-5.115-3.924-6.476-6.992-0.365-.823-0.71-1.655-1.064-2.482-0.691-3.172-1.318-6.342-.391-9.587,0.544-1.9,1.274-3.719,3.381-4.262,2.134-.55,3.648.785,4.967,2.2a43.176,43.176,0,0,1,2.634,3.5,21,21,0,0,1,.486-5.39c0.591-1.9,1.326-3.665,3.473-4.165,1.925-.448,3.326.668,4.577,1.926,0.863,0.867,1.641,1.819,2.456,2.733l0.171,0.711a0.469,0.469,0,0,0,.172-0.169,0.391,0.391,0,0,0-.368-0.52c0.319-2.2.173-4.489,1.059-6.6,1.428-3.4,4.015-4.031,6.933-1.8,2.2,1.685,3.15,4.208,4.515,6.457Z" fill="#f4c536"/>
  <path d="M567.76,561.058c0,3.322-.091,6.648.04,9.966,0.063,1.6-.479,1.937-1.968,1.9-4.234-.1-8.472-0.088-12.707,0-1.434.029-2.019-.223-2-1.863,0.1-6.892.082-13.788,0.01-20.681-0.015-1.436.425-1.815,1.822-1.787,4.317,0.086,8.64.114,12.955-.011,1.65-.048,1.908.578,1.871,2.011C567.7,554.079,567.76,557.569,567.76,561.058Z" fill="#363435"/>
  <path d="M708.232,604.171a32.065,32.065,0,0,0,3.712-7.572c4.145,1.029,8.453,1.285,12.526,2.654-0.02,3.567,0,7.134-.069,10.7-0.076,4.063-2.223,6.538-5.775,6.771-3.865.254-6.176-1.709-6.8-5.934A10.768,10.768,0,0,0,708.232,604.171Z" fill="#393637"/>
  <path d="M680.427,597.807c3.789-.06,5.31-3.1,7.485-6.009,0,2.4,0,4.339,0,6.281l-7.476.066Q680.43,597.976,680.427,597.807Z" fill="#5e5544"/>
  <path d="M697.523,599.252l1.536-2.922,0.344,0.107q-0.169,1.656-.34,3.312Z" fill="#5e5544"/>
  <path d="M965.356,430.493l0.552-.544a1.162,1.162,0,0,1,.184.347,5.77,5.77,0,0,1-.54.448Z" fill="#7b7d7f"/>
  <path d="M680.975,418.892a50.371,50.371,0,1,1,50.392-50.451A50.592,50.592,0,0,1,680.975,418.892Zm-7.4-77.958c6.908,2.933,10.04,8.163,8.772,14.332a12.087,12.087,0,0,1-11.364,9.474,11.8,11.8,0,0,1-9.34-3.9c-2.475-2.637-3.245-5.93-3.23-9.726-8.541,10.679-7.781,26.546,1.488,36.675a28.631,28.631,0,0,0,46.975-31.627C701.006,343.753,686.45,337.028,673.572,340.934Z" fill="#feffff"/>
  <path d="M806.731,318.152a50.391,50.391,0,0,1,50.236,50.63c-0.139,27.593-23.088,50.309-50.626,50.112A50.371,50.371,0,0,1,806.731,318.152ZM784.094,351.04c-8.553,9.16-8.163,25.73.6,35.952a28.645,28.645,0,0,0,47.128-32c-7.367-13.848-23.247-17.467-32.611-14.011,7.021,2.86,10.232,8.6,8.433,15.071a12.18,12.18,0,0,1-13.7,8.572C787.8,363.605,783.833,358.271,784.094,351.04Z" fill="#feffff"/>
  <path d="M759.593,408.68l-17.368,31.493-14-25.407c-0.961-1.744-1.911-3.5-2.883-5.233-0.517-.925-0.339-1.346.786-1.342q16.565,0.071,33.131.118A1.6,1.6,0,0,1,759.593,408.68Z" fill="#f2c436"/>
  <path d="M767.784,483.97c-2.477,5.8-5.992,11.037-9.1,17.128-3.117-5.8-6.437-10.971-8.9-16.621l0.057-.049c2.316,1.043,3.084,3.527,4.782,5.156a12.385,12.385,0,0,1,2.46,3.087c1.164,2.234,2.123,1.341,3.187.009,2.111-2.641,4.234-5.273,6.327-7.929a1.537,1.537,0,0,1,1.158-.807Z" fill="#abadb0"/>
  <path d="M719.9,484.429c2.316,1.042,3.083,3.528,4.782,5.156a12.37,12.37,0,0,1,2.46,3.087c1.164,2.235,2.123,1.341,3.187.009,2.111-2.642,4.234-5.274,6.327-7.929a1.534,1.534,0,0,1,1.159-.806l0.028,0.025c-2.475,5.8-5.992,11.037-9.1,17.129-3.118-5.8-6.437-10.972-8.9-16.621Z" fill="#abadb0"/>
  <path d="M704.93,550.795c2.312,1.048,3.092,3.521,4.779,5.16a15.2,15.2,0,0,1,2.6,3.3c1.092,1.908,1.877,1.193,2.859-.05,2.147-2.718,4.361-5.383,6.521-8.09a1.509,1.509,0,0,1,1.161-.8l0.025,0.022c-1.947,4.585-4.656,8.767-6.965,13.161-0.612,1.165-1.3,2.292-2.169,3.824-3.175-5.6-6.381-10.837-8.867-16.475Z" fill="#abadb0"/>
  <path d="M764.81,550.795c2.313,1.047,3.092,3.522,4.779,5.161a15.186,15.186,0,0,1,2.6,3.3c1.092,1.91,1.877,1.192,2.859-.05,2.147-2.718,4.361-5.382,6.521-8.09a1.509,1.509,0,0,1,1.161-.8l0.025,0.022c-1.947,4.585-4.656,8.767-6.965,13.161-0.612,1.165-1.3,2.292-2.169,3.824-3.175-5.6-6.381-10.837-8.867-16.474Z" fill="#abadb0"/>
  <path d="M752.811,557.82c-1.945,4.586-4.656,8.767-6.964,13.161-0.612,1.165-1.3,2.292-2.169,3.825-3.172-5.607-6.383-10.837-8.866-16.476l0.058-.051c2.312,1.048,3.092,3.521,4.779,5.16a15.208,15.208,0,0,1,2.6,3.3c1.092,1.909,1.877,1.192,2.859-.051,2.147-2.718,4.361-5.383,6.521-8.09a1.506,1.506,0,0,1,1.161-.8Z" fill="#abadb0"/>
  <path d="M735.375,524.342c2.754,1.33,3.915,4.153,5.746,6.315,2.83,3.341,2.7,3.486,5.487.131,1.587-1.908,3.125-3.86,4.633-5.831a1.988,1.988,0,0,1,1.53-1.1l0.051,0.044c-2.407,5.635-5.827,10.72-8.831,16.65-3.157-5.568-6.274-10.657-8.686-16.144Z" fill="#abadb0"/>
  <path d="M765.315,516.858c2.754,1.33,3.915,4.153,5.746,6.315,2.83,3.341,2.7,3.485,5.487.132,1.587-1.908,3.125-3.859,4.633-5.831a1.992,1.992,0,0,1,1.529-1.106l0.053,0.046c-2.408,5.634-5.828,10.72-8.831,16.651-3.157-5.569-6.274-10.658-8.686-16.145Z" fill="#abadb0"/>
  <path d="M722.883,516.412c-2.408,5.634-5.828,10.72-8.831,16.651-3.157-5.569-6.274-10.658-8.686-16.145l0.069-.06c2.754,1.33,3.915,4.153,5.746,6.315,2.83,3.341,2.7,3.486,5.487.131,1.587-1.908,3.125-3.859,4.633-5.831a1.992,1.992,0,0,1,1.529-1.106Z" fill="#abadb0"/>
  <path d="M735.306,524.4a1.1,1.1,0,0,1-.758-1.1,0.4,0.4,0,0,1,.341-0.194c0.6,0.224.42,0.779,0.486,1.229Z" fill="#abadb0"/>
  <path d="M765.246,516.918a1.1,1.1,0,0,1-.758-1.095,0.4,0.4,0,0,1,.341-0.194c0.6,0.224.42,0.779,0.486,1.229Z" fill="#abadb0"/>
  <path d="M705.366,516.918a1.1,1.1,0,0,1-.758-1.095,0.4,0.4,0,0,1,.341-0.194c0.6,0.224.42,0.779,0.486,1.229Z" fill="#abadb0"/>
  <path d="M737.815,483.945l0.208-.658c0.064,0.044.187,0.124,0.184,0.128-0.115.189-.24,0.371-0.364,0.554Z" fill="#abadb0"/>
  <path d="M734.811,558.331c-0.121-.188-0.245-0.375-0.355-0.57a1.613,1.613,0,0,1,.182-0.136q0.115,0.328.23,0.655Z" fill="#abadb0"/>
  <path d="M752.787,557.8l0.2-.658c0.064,0.044.186,0.123,0.184,0.126-0.114.188-.239,0.371-0.363,0.553Z" fill="#abadb0"/>
  <path d="M767.754,483.945l0.209-.658c0.064,0.045.186,0.124,0.184,0.129-0.114.189-.24,0.371-0.364,0.555Z" fill="#abadb0"/>
  <path d="M764.751,550.846c-0.121-.188-0.245-0.375-0.355-0.57a1.6,1.6,0,0,1,.182-0.136q0.115,0.328.23,0.655Z" fill="#abadb0"/>
  <path d="M704.872,550.846c-0.121-.188-0.245-0.375-0.355-0.57a1.619,1.619,0,0,1,.182-0.136q0.115,0.328.23,0.655Z" fill="#abadb0"/>
  <path d="M782.726,550.313l0.2-.658c0.064,0.044.186,0.123,0.184,0.126-0.114.189-.239,0.371-0.362,0.554Z" fill="#abadb0"/>
  <path d="M722.846,550.313l0.2-.658c0.064,0.044.186,0.123,0.184,0.126-0.114.189-.239,0.371-0.362,0.554Z" fill="#abadb0"/>
  <path d="M752.771,523.853L753,523.2a1.792,1.792,0,0,1,.183.135c-0.111.193-.235,0.379-0.357,0.566Z" fill="#abadb0"/>
  <path d="M719.842,484.478c-0.121-.188-0.245-0.375-0.355-0.57a1.663,1.663,0,0,1,.183-0.136q0.114,0.329.228,0.657Z" fill="#abadb0"/>
  <path d="M782.71,516.367l0.226-.656a1.735,1.735,0,0,1,.182.135c-0.111.193-.235,0.379-0.356,0.567Z" fill="#abadb0"/>
  <path d="M722.83,516.367l0.226-.656a1.73,1.73,0,0,1,.182.135c-0.111.194-.235,0.379-0.356,0.567Z" fill="#abadb0"/>
  <path d="M749.782,484.478c-0.121-.188-0.245-0.375-0.355-0.57a1.65,1.65,0,0,1,.183-0.136q0.114,0.329.228,0.657Z" fill="#abadb0"/>
  <path d="M795.748,600.372l-4.89,2.274a21.626,21.626,0,0,0,1.064-7.055A31.894,31.894,0,0,0,795.748,600.372Z" fill="#393637"/>
  <path d="M800.69,582.773a0.391,0.391,0,0,1,.368.52,0.469,0.469,0,0,1-.172.169l-0.171-.711Z" fill="#d2d3d5"/>
  <path d="M673.572,340.934c12.878-3.907,27.434,2.819,33.3,15.223A28.631,28.631,0,0,1,659.9,387.785c-9.269-10.129-10.029-26-1.488-36.675-0.015,3.8.755,7.089,3.23,9.726a11.8,11.8,0,0,0,9.34,3.9,12.087,12.087,0,0,0,11.364-9.474C683.612,349.1,680.48,343.867,673.572,340.934Z" fill="#383636"/>
  <path d="M784.094,351.04c-0.261,7.231,3.71,12.565,9.854,13.589a12.18,12.18,0,0,0,13.7-8.572c1.8-6.474-1.412-12.211-8.433-15.071,9.363-3.457,25.244.163,32.611,14.011a28.645,28.645,0,0,1-47.128,32C775.931,376.77,775.541,360.2,784.094,351.04Z" fill="#383636"/>
</svg>
