<svg xmlns="http://www.w3.org/2000/svg" width="512" height="512" viewBox="0 0 512 512"><g fill="#008cdb"><path d="M64.778 307.215c-1.667-.63-4.35-.947-8.049-.947v25.512h2.754c4.418 0 7.367-1.121 8.841-3.366 1.472-2.241 2.208-5.234 2.208-8.979 0-3.356-.542-6.075-1.627-8.156-1.082-2.081-2.458-3.435-4.127-4.064zM150.885 306.946c-.583 0-1.348.019-2.294.049v24.785c4.699.065 7.868-.265 9.508-.994 1.641-.724 2.932-2.032 3.879-3.921.944-1.887 1.418-4.444 1.418-7.671 0-4.615-.938-7.81-2.815-9.583-1.878-1.775-5.107-2.665-9.696-2.665zM254.764 306.172c-4.729 0-8.259 2.149-10.594 6.438-2.334 4.293-3.506 11.119-3.506 20.475 0 10.102 1.172 17.388 3.506 21.858 2.334 4.469 5.812 6.703 10.425 6.703 4.809 0 8.438-2.039 10.884-6.122 2.447-4.083 3.666-11.238 3.666-21.469 0-9.358-1.144-16.345-3.436-20.96-2.292-4.614-5.943-6.923-10.945-6.923z"/><path d="M486.925 289.375l-140.521-66.75h14.278v-88.298h-88.298v88.298h2.405l-13.219 4.188-15.984-4.673v-87.813h-88.301v88.298h9.11l-135.33 66.75H16v88.298h88.298v-88.298H86.331l76.333-24.181-14.88 24.181h-34.647v88.298h88.298v-88.298h-20.042l47.956-26.37 19.04 26.37h-37.671v88.298h88.296v-88.298h-16.148l12.989-29.341 59.887 29.341h-44.315v88.298h88.298v-88.298h-7.908l-26.114-25.106 85.861 25.106h-43.866v88.298H496v-88.298h-9.075zm-199.288-82.767c3.558 0 6.548-3.471 8.967-10.416l17.391-50.219h4.875l17.724 50.172c1.749 4.966 3.333 7.955 4.753 8.958 1.42 1.003 2.78 1.504 4.083 1.504v5.304h-28.06v-5.304c2.531 0 4.097-.279 4.71-.836.614-.556.919-1.266.919-2.126 0-.764-.253-1.767-.75-3.009l-.544-1.481-1.626-4.729h-17.391l-1.083 3.199c-.778 2.264-1.167 3.855-1.167 4.779 0 1.561.459 2.651 1.378 3.274.918.619 2.418.93 4.5.93v5.304h-18.68v-5.304zm53.658 43.518l-36.347-10.629 7.467-16.873h.281l28.599 27.502zm-63.628-21.362l-3.272 1.8-1.256-.366 4.528-1.434zm-16.026 5.076l4.439 1.296-2.714 1.491-4.129-2.025 2.404-.762zm-53.159-11.215h11.032l21.703 10.634-20.39 6.459-12.345-17.093zm5.597 19.233l-36.223 11.473 18.896-30.706h3.438l13.889 19.233zm-46.055-35.25c2.974 0 4.955-.532 5.944-1.601.987-1.066 1.479-3.178 1.479-6.331v-38.32c0-3.059-.464-5.145-1.397-6.26-.931-1.113-2.939-1.671-6.026-1.671v-5.304h29.482v5.304c-2.946 0-4.898.548-5.857 1.647-.961 1.099-1.441 3.194-1.441 6.283v14.524h23.227v-14.524c0-2.993-.45-5.064-1.353-6.213-.905-1.144-2.845-1.718-5.819-1.718v-5.304h29.399v5.304c-3.004 0-4.997.525-5.985 1.575-.984 1.052-1.481 3.171-1.481 6.356v38.32c0 3.091.478 5.185 1.42 6.284.942 1.099 2.962 1.647 6.046 1.647v5.304h-29.399v-5.304c2.92 0 4.844-.555 5.777-1.671.93-1.116 1.395-3.202 1.395-6.26v-17.822h-23.227v17.822c0 3.026.459 5.107 1.376 6.234.918 1.132 2.892 1.697 5.922 1.697v5.304h-29.482v-5.302zm-84.96 123.454c-2.292 3.049-5.156 5.067-8.59 6.052s-7.959 1.474-13.573 1.474h-4.172v15.638c0 3 .438 5.09 1.315 6.269.875 1.177 2.705 1.765 5.484 1.765h1.292v5.374H34.171v-5.374h1c2.808 0 4.634-.605 5.482-1.816.849-1.209 1.273-3.281 1.273-6.218v-38.822c0-3.002-.438-5.093-1.312-6.269-.876-1.177-2.691-1.767-5.442-1.767h-1.375v-5.372l22.933-.581c5.726 0 10.156.176 13.282.532 3.126.354 5.998 1.338 8.611 2.951 2.613 1.615 4.58 3.752 5.901 6.415 1.32 2.663 1.98 5.576 1.98 8.737 0 4.293-1.146 7.963-3.44 11.012zm-18.989-40.687h-17.81l135.333-66.75h7.263l-20.808 33.811-103.978 32.939zm124.591 71.885v5.374h-17.682c-1.612-2.229-4.601-7.875-8.965-16.943-2.198-4.582-3.74-7.535-4.631-8.857-.889-1.324-1.798-2.17-2.73-2.543-.933-.37-2.953-.574-6.068-.607v15.542c0 3 .445 5.09 1.336 6.269.888 1.177 2.711 1.765 5.463 1.765h1v5.374h-30.485v-5.374h1.127c2.836 0 4.676-.605 5.527-1.816.846-1.209 1.27-3.281 1.27-6.218v-38.822c0-3.002-.443-5.093-1.333-6.269-.891-1.177-2.711-1.767-5.463-1.767h-1.127v-5.372l22.685-.049 5.088-.049c5.032 0 8.709.192 11.032.579 2.32.389 4.605 1.317 6.858 2.784 2.252 1.47 4.024 3.48 5.318 6.026 1.292 2.552 1.938 5.294 1.938 8.231 0 7.812-3.809 13.151-11.426 16.022 2.03 1.486 5.185 6.134 9.467 13.943 3.335 6.035 5.711 9.673 7.129 10.915s2.975 1.862 4.672 1.862zm-21.23-71.885h-11.761l16.793-27.288 45.752-14.492 7.163 9.917-57.947 31.863zm57.534-43.917l24.984-7.917 6.215 3.044-24.853 13.664-6.346-8.791zm53.062 112.607c-5.644 6.617-13.321 9.923-23.02 9.923-6.642 0-12.52-1.629-17.62-4.889-5.1-3.26-8.737-7.641-10.903-13.144-2.166-5.501-3.253-10.945-3.253-16.336 0-5.906 1.42-11.665 4.256-17.283 2.831-5.613 6.675-9.769 11.531-12.464 4.847-2.693 10.041-4.041 15.572-4.041 9.952 0 17.756 3.333 23.414 9.994 5.658 6.666 8.489 14.838 8.489 24.518 0 9.2-2.822 17.108-8.466 23.722zm-2.521-68.69h-18.83l-21.398-29.632 28.266-15.542 26.264 12.87-14.302 32.304zm17.025-38.454l-21.788-10.678 4.439-2.442 20.503 5.995-3.154 7.125zm-9.029-17.692l19.28-10.604h2.273l-6.624 14.97-14.929-4.366zm105.68 133.405h-34.528v-5.374c3.056 0 4.955-.281 5.69-.846s1.102-1.397 1.102-2.494c0-1.259-.525-2.679-1.58-4.259l-8.423-12.44-8.803 11.182c-1.528 1.968-2.287 3.614-2.287 4.936 0 1.195.412 2.149 1.247 2.856.834.71 2.602 1.064 5.297 1.064v5.374h-24.853v-5.374c2.166 0 4.251-.588 6.253-1.765 2.002-1.179 4.477-3.624 7.425-7.335l12.506-15.731-12.675-19.024c-3.422-5.13-5.793-8.254-7.129-9.368-1.336-1.111-3.492-1.668-6.464-1.668v-5.372h31.903v5.372c-1.921 0-3.196.168-3.839.508-.637.34-.961.975-.961 1.91 0 1.259.459 2.599 1.378 4.02l7.8 11.618 8.587-11.039c1.144-1.483 1.711-2.871 1.711-4.16 0-1.906-1.805-2.857-5.419-2.857v-5.372h22.599v5.372c-3.028.354-5.503 1.275-7.425 2.758-1.913 1.484-4.303 4.052-7.172 7.697l-9.591 12.246 13.181 20.091c3.806 5.777 6.614 9.239 8.419 10.382 1.809 1.146 3.825 1.718 6.051 1.718v5.374zm-7.069-77.259h-11.105l-72.436-35.494 3.624-8.182 49.565 14.494 30.352 29.182zm-26.883-35.173l-32.841-31.577h8.334l133.696 63.504-109.189-31.927zm125.869 52.165c-1.81 0-3.432.773-4.861 2.322-1.43 1.549-3.482 4.826-6.149 9.827l-10.721 20.138v14.571c0 3 .441 5.09 1.317 6.269.876 1.177 2.686 1.765 5.442 1.765h.872v5.374H436.69v-5.374h.919c2.836 0 4.673-.605 5.526-1.816.844-1.209 1.271-3.281 1.271-6.218v-13.507l-12.717-24.687c-2.006-3.874-3.562-6.284-4.673-7.237-1.111-.952-2.583-1.427-4.42-1.427v-5.372h28.359v5.372c-3.061 0-4.589.951-4.589 2.857 0 1.062.567 2.693 1.711 4.889l9.258 17.812 8.508-16.46c.891-1.676 1.332-3.274 1.332-4.791 0-2.871-1.819-4.308-5.461-4.308v-5.372h19.392v5.373z"/><path d="M311.154 169.579l-6.67 19.35h13.72z"/></g></svg>