<svg xmlns="http://www.w3.org/2000/svg" viewBox="0 0 100 100">
  <title>websphere</title>
  <g>
    <rect width="100" height="100" fill="#664c93"/>
    <g>
      <path d="M15.21,69.983l1.355,9.057H16.6l1.441-9.057h2.367l1.441,9.057h.035l1.354-9.057H25.6L23.375,82.231H20.613l-1.373-8.886h-.034l-1.372,8.886H15.073l-2.23-12.248Z" fill="#fff"/>
      <path d="M28.247,78.713a5.17,5.17,0,0,0,.059.8,2.625,2.625,0,0,0,.2.686,1.3,1.3,0,0,0,.361.48.841.841,0,0,0,.548.18.96.96,0,0,0,.875-.43,3.14,3.14,0,0,0,.377-1.3h2.127a3.7,3.7,0,0,1-.857,2.454,3.273,3.273,0,0,1-2.487.84,3.932,3.932,0,0,1-2.007-.43,2.65,2.65,0,0,1-1.064-1.132,4.461,4.461,0,0,1-.42-1.579q-.077-.875-.077-1.748a12.059,12.059,0,0,1,.128-1.785,4.308,4.308,0,0,1,.514-1.526,2.793,2.793,0,0,1,1.106-1.064,4,4,0,0,1,1.922-.395,3.73,3.73,0,0,1,1.69.335,2.538,2.538,0,0,1,1.037.943,3.948,3.948,0,0,1,.514,1.474,12.375,12.375,0,0,1,.137,1.93v.533H28.247Zm2.35-3.079a2.392,2.392,0,0,0-.18-.686.954.954,0,0,0-.361-.428,1.09,1.09,0,0,0-.592-.147.992.992,0,0,0-.591.164,1.173,1.173,0,0,0-.369.428,2.137,2.137,0,0,0-.2.592,3.573,3.573,0,0,0-.059.651v.36h2.418C30.653,76.216,30.631,75.9,30.6,75.634Z" fill="#fff"/>
      <path d="M36.532,69.983V73.86h.034a2.687,2.687,0,0,1,.849-.824,2.228,2.228,0,0,1,1.14-.274A2.325,2.325,0,0,1,40.7,73.9a7.532,7.532,0,0,1,.686,3.715A7.363,7.363,0,0,1,40.7,81.3a2.337,2.337,0,0,1-2.145,1.116,2.554,2.554,0,0,1-1.209-.258,2.358,2.358,0,0,1-.884-.908h-.034v.978H34.165V69.983Zm.231,9.906a1.053,1.053,0,0,0,2.024,0,11.279,11.279,0,0,0,0-4.546,1.053,1.053,0,0,0-2.024,0,11.279,11.279,0,0,0,0,4.546Z" fill="#fff"/>
      <path d="M44.8,78.766a4.138,4.138,0,0,0,.068.781,1.361,1.361,0,0,0,.258.59,1.273,1.273,0,0,0,.506.379,2.027,2.027,0,0,0,.8.136,1.577,1.577,0,0,0,1.021-.368,1.384,1.384,0,0,0,.454-1.14,2.056,2.056,0,0,0-.111-.713,1.42,1.42,0,0,0-.369-.54,2.635,2.635,0,0,0-.677-.438,9.762,9.762,0,0,0-1.038-.4,8.96,8.96,0,0,1-1.423-.6,3.859,3.859,0,0,1-1-.763,2.735,2.735,0,0,1-.591-1.013,4.234,4.234,0,0,1-.189-1.329,3.426,3.426,0,0,1,1.012-2.71,4.059,4.059,0,0,1,2.779-.892,6.094,6.094,0,0,1,1.518.18,3.215,3.215,0,0,1,1.2.583,2.735,2.735,0,0,1,.789,1.03,3.622,3.622,0,0,1,.283,1.5v.344H47.715a2.454,2.454,0,0,0-.308-1.346,1.139,1.139,0,0,0-1.03-.473,1.714,1.714,0,0,0-.686.121,1.173,1.173,0,0,0-.437.318,1.1,1.1,0,0,0-.223.454,2.327,2.327,0,0,0-.06.533,1.775,1.775,0,0,0,.24.952,2.153,2.153,0,0,0,1.03.711l1.9.824a5.931,5.931,0,0,1,1.15.643,3.135,3.135,0,0,1,.712.721,2.382,2.382,0,0,1,.368.849,4.728,4.728,0,0,1,.1,1.029,3.371,3.371,0,0,1-1.124,2.822,4.948,4.948,0,0,1-3.13.884,4.1,4.1,0,0,1-2.993-.91,3.548,3.548,0,0,1-.9-2.607v-.5H44.8Z" fill="#fff"/>
      <path d="M53.908,73v.976h.034a2.6,2.6,0,0,1,.884-.934,2.378,2.378,0,0,1,1.209-.283,2.325,2.325,0,0,1,2.145,1.14,7.532,7.532,0,0,1,.686,3.715,7.363,7.363,0,0,1-.686,3.687,2.337,2.337,0,0,1-2.145,1.116,2.193,2.193,0,0,1-1.989-1.046h-.034V85.2H51.644V73Zm.334,6.886a1.053,1.053,0,0,0,2.024,0,11.279,11.279,0,0,0,0-4.546,1.053,1.053,0,0,0-2.024,0,11.279,11.279,0,0,0,0,4.546Z" fill="#fff"/>
      <path d="M62.587,69.983v3.963h.034a2.393,2.393,0,0,1,2.247-1.184,2.336,2.336,0,0,1,1.741.618,2.776,2.776,0,0,1,.609,2.007v6.844H64.852V75.867a1.579,1.579,0,0,0-.241-1,.958.958,0,0,0-.771-.283q-1.253,0-1.252,1.526v6.125H60.22V69.983Z" fill="#fff"/>
      <path d="M70.821,78.713a5.17,5.17,0,0,0,.059.8,2.625,2.625,0,0,0,.2.686,1.3,1.3,0,0,0,.361.48.841.841,0,0,0,.548.18.96.96,0,0,0,.875-.43,3.14,3.14,0,0,0,.377-1.3h2.127a3.7,3.7,0,0,1-.857,2.454,3.273,3.273,0,0,1-2.487.84,3.932,3.932,0,0,1-2.007-.43,2.65,2.65,0,0,1-1.064-1.132,4.461,4.461,0,0,1-.42-1.579q-.077-.875-.077-1.748a12.059,12.059,0,0,1,.128-1.785A4.308,4.308,0,0,1,69.1,74.22,2.793,2.793,0,0,1,70.2,73.156a4,4,0,0,1,1.922-.395,3.73,3.73,0,0,1,1.69.335,2.538,2.538,0,0,1,1.037.943,3.948,3.948,0,0,1,.514,1.474,12.375,12.375,0,0,1,.137,1.93v.533H70.821Zm2.35-3.079a2.392,2.392,0,0,0-.18-.686.954.954,0,0,0-.361-.428,1.09,1.09,0,0,0-.592-.147.992.992,0,0,0-.591.164,1.173,1.173,0,0,0-.369.428,2.137,2.137,0,0,0-.2.592,3.573,3.573,0,0,0-.059.651v.36h2.418C73.227,76.216,73.2,75.9,73.171,75.634Z" fill="#fff"/>
      <path d="M79,73v1.235h.034a3.348,3.348,0,0,1,.875-1.072,1.968,1.968,0,0,1,1.252-.4c.068,0,.14,0,.214.009a2.063,2.063,0,0,1,.215.026V75.06c-.126-.01-.249-.019-.368-.026s-.244-.007-.369-.007a2.279,2.279,0,0,0-.617.086,1.6,1.6,0,0,0-.566.283,1.407,1.407,0,0,0-.412.513,1.778,1.778,0,0,0-.154.781v5.541H76.739V73Z" fill="#fff"/>
      <path d="M84.475,78.713a5.17,5.17,0,0,0,.059.8,2.625,2.625,0,0,0,.2.686,1.3,1.3,0,0,0,.361.48.841.841,0,0,0,.548.18.96.96,0,0,0,.875-.43,3.14,3.14,0,0,0,.377-1.3H89.02a3.7,3.7,0,0,1-.857,2.454,3.273,3.273,0,0,1-2.487.84,3.932,3.932,0,0,1-2.007-.43A2.65,2.65,0,0,1,82.6,80.858a4.461,4.461,0,0,1-.42-1.579q-.077-.875-.077-1.748a12.059,12.059,0,0,1,.128-1.785,4.308,4.308,0,0,1,.514-1.526,2.793,2.793,0,0,1,1.106-1.064,4,4,0,0,1,1.922-.395,3.73,3.73,0,0,1,1.69.335,2.538,2.538,0,0,1,1.037.943,3.948,3.948,0,0,1,.514,1.474,12.375,12.375,0,0,1,.137,1.93v.533H84.475Zm2.35-3.079a2.392,2.392,0,0,0-.18-.686.954.954,0,0,0-.361-.428,1.09,1.09,0,0,0-.592-.147.992.992,0,0,0-.591.164,1.173,1.173,0,0,0-.369.428,2.137,2.137,0,0,0-.2.592,3.573,3.573,0,0,0-.059.651v.36h2.418C86.882,76.216,86.859,75.9,86.825,75.634Z" fill="#fff"/>
    </g>
    <path d="M17.27,24.87v1.791H30.012V24.87Zm14.547,0v1.791H49.974a6.913,6.913,0,0,0-4.311-1.791Zm21.72,0v1.791H64.521l-.652-1.791Zm18.861,0-.652,1.791H82.63V24.87ZM17.27,28.354v1.791H30.012V28.354Zm14.547,0v1.789H52.081a4.708,4.708,0,0,0-.649-1.789Zm21.72,0v1.789H65.726l-.6-1.789Zm17.557,0-.6,1.789H82.63V28.357ZM20.932,31.838v1.794H26.45V31.838Zm14.547,0v1.794H41V31.838Zm10.885,0v1.794h5.518a6.1,6.1,0,0,0,.35-1.794Zm10.834,0v1.794h9.783l-.652-1.794Zm12.693,0-.655,1.794h9.832V31.838Zm-48.96,3.486v1.791H26.45V35.325Zm14.547,0v1.791H49.573a6.043,6.043,0,0,0,1.555-1.791Zm21.72,0v1.791h5.518v-1l.35,1H73.175l.376-1v1h5.518V35.325H68.71l-.55,1.517-.552-1.517ZM20.932,38.809V40.6H26.45V38.809Zm14.547,0V40.6H51.128a6.085,6.085,0,0,0-1.555-1.791Zm21.72,0V40.6h5.518V38.809Zm6.52,0,.667,1.791h7.579l.634-1.791Zm9.832,0V40.6h5.518V38.809ZM20.932,42.293v1.791H26.45V42.293Zm14.547,0v1.791H41V42.293Zm10.885,0v1.791h5.868a6.088,6.088,0,0,0-.35-1.791Zm10.834,0v1.791h5.518V42.293Zm7.773,0,.647,1.791H70.7l.652-1.791Zm8.579,0v1.791h5.518V42.293ZM17.37,45.777v1.794H30.111V45.777Zm14.447,0v1.794H51.432a4.728,4.728,0,0,0,.649-1.794Zm21.819,0v1.794h9.08V45.777Zm12.591,0,.665,1.794h2.585l.624-1.794Zm7.323,0v1.794h9.18V45.777ZM17.37,49.263v1.791H30.111V49.263Zm14.447,0v1.789H45.663a6.917,6.917,0,0,0,4.311-1.789Zm21.819,0v1.791h9.08V49.263Zm13.852,0,.639,1.786.11,0,.649-1.789Zm6.063,0v1.791h9.18V49.263Z" fill="#fff"/>
  </g>
</svg>
