<?xml version="1.0" encoding="utf-8"?>
<!-- Generator: Adobe Illustrator 18.0.0, SVG Export Plug-In . SVG Version: 6.00 Build 0)  -->
<!DOCTYPE svg PUBLIC "-//W3C//DTD SVG 1.1//EN" "http://www.w3.org/Graphics/SVG/1.1/DTD/svg11.dtd">
<svg version="1.1" xmlns="http://www.w3.org/2000/svg" xmlns:xlink="http://www.w3.org/1999/xlink" x="0px" y="0px"
	 viewBox="0 0 200 200" enable-background="new 0 0 200 200" xml:space="preserve">
<g id="Layer_14">
</g>
<g id="rabbitmq">
	<rect fill="#EA6A13" width="200" height="200"/>
	<path fill="#FFFFFF" d="M145.1,88.2h-31.4c-2.2,0-3.9-1.7-3.9-3.9V52.9c0-2.2-1.8-3.9-3.9-3.9H94.1c-2.2,0-3.9,1.7-3.9,3.9v31.4
		c0,2.2-1.8,3.9-3.9,3.9H74.5c-2.2,0-3.9-1.7-3.9-3.9V52.9c0-2.2-1.8-3.9-3.9-3.9H54.9c-2.2,0-3.9,1.7-3.9,3.9v90.2
		c0,2.2,1.8,3.9,3.9,3.9h90.2c2.2,0,3.9-1.7,3.9-3.9v-51C149,89.9,147.2,88.2,145.1,88.2z M129.4,121.5c0,3.3-2.6,5.9-5.9,5.9h-7.8
		c-3.3,0-5.9-2.6-5.9-5.9v-7.8c0-3.3,2.6-5.9,5.9-5.9h7.8c3.3,0,5.9,2.6,5.9,5.9V121.5z"/>
</g>
<g id="python">
</g>
<g id="golang">
</g>
<g id="django">
</g>
<g id="postgres">
</g>
<g id="centos">
</g>
<g id="fedora">
</g>
<g id="ruby">
</g>
<g id="rails">
</g>
<g id="ubuntu">
</g>
<g id="php">
</g>
<g id="java">
</g>
<g id="deer-resume">
</g>
<g id="_x32_048">
</g>
<g id="redis">
</g>
<g id="wordpress">
</g>
<g id="ghost">
</g>
<g id="phpmyadmin">
</g>
<g id="mongo-express">
</g>
<g id="earth">
</g>
<g id="nginx">
</g>
<g id="mysql">
</g>
<g id="mongo-db">
</g>
<g id="docker">
</g>
<g id="tomcat">
</g>
</svg>
