<svg xmlns="http://www.w3.org/2000/svg" viewBox="0 0 200 200" enable-background="new 0 0 200 200"><g><path d="M0 0h200v200h-200v-200z" fill="#07A007"/><!-- Copyright: Jamie Fang @ DaoCloud --><path d="M64.862 147.835c-1.349 0-2.442 1.093-2.442 2.442v12.725l-14.451-14.452c-.696-.697-1.745-.906-2.661-.529-.912.378-1.507 1.269-1.507 2.256v18.621c0 1.349 1.093 2.442 2.442 2.442 1.349 0 2.442-1.093 2.442-2.442v-12.725l14.451 14.452c.467.467 1.091.715 1.728.715.314 0 .631-.061.934-.186.912-.378 1.507-1.269 1.507-2.256v-18.621c-.002-1.349-1.095-2.442-2.443-2.442zm27.272 10.737l-9.92.031c-1.29-.018-2.477 1.152-2.477 2.442 0 1.29 1.187 2.46 2.477 2.442l5.983-.031-1.465 2.961h-7.692l-3.815-6.715 3.846-6.959h8.182l1.908 3.915h4.914l-3.098-7.425-.672-1.374h-14.135l-.672 1.251-5.189 9.432-.671 1.19.671 1.19 5.189 9.126.702 1.251h13.583l.672-1.374 3.876-7.814 1.74-3.541h-3.937v.002zm8.773-10.744c-1.279.016-2.427 1.194-2.411 2.472v6.363h4.884v-6.363c.016-1.298-1.174-2.488-2.473-2.472zm27.383.24c-.914-.377-1.964-.168-2.661.529l-14.451 14.452v-12.725c0-1.349-1.093-2.442-2.442-2.442s-2.442 1.093-2.442 2.442v18.621c0 .987.595 1.878 1.507 2.256.302.125.62.186.934.186.636 0 1.261-.248 1.727-.715l14.451-14.452v12.725c0 1.349 1.093 2.442 2.442 2.442s2.442-1.093 2.442-2.442v-18.621c0-.987-.595-1.878-1.507-2.256zm19.595 11.548l7.596-7.57c.956-.952.958-2.498.006-3.453-.951-.956-2.496-.958-3.453-.006l-7.608 7.581-7.608-7.581c-.956-.952-2.501-.95-3.453.006-.952.955-.95 2.501.006 3.453l7.596 7.57-7.574 7.548c-.956.952-.958 2.498-.006 3.453.477.479 1.103.718 1.729.718.624 0 1.247-.237 1.724-.713l7.586-7.56 7.586 7.56c.477.475 1.1.713 1.724.713.627 0 1.252-.239 1.729-.718.952-.955.95-2.501-.006-3.453l-7.574-7.548zm-49.389-.993v10.221c-.016 1.279 1.133 2.456 2.411 2.472 1.299.016 2.489-1.174 2.472-2.472v-10.221h-4.883zm38.012-85.458l-39.03.12c-5.076-.072-9.744 4.531-9.744 9.607s4.668 9.679 9.744 9.607l23.538-.12-5.764 11.649h-30.263l-15.012-26.42 15.132-27.381h32.193l7.506 15.402h19.335l-12.189-29.212-2.642-5.404h-55.612l-2.642 4.924-20.416 37.108-2.642 4.684 2.642 4.684 20.416 35.908 2.762 4.924h53.441l2.642-5.404 15.252-30.744 6.845-13.932h-15.492z" fill="#fff"/></g></svg>