<svg id="mongo-db" xmlns="http://www.w3.org/2000/svg" viewBox="0 0 200 200"><defs><style>.cls-1{fill:#4d4d4d;}.cls-2{fill:#9c0000;}.cls-3{fill:#b50808;}.cls-4{fill:#c61818;}.cls-5{fill:#ce3129;}</style></defs><title>image-icons_3</title><polygon class="cls-1" points="30.7 147.28 60.78 147.28 62.93 121.49 34.99 115.04 30.7 147.28"/><polygon class="cls-1" points="36.07 110.74 62.93 117.19 69.38 94.63 46.81 82.81 36.07 110.74"/><polygon class="cls-1" points="48.96 78.51 70.45 90.33 87.64 78.51 71.53 60.24 48.96 78.51"/><polygon class="cls-1" points="169.3 147.28 139.22 147.28 137.07 121.49 165.01 115.04 169.3 147.28"/><polygon class="cls-1" points="163.93 110.74 137.07 117.19 130.62 94.63 153.19 82.81 163.93 110.74"/><polygon class="cls-1" points="151.04 78.51 129.55 90.33 112.36 78.51 128.48 60.24 151.04 78.51"/><polygon class="cls-1" points="76.9 57.02 93.02 76.36 108.06 76.36 122.03 57.02 108.06 52.72 92.64 52.72 76.9 57.02"/><polygon class="cls-2" points="30.7 147.28 60.78 147.28 62.93 121.49 34.99 115.04 30.7 147.28"/><polygon class="cls-3" points="36.07 110.74 62.93 117.19 69.38 94.63 46.81 82.81 36.07 110.74"/><polygon class="cls-4" points="48.96 78.51 70.45 90.33 87.64 78.51 71.53 60.24 48.96 78.51"/><polygon class="cls-2" points="169.3 147.28 139.22 147.28 137.07 121.49 165.01 115.04 169.3 147.28"/><polygon class="cls-3" points="163.93 110.74 137.07 117.19 130.62 94.63 153.19 82.81 163.93 110.74"/><polygon class="cls-4" points="151.04 78.51 129.55 90.33 112.36 78.51 128.48 60.24 151.04 78.51"/><polygon class="cls-5" points="76.9 57.02 93.02 76.36 108.06 76.36 122.03 57.02 108.06 52.72 92.64 52.72 76.9 57.02"/></svg>