<svg xmlns="http://www.w3.org/2000/svg" viewBox="0 0 200 200" enable-background="new 0 0 200 200"><g><path fill="#178CBA" d="M0 0h200v200h-200z"/><!-- Copyright: Jamie Fang @ DaoCloud --><path d="M100.116 38c-34.251 0-62.116 27.819-62.116 61.996 0 34.189 27.865 62.004 62.116 62.004 34.255 0 61.884-27.815 61.884-62.004 0-34.177-27.629-61.996-61.884-61.996zm-55.85 61.996c0-8.076 1.74-15.752 4.84-22.684l26.641 72.858c-18.632-9.041-31.481-28.106-31.481-50.174zm55.85 55.754c-5.479 0-10.772-.806-15.775-2.275l16.756-48.6 16.926 46.942c.112.275.248.527.403.767-5.801 2.042-11.804 3.166-18.31 3.166zm7.46-81.887c3.364-.174 6.39-.527 6.39-.527 3.007-.356 2.654-4.774-.356-4.596 0 0-8.808.709-14.644.709-5.491 0-14.706-.709-14.706-.709-3.019-.182-3.371 4.418-.364 4.596 0 0 2.848.353 5.859.527l8.703 23.8-12.226 36.58-20.336-60.38c3.364-.174 6.394-.527 6.394-.527 3.003-.356 2.654-4.774-.356-4.596 0 0-9.04.709-14.884.709-1.05 0-2.282-.027-3.596-.074 9.986-15.128 27.152-25.122 46.663-25.122 14.539 0 27.544 5.553 37.479 14.636-.24-.012-.477-.043-.725-.043-5.483 0-9.374 4.766-9.374 9.897 0 4.596 2.65 8.479 5.479 13.074 2.127 3.712 4.604 8.479 4.604 15.372 0 4.766-1.841 10.304-4.247 18.015l-5.576 18.581-20.181-59.922zm20.382 74.319l17.058-49.224c3.181-7.955 4.247-14.314 4.247-19.964 0-2.054-.139-3.956-.376-5.731 4.359 7.936 6.839 17.046 6.839 26.737 0 20.565-11.164 38.518-27.768 48.182z" fill="#fff"/></g></svg>