<svg id="tomcat" xmlns="http://www.w3.org/2000/svg" viewBox="0 0 200 200"><defs><style>.cls-1{fill:#ff0;}.cls-2{fill:#ffc;}.cls-3{fill:#cc0;}</style></defs><title>image-icons_3</title><path class="cls-1" d="M80.36,71.33l-10,1.62-9.1,4-7.73,4.86-7.35,9-4.15,4.4-4,1.48L37,94.05l1.86-2.68,0.42-3.78,1.24,0.05,1.36,1.24L41.49,85,40,84l0-1.47-3.57,2-3.23,3.81-0.67,3.41,1.38,2.73,1.29,4.64,2.62,1.24,2.76-.14,2.62-1.52-1.75,8.85,1.75,9.85L41.3,122,35,128.76l1.12,4,3,4.69,5.62,4,3,0.41L51,142,49,150.47l7.6,3.12L66,154.83l3.24-2.12L69.52,147l3.61-6,0.25-4.74,8.72,0.62,8.1-.75L82.11,141l1.37,5.86,5.11,8,5,2.12,4-1.62,1.62-3.24,8.35-6.36,1.62,1.37,13.09,0.5,2.62-2.12,0.25-3.74-0.87-1.62L123.61,130l-4.36-8.72,0.75-3.86,2.62,1.37,7.35,6.85,3.61,0.25,4-1.62,4-3,2-6.48,11.72,0.75,7.1-2.74,5.73-5.36,4.11-7.73,1-9.1L172.34,80l-2.24-9.47-2.24-3-3.12-1-5.48,6-5,1.75-4.36-7.23-4.36-4-2.37-1.5-9.47-7.85-7.6-4.11L118.5,49l-8.85,1.5-7.73,2.87-5.36,4.36-4.24,5.11L88,64.1l-7.6,7.23"/><path class="cls-2" d="M51.45,93.82c-8.54,10-6.64,22-4.28,33.88l-3.79-9.57L42,109.35q0.2-4.49.4-9L46,91.79l5.39-8,8.38-7L68.91,73l10.77-1.4L69.71,83c-8,2.6-12.73,4.35-18.26,10.8"/><path class="cls-2" d="M91.65,63.47a65.91,65.91,0,0,0-13,16.94C76,85.26,73,89.94,70.12,94.72c-1.44,2.42-1.57,4.45-2,7.24l-4.19-5,2-6L72.7,78.83,87.06,64.67l4.59-1.2"/><path class="cls-2" d="M121,49.11c-4.76,1.78-12.65,2.37-13.2,7.83-0.39,3.88.29,5.82,2.63,9.93-5.77-6-7.2-5-18.35-3.19l4.79-6.78,8.38-5.19L116,49.31l5-.2"/><path class="cls-3" d="M134.1,122.94c1.58,1,1.55,1.69,1.28,2.35l3.75-1.5,2.43-3.26,1.8-4.64-2.3-1.73L131,115.44l-0.75,2,0.21,2.89,1,1.71,1.5,0.75,1.18,0.11"/><path class="cls-3" d="M133.16,105.73c-5,1.46-5,1.86-6.49,6.86a19.87,19.87,0,0,1,6.49-6.86"/><path class="cls-3" d="M166.69,68.28a4.87,4.87,0,0,0-2.33,1.43,13.75,13.75,0,0,1-4.24,4.49A13.23,13.23,0,0,1,157,75.57c-0.88.27-1.42,0-2.17,0.57l1.34,0.23h3l3.64-2.25,2.14-2.25,1.77-3.59"/><path class="cls-3" d="M86.36,79.48c-2,5.43-3.72,10.08-6.72,15A45,45,0,0,0,88,82.11c0.86-1.82,1-4,3.41-3.17,0.11,1.82.49,3.64,0.6,5.46,1.29-9.24,4.93-13.11,13.38-16.7l-7.17.86-6.74,1.5-3.32,4.82-1.82,4.6"/><path class="cls-3" d="M102.73,79.26c1.82,8.58,4.45,16.82,5.59,25.53,0.74,5.66.82,8.39-2,13.27a18.76,18.76,0,0,0-8.06,1.14c-12,3.93-18.87,9.71-27-1.94L79,120.92l5.52-1.08,9.74-5.67,7.6-1.5,2.46-10.28-1.82-13.59q-0.11-3.21-.21-6.42l0.43-3.1"/><path class="cls-3" d="M123.39,132.36c-1,7,2.32,10.72.94,12.64a5.38,5.38,0,0,1-1.51,1.76c-2.11.93-5-.17-5.21,0.37h-7l-2.78-1.18,4.28-5,4.17-9.1,2.68-9.21h1.39l3,9.74"/><path class="cls-3" d="M111.7,112.09c0.57,3.17,1.55,3.92,3,7a81.2,81.2,0,0,1-4.5,15.35,12.18,12.18,0,0,1-2.89,4.32,74.22,74.22,0,0,1-7.56,6.65c-2,1.51-3.33.75-5.76,0.41-1,1.87-1.31,2.9-3.21,3.85-2.92,1.46-5.53-1.68-7.81-3.53l5,7.74,3.43,3.21,2.89,0.43,3.85-2.36,2-3.85,4.28-3.21,5.25-4.5,3.32-4.71,3-5.57,3.85-11.56,0.32-4.39-4.82-2.14c-1.18-1.11-2.49-2-3.67-3.14"/><path class="cls-3" d="M73.3,134.39c5.4,0,11.11-.3,16.06-2.57a44.11,44.11,0,0,1,4.5-5.67,19.3,19.3,0,0,0-2.46,7.92l-1.61,2.35-12.2.32-4-.43-0.43-.43,0.11-1.5"/><path class="cls-3" d="M72.55,130.64l-0.42-3.8c-0.92,5.56-.7,9.28-3.26,14.26a18.77,18.77,0,0,1-7,5.3,10.12,10.12,0,0,1,.16,3.22c-0.47,3.6-7.67,2-10.63,1.87l14.25,3.67,3.21-1.28L70,147.66l3-5.57,0.54-3.43-1-8"/><path class="cls-3" d="M64.52,99.28c-0.15,2.7-.32,3.83.87,6.21,1.51,3,3.37,5.88,5,8.88l0.54-6-6.42-9.1"/><path class="cls-3" d="M42.55,119.69l-1.39,3A36.7,36.7,0,0,0,46,133.42a8,8,0,0,1-1.71,3.42,38.35,38.35,0,0,0-6.2-.42L45.25,142l3.53-.64,3.53-3.53-5-7.81-4.74-10.31"/><path class="cls-3" d="M166.71,66.86c1.46,6.55,3.33,12.59,3.16,19.3-0.21,8.23-1.82,18.63-9.44,23.59-8.54,5.56-18.57,2.93-27.94.55L143.94,115l10.7,0.53,7.28-2.14,5.67-4.71,4.28-9,1.61-10.38L172.2,79.16l-2.35-10.06-3.14-2.23"/><path class="cls-3" d="M39.26,86.39c-3.88,2.52-5.4,3.63-5,8.31l1.16,4.2L37.09,100l2,0.68,3.67-.87L44.67,94l-5.22,2.56H38.25l-1.35-2.08L38.54,92l0.87-4.59,1.11,0.34,1.35,1.06-0.19-2.41-0.92-1.55-0.92-.77-0.58,2.27"/><path class="cls-3" d="M126.25,49.53c3.44,3.2,7.66,6,10.42,9.88,1.06,1.51,2.25,2.28,0,4.42a10.42,10.42,0,0,1,5.2-.38c3.49,0.42,6.76,5.38,7,8.93,0,0.33-1,1.09-3.66,1.83-0.05.1-1.52-.2-1.49-0.1a2.15,2.15,0,0,0,1.23,1.24,8.12,8.12,0,0,0,.78,3.1,23.53,23.53,0,0,1,5,.48,4.52,4.52,0,0,1,.43,2.78L153,81.4,152.51,77l1.71-2.89-2.46-5.57L147,64.06l-0.45,0-5.3-3.25-8.64-7.07-6.41-4.19"/><path class="cls-3" d="M132,75.91a5.63,5.63,0,0,1-.81,1.18,7.77,7.77,0,0,1,2.65,4.18L129,83.68l-4.11,3.94c-1.8-1-2.25-1.72-3.13-3.57a4.83,4.83,0,0,1-2.82.22,2.31,2.31,0,0,0,1.39-.46L123,81.09l4.62-3.5,3-1c0.38-.16,1-0.54,1.42-0.7"/><path class="cls-3" d="M136.51,80.74c-5.15,2.78-10.09,5.57-12.73,10.84,0-6.69,6.72-9.64,12.73-10.84"/><path class="cls-3" d="M122.76,67.58a15.18,15.18,0,0,0-6.19,13c-1.25-4.44-.8-8.64,3-11.71l1.94-.94,1.23-.35"/><path d="M174.27,79.7A40,40,0,0,0,170.83,68,4.61,4.61,0,0,0,170,66.9,8.81,8.81,0,0,0,166.79,65a4.76,4.76,0,0,0-3.72,0,3.09,3.09,0,0,0-.77.57A17.45,17.45,0,0,0,160.43,68a13.17,13.17,0,0,1-2.1,2.59,11.06,11.06,0,0,1-3.13,1.69,21.24,21.24,0,0,0-1.63-3.17,30.35,30.35,0,0,0-2.5-3.38,13.85,13.85,0,0,0-2.28-2.18c-0.8-.61-1.61-1.12-2.56-1.71a54,54,0,0,1-6.92-5.43c-1-.88-2-1.77-3-2.59C131,49.47,126.12,47.36,120.87,47s-10.72,1.1-17.22,3.84a24.86,24.86,0,0,0-7.5,4.76,45.58,45.58,0,0,0-5.39,6.27,9.43,9.43,0,0,0-2.94.61,11.64,11.64,0,0,0-3.37,2.22c-0.9.79-1.76,1.59-2.59,2.39s-1.53,1.52-2.28,2.29a74,74,0,0,0-15.06,3.67A39.5,39.5,0,0,0,52.21,80.7a32.37,32.37,0,0,0-4.29,4.6,33.9,33.9,0,0,0-3.17,5,35,35,0,0,1-2.47,2.56,9,9,0,0,1-2.76,1.79h0c-0.59.23-.83,0.36-0.86,0.35a0.67,0.67,0,0,1-.09-0.27c1.45-1.38,1.68-3.42,1.81-5.44a7.75,7.75,0,0,1,.51.73c0.19,0.3.39,0.6,0.62,0.9l1,1.24,0.35-1.55A10.87,10.87,0,0,0,43,86.13a4.17,4.17,0,0,0-1.46-2.46l0.22-.56c0.25-.63.5-1.28,0.72-1.89L42.94,80l-1.27.22c-1.69.29-5.32,2.29-7.88,4.94a12.26,12.26,0,0,0-2.3,3.22,6.14,6.14,0,0,0-.59,3.68,6,6,0,0,0,1.72,3.17c0.18,0.73.35,1.36,0.52,1.93a13.16,13.16,0,0,0,.7,1.8,5.45,5.45,0,0,0,3.3,2.93,6.8,6.8,0,0,0,3.52.11,32.16,32.16,0,0,0-.44,4.31,55.69,55.69,0,0,0,.22,6.84c0,0.57.12,1.19,0.22,1.87s0.18,1.15.29,1.71l-0.67,1.83-1,2.84-2.3,2.28-2.15,2.13-0.52.5c-1.45,1.39-1.74,1.67-1.33,4.13a15,15,0,0,0,1.52,4.5,16.2,16.2,0,0,0,2.89,3.9A20.4,20.4,0,0,0,44,143.29a8.85,8.85,0,0,0,4.5.62c-0.07.22-.15,0.45-0.23,0.67-0.23.63-.48,1.26-0.77,1.88-1.78,3.9,0,5.94,2.89,7.24a29.61,29.61,0,0,0,4.68,1.5l1,0.28a42.22,42.22,0,0,0,8,1.61c3.2,0.2,6.09-.46,6.86-3.33a16.08,16.08,0,0,0,.56-2.87,14.33,14.33,0,0,0-.05-2.59,18.41,18.41,0,0,1,2-3.57l0.34-.5A6.17,6.17,0,0,0,75,141.57a11.16,11.16,0,0,0-.13-2.88c0-.12,0-0.29-0.07-0.52a46,46,0,0,0,5.56.38c0.93,0,1.86,0,2.8-.07l-0.73.37-0.35.18c-2.47,1.27-2.58,3.68-1.8,6.16a25.83,25.83,0,0,0,3,5.9c1.89,2.92,3.7,5.39,5.89,6.73s4.92,1.57,8.31-.26a6.75,6.75,0,0,0,3-3.17c0.22-.39.47-0.82,0.75-1.24,0.71-.47,2.48-1.93,4.22-3.37l1.85-1.52A4.59,4.59,0,0,0,109,149a20.35,20.35,0,0,0,3.15.39c0.93,0.07,4,.07,5.93.07h1.41a9.94,9.94,0,0,0,4.89-.79c1.32-.75,2.1-2.07,2.27-4.44a8,8,0,0,0-.06-2.36,7.34,7.34,0,0,0-.86-2q0-1.54-.08-3.07t-0.09-3.26a14.78,14.78,0,0,0-.44-3.35A22.19,22.19,0,0,0,124,127c-0.33-.79-0.6-1.52-0.87-2.24l-0.71.26,0.11,0,0.6-.22h0a35.44,35.44,0,0,0-1.43-3.44q0.06-.34.11-0.74l1.13,1.09,1.66,1.6a21.18,21.18,0,0,0,3.79,3.14,8.69,8.69,0,0,0,5,1.22,12,12,0,0,0,6.34-2.4,10.52,10.52,0,0,0,3.91-5.19l0.53-1.75,0.42-1.4a35,35,0,0,0,9.37.35,23.1,23.1,0,0,0,8.44-2.42,21.28,21.28,0,0,0,8.45-8.32h0a32.79,32.79,0,0,0,3.94-13.06,57,57,0,0,0-.61-13.75h0Zm-39,31.47a19.94,19.94,0,0,1-4.47-2.4,11.45,11.45,0,0,1,.05,5.72c-0.88,3-2.29,7.82,1.73,8.71,1.53,0.34,2.23.29,4.39-.82a8.08,8.08,0,0,1-3.84.08,2.5,2.5,0,0,1-2-1.71,6.53,6.53,0,0,0,2.06.68c3,0.72,5.83-.72,6.38-2.79a18.47,18.47,0,0,1,1-3.49c0.62,0.19,1.26.36,1.91,0.52l-1.11,3.62c-1,3.13-4.7,5.65-8,5.59-3.05-.05-5-2-7.09-3.84L122,117.29a32.66,32.66,0,0,1-10.36-5.21c2.51,2.95,4.21,4.58,7.7,6-0.51,5.19-2.31,9-3.85,13.93-0.7,2.24-6.19,11.24-7.71,12.12-1.08.63-7.88,6.35-9.16,7.11-1,1.26-1.79,3-3.22,3.77-4.36,2.31-7.17-2.11-9.51-5.84-1.07-1.7-4-6.59-1.45-8a68.2,68.2,0,0,0,6.31-3.86c0.37,0.67,1,1.31,1.41,2l-0.27-2.19a17.25,17.25,0,0,1-.05-3.73l0.3-3.87c-0.38,1.31-1.13,2.62-1.5,3.93-0.15.52-.27,0.95-0.35,1.34a44.1,44.1,0,0,1-16.76.22c-0.36-2.07-.79-4.24-1.16-5.78-0.11,1.74,0,6.53,0,9.22a6.87,6.87,0,0,1-1.17,4.56,44.08,44.08,0,0,0-2.84,4.83,12.17,12.17,0,0,1-.35,4.61c-0.78,2.79-8.66.63-10.73,0.06-2.56-.7-7.85-1.74-6.52-5.15a43.92,43.92,0,0,0,2.48-10.37c-4.69-6.75-9-16-9.88-24.21-0.65-6.37-.26-10.28,1.12-14.18,2.18-6.17,5.24-11.51,10.14-15.81,6.61-5.8,12.79-8.13,22.46-9.6-2.33,2.6-4.63,5.36-7.14,8.31a42.18,42.18,0,0,0-5.66,9.28C62,95.36,62.07,97.08,65,101c2.54,3.42,3.92,5,5,8.3a17.27,17.27,0,0,0-1.56,6.07c3.12,3.41,5.43,5.74,8.46,6.46a11,11,0,0,0,8.1-.79c5.9-3,11.35-6.91,18-7.07,3.08-7.57,2.77-13.89,1.29-21.21A105.89,105.89,0,0,1,102.62,78a35.43,35.43,0,0,0-.56,15.09c1.12,6.3,2,13.26-1.12,18.8-6,.46-11.17,4.12-16.59,6.93a9.09,9.09,0,0,1-6.86.58c-2.24-.62-3.75-2.1-6.16-4.88,0-2.79.59-4.08,1.87-6.61C75.27,103.82,77.54,100,80,96c-3.06,3.69-6,6.77-8.36,10.48-0.92-2.62-2.23-3.95-4.41-6.9s-2.35-4.14-.76-7.48,3-6.29,5.68-9.23c4.7-5.08,9-10.73,14.16-15.73C89.14,64.47,90.27,64.56,94,64c3.35-.51,6.62-1.15,10-1.94-3.3.31-6.49,0.42-9.71,0.5H94.2c3.16-4,5-6.29,10.14-8.52C117,48.55,125,48,135,56.3c2.58,2.17,4.82,4.27,7.43,6.13a9.42,9.42,0,0,0-2.84.67,12,12,0,0,1,4.19.25q0.57,0.37,1.18.73a11.06,11.06,0,0,1,4.14,3.42,37,37,0,0,1,3.38,5.69c-0.63-.23-1.17-0.42-1.64-0.56a3.53,3.53,0,0,0-3.33.21l-0.08,0a15.6,15.6,0,0,1-3.66,1.23,4.36,4.36,0,0,0,2.29,0l0.23-.07a3.54,3.54,0,0,0-.09,3.41h0a1.93,1.93,0,0,0,.37.58c-0.48.18-1,.38-1.48,0.6a23.34,23.34,0,0,1,6.78-.12c0.15,0.73.3,1.49,0.45,2.28l-0.85.07h-0.07c-1.09-.87-2.3-0.72-4-0.35-5,1.15-3.85,4-6.17,8.24,2.41-2.94,2.23-6,6.15-6.95a6.33,6.33,0,0,1,2.15-.39A4.91,4.91,0,0,0,147.08,84c-1.08,3-.41,5.6-1.59,8.44,1.47-2.54,1.55-5,2.86-7.69,0.47-1,2.22-2.49,3.29-2.52l0.88,0a22.43,22.43,0,0,1,.32,4.76,53.24,53.24,0,0,1-1.24,7.75c1.33-1.71,1.93-5.32,2.51-7.86a22.26,22.26,0,0,0-.08-8.67c-0.73-3.9,3.29-3.27,5.62-5.11,1.72-1.35,2.9-3.51,4.47-5s4,0.71,4.63,2.19c2.66,6.44,3.87,16.57,3.17,23.05-0.79,7.28-4.31,15.23-10.73,18.82-8.19,4.57-17.84,1.78-26-1h0ZM123.6,143.51c-0.27,3-1.27,3.2-3.91,3.16-1.2,0-6,0-7.18-.15-1.71-.15-2.67-0.3-3.19-0.69,2.69-2,7.26-10.12,8.15-12.93,0.94-3,2-5.55,2.74-8.29a34.61,34.61,0,0,0,1.14,3.5,13.23,13.23,0,0,1,1.34,5.47q0.1,3.45.19,6.9a3.83,3.83,0,0,1,.72,3h0ZM42.68,120.75a62.32,62.32,0,0,0,7.84,16.59v0.09a6.23,6.23,0,0,1-.93,2.31c-2.3,3.08-8.17-1.44-9.86-3.17a11.68,11.68,0,0,1-3.39-6.24c-0.21-1.53,0-1.57,1.06-2.66l4.33-4.38,0.95-2.53h0ZM39.42,83.61a16.53,16.53,0,0,0-1,2.38c-0.92,3.17.42,6-2.47,8.31,1.35,2.73,1.29,3.82,4.44,2.56a10.33,10.33,0,0,0,3.11-2c-0.43,1.1-.82,2.24-1.19,3.41l-0.18.58c-2.25,1-5.22,1.56-6.35-.8a21.66,21.66,0,0,1-1.26-3.73c-3.71-3.84,1.84-8.92,4.86-10.74h0Zm1.82,4.07a1.67,1.67,0,0,0-1.42-.7A8.6,8.6,0,0,1,40,85.87c0-.18.1-0.36,0.15-0.54a2.64,2.64,0,0,1,1.06,2.35h0ZM152.5,73.32l0.41,0.9-0.32.26a3.59,3.59,0,0,0-.78-1.14l0.68,0h0ZM45.38,90.77h0ZM33.3,94.85h0Zm40.6,42.44h0Zm33.44,10h0Zm13.59-25.83h0ZM39.8,95.39h0l0-.07,0,0.07h0Zm130.47,10.73h0Z"/><path d="M26.71,94.47c0.59-6.69,1.89-9.57,6.64-14.6-6,4.2-7.44,6.11-6.64,14.6"/><path d="M25.17,89a13.82,13.82,0,0,1,3.12-6.61c-3,2.1-3.4,3-3.12,6.61"/><path d="M95.07,47.07c-3.57.86-4.25,1.52-5.32,5a13.81,13.81,0,0,1,5.32-5"/><path d="M100.7,46.56c-7.08,1.74-9.16,3-11.51,11.17,3-6,5.25-8.22,11.51-11.17"/><path d="M115.94,76.46c0.75-3.34,2.1-6.56,7.29-9.06-6.88,1.72-8.17,4.61-7.29,9.06"/><path d="M159.72,76.7c4.07-1.45,6-4.73,7-8.58a16.36,16.36,0,0,1-7.4,7.59c-1.79.89-2.94,0.58-4.94,0.39,2,0.58,3.33,1.32,5.33.61"/><path d="M132,80a4.63,4.63,0,0,0-2.6-2.36,13.63,13.63,0,0,0,2.75-1.79c-2.24,1-4.86.78-6.78,2.09-1.7,1.15-4,4.77-5.76,6.31A14.19,14.19,0,0,0,123.13,82a4.62,4.62,0,0,0,2.48,4.06,10.41,10.41,0,0,0-1.5,2.75,26.4,26.4,0,0,1,12.51-8.08,13.33,13.33,0,0,0-4.24.71A4.61,4.61,0,0,0,132,80"/><path d="M127.24,109.35c-0.16,1-.38,2.26-0.54,3.27,0.43-1.14.94-2.46,1.43-3.55a3.16,3.16,0,0,1,1.94-1.87c0.79-.43,2.23-1,3-1.45-0.81.14-2.27,0.44-3.09,0.57-2.17.37-2.43,0.89-2.77,3"/><path d="M90.11,70.48C87.59,73,85.14,81.53,84.36,85c1.23-2.84,4.32-10.8,6.69-12.82A8.21,8.21,0,0,1,92.65,71c-1.69,2.84-1.57,3.55-1,7.36,0.5-3.87,1.84-5.37,4-8.25a58,58,0,0,0,7.13-2.29q-4.18.47-8.35,0.87c-2.34.22-2.72,0.18-4.38,1.82"/><path class="cls-2" d="M124.48,85a1.94,1.94,0,0,1,3.5-1.67,2,2,0,0,1,.11.28,12.28,12.28,0,0,0-2.47,2.42,2.11,2.11,0,0,1-1.13-1"/><path class="cls-2" d="M146,76.71a1.43,1.43,0,0,1,1.55-1.31,1.45,1.45,0,0,1,1.18,2.06,12.53,12.53,0,0,0-2.21.61,1.93,1.93,0,0,1-.52-1.37"/></svg>