<svg xmlns="http://www.w3.org/2000/svg" viewBox="0 0 100 100"><defs><style>.cls-1{fill:#f4bd42;}.cls-2{fill:#fff;}</style></defs><title>容错管理</title><g id="容错管理"><rect class="cls-1" width="100" height="100"/><path class="cls-2" d="M69.9,52.3v-27H51v48a59.47,59.47,0,0,0,9-5.78Q69.9,59.72,69.9,52.3ZM78,19.9V52.3a19.38,19.38,0,0,1-1.41,7.19,26.83,26.83,0,0,1-3.5,6.33,39.06,39.06,0,0,1-5,5.38,57.94,57.94,0,0,1-5.34,4.35q-2.45,1.73-5.1,3.27T53.89,80.9q-1.12.55-1.79.84a2.5,2.5,0,0,1-2.19,0q-.68-.3-1.79-.84t-3.78-2.09q-2.66-1.54-5.1-3.27a57.94,57.94,0,0,1-5.34-4.35,39.06,39.06,0,0,1-5-5.38,26.83,26.83,0,0,1-3.5-6.33A19.38,19.38,0,0,1,24,52.3V19.9a2.74,2.74,0,0,1,2.7-2.7H75.3A2.74,2.74,0,0,1,78,19.9Z"/></g></svg>