<svg xmlns="http://www.w3.org/2000/svg" viewBox="0 0 200 200" enable-background="new 0 0 200 200"><g><path fill="#fff" d="M0 0h200v200h-200z"/><path d="M106.339 83.285h16.041v16.398h8.11c3.745 0 7.598-.668 11.145-1.869 1.743-.591 3.699-1.413 5.419-2.447-2.265-2.956-3.42-6.689-3.761-10.369-.462-5.005.547-11.519 3.935-15.436l1.686-1.95 2.009 1.615c5.058 4.065 9.313 9.744 10.063 16.218 6.091-1.792 13.242-1.368 18.611 1.731l2.203 1.27-1.16 2.263c-4.541 8.862-14.034 11.607-23.315 11.121-13.888 34.59-44.122 50.966-80.783 50.966-18.94 0-36.317-7.08-46.212-23.884l-.162-.275-1.442-2.933c-3.345-7.396-4.455-15.499-3.702-23.596l.226-2.425h13.717v-16.397h16.04v-16.041h32.083v-16.041h19.249v32.081z" fill="#1188C7"/><path fill="#1188C7" d="M42.799 87.118h1.097v11.586h-1.097zM44.862 87.118h1.141v11.586h-1.141z"/><path d="M41.641 99.861h13.902v-13.902h-13.902v13.902zm11.646-12.743h1.098v11.586h-1.098v-11.586zm-2.106 0h1.141v11.586h-1.141v-11.586zm-2.106 0h1.141v11.586h-1.141v-11.586zm-2.107 0h1.141v11.586h-1.141v-11.586zm-2.106 0h1.141v11.586h-1.141v-11.586zm-2.063 0h1.097v11.586h-1.097v-11.586z" fill="#fff"/><path fill="#1188C7" d="M49.075 87.118h1.141v11.586h-1.141zM46.968 87.118h1.141v11.586h-1.141zM53.287 87.118h1.098v11.586h-1.098zM51.181 87.118h1.141v11.586h-1.141zM65.115 71.077h1.141v11.585h-1.141zM67.222 71.077h1.141v11.585h-1.141zM69.328 71.077h1.099v11.585h-1.099zM63.009 71.077h1.141v11.585h-1.141zM58.841 71.077h1.096v11.585h-1.096zM60.903 71.077h1.14v11.585h-1.14z"/><path d="M57.681 83.82h13.903v-13.902h-13.903v13.902zm11.647-12.743h1.099v11.585h-1.099v-11.585zm-2.106 0h1.141v11.585h-1.141v-11.585zm-2.107 0h1.141v11.585h-1.141v-11.585zm-2.106 0h1.141v11.585h-1.141v-11.585zm-2.106 0h1.14v11.585h-1.14v-11.585zm-2.062 0h1.096v11.585h-1.096v-11.585z" fill="#fff"/><path fill="#1188C7" d="M65.115 87.118h1.141v11.586h-1.141zM67.222 87.118h1.141v11.586h-1.141zM63.009 87.118h1.141v11.586h-1.141z"/><path d="M57.681 99.861h13.903v-13.902h-13.903v13.902zm11.647-12.743h1.099v11.586h-1.099v-11.586zm-2.106 0h1.141v11.586h-1.141v-11.586zm-2.107 0h1.141v11.586h-1.141v-11.586zm-2.106 0h1.141v11.586h-1.141v-11.586zm-2.106 0h1.14v11.586h-1.14v-11.586zm-2.062 0h1.096v11.586h-1.096v-11.586z" fill="#fff"/><path fill="#1188C7" d="M69.328 87.118h1.099v11.586h-1.099zM58.841 87.118h1.096v11.586h-1.096zM60.903 87.118h1.14v11.586h-1.14zM74.881 87.118h1.096v11.586h-1.096zM79.05 87.118h1.141v11.586h-1.141zM85.369 87.118h1.097v11.586h-1.097z"/><path d="M73.723 99.861h13.903v-13.902h-13.903v13.902zm11.646-12.743h1.097v11.586h-1.097v-11.586zm-2.106 0h1.141v11.586h-1.141v-11.586zm-2.106 0h1.141v11.586h-1.141v-11.586zm-2.107 0h1.141v11.586h-1.141v-11.586zm-2.107 0h1.141v11.586h-1.141v-11.586zm-2.062 0h1.096v11.586h-1.096v-11.586z" fill="#fff"/><path fill="#1188C7" d="M81.157 87.118h1.141v11.586h-1.141zM83.263 87.118h1.141v11.586h-1.141zM76.943 87.118h1.141v11.586h-1.141zM85.369 71.077h1.097v11.585h-1.097zM81.157 71.077h1.141v11.585h-1.141zM83.263 71.077h1.141v11.585h-1.141z"/><path d="M73.723 83.82h13.903v-13.902h-13.903v13.902zm11.646-12.743h1.097v11.585h-1.097v-11.585zm-2.106 0h1.141v11.585h-1.141v-11.585zm-2.106 0h1.141v11.585h-1.141v-11.585zm-2.107 0h1.141v11.585h-1.141v-11.585zm-2.107 0h1.141v11.585h-1.141v-11.585zm-2.062 0h1.096v11.585h-1.096v-11.585z" fill="#fff"/><path fill="#1188C7" d="M79.05 71.077h1.141v11.585h-1.141zM76.943 71.077h1.141v11.585h-1.141zM74.881 71.077h1.096v11.585h-1.096zM90.922 87.118h1.097v11.586h-1.097z"/><path d="M89.763 99.861h13.903v-13.902h-13.903v13.902zm11.647-12.743h1.098v11.586h-1.098v-11.586zm-2.106 0h1.141v11.586h-1.141v-11.586zm-2.107 0h1.141v11.586h-1.141v-11.586zm-2.107 0h1.141v11.586h-1.141v-11.586zm-2.105 0h1.141v11.586h-1.141v-11.586zm-2.063 0h1.097v11.586h-1.097v-11.586z" fill="#fff"/><path fill="#1188C7" d="M92.985 87.118h1.141v11.586h-1.141zM101.41 87.118h1.098v11.586h-1.098zM99.304 87.118h1.141v11.586h-1.141zM97.197 87.118h1.141v11.586h-1.141zM95.09 87.118h1.141v11.586h-1.141z"/><path d="M89.763 83.82h13.903v-13.902h-13.903v13.902zm11.647-12.743h1.098v11.585h-1.098v-11.585zm-2.106 0h1.141v11.585h-1.141v-11.585zm-2.107 0h1.141v11.585h-1.141v-11.585zm-2.107 0h1.141v11.585h-1.141v-11.585zm-2.105 0h1.141v11.585h-1.141v-11.585zm-2.063 0h1.097v11.585h-1.097v-11.585z" fill="#fff"/><!-- Copyright: Jamie Fang @ DaoCloud --><path fill="#1188C7" d="M101.41 71.077h1.098v11.585h-1.098zM92.985 71.077h1.141v11.585h-1.141zM90.922 71.077h1.097v11.585h-1.097zM95.09 71.077h1.141v11.585h-1.141zM99.304 71.077h1.141v11.585h-1.141zM97.197 71.077h1.141v11.585h-1.141zM92.985 55.035h1.141v11.586h-1.141zM95.09 55.035h1.141v11.586h-1.141zM90.922 55.035h1.097v11.586h-1.097z"/><path d="M89.763 67.78h13.903v-13.903h-13.903v13.903zm11.647-12.745h1.098v11.586h-1.098v-11.586zm-2.106 0h1.141v11.586h-1.141v-11.586zm-2.107 0h1.141v11.586h-1.141v-11.586zm-2.107 0h1.141v11.586h-1.141v-11.586zm-2.105 0h1.141v11.586h-1.141v-11.586zm-2.063 0h1.097v11.586h-1.097v-11.586z" fill="#fff"/><path fill="#1188C7" d="M97.197 55.035h1.141v11.586h-1.141zM101.41 55.035h1.098v11.586h-1.098zM99.304 55.035h1.141v11.586h-1.141zM117.451 87.118h1.097v11.586h-1.097z"/><path d="M105.804 85.959v13.902h13.902v-13.902h-13.902zm2.256 12.744h-1.098v-11.585h1.098v11.585zm2.106 0h-1.141v-11.585h1.141v11.585zm2.106 0h-1.141v-11.585h1.141v11.585zm2.106 0h-1.141v-11.585h1.141v11.585zm2.107 0h-1.14v-11.585h1.14v11.585zm2.063 0h-1.097v-11.585h1.097v11.585z" fill="#fff"/><path fill="#1188C7" d="M115.345 87.118h1.14v11.586h-1.14zM111.131 87.118h1.141v11.586h-1.141zM113.237 87.118h1.141v11.586h-1.141zM106.962 87.118h1.098v11.586h-1.098zM109.024 87.118h1.141v11.586h-1.141z"/><path d="M70.714 122.401c2.118 0 3.835 1.718 3.835 3.835 0 2.118-1.717 3.835-3.835 3.835s-3.835-1.717-3.835-3.835c0-2.117 1.717-3.835 3.835-3.835" fill="#fff"/><path d="M70.714 123.489c.351 0 .686.066.995.186-.335.194-.561.556-.561.971 0 .619.502 1.12 1.121 1.12.424 0 .792-.236.983-.584.134.324.209.68.209 1.054 0 1.517-1.23 2.747-2.747 2.747s-2.747-1.23-2.747-2.747 1.231-2.747 2.747-2.747" fill="#1188C7"/><path d="M80.91 150.039c-9.498-4.507-14.712-10.635-17.613-17.323-3.528 1.007-7.769 1.651-12.697 1.927-1.857.104-3.809.158-5.859.158-2.362 0-4.852-.07-7.465-.209 8.71 8.705 19.426 15.407 39.266 15.53 1.466 0 2.92-.028 4.368-.083z" fill="#fff"/></g></svg>