<svg xmlns="http://www.w3.org/2000/svg" viewBox="0 0 100 100">
  <title>zabbix</title>
  <g>
    <rect width="100" height="100" fill="#d63232"/>
    <g>
      <path d="M9.694,42.822H21.606V44.38L11.435,57.552H22.156v1.626H9.006V57.643L19.2,44.448H9.694Z" fill="#fff"/>
      <path d="M30.082,42.822h2.176L38.7,59.178H36.656L34.915,54.6H27.4L25.66,59.178H23.644ZM28,53.016H34.32l-3.093-8.178h-.092Z" fill="#fff"/>
      <path d="M40.8,42.822H48.11a5.508,5.508,0,0,1,3.619,1.1,3.742,3.742,0,0,1,1.306,3.024,3.941,3.941,0,0,1-.733,2.382,4.341,4.341,0,0,1-1.993,1.306,4.123,4.123,0,0,1,2.5,1.329,3.906,3.906,0,0,1,.916,2.657,4.044,4.044,0,0,1-1.7,3.574,7.014,7.014,0,0,1-3.963.985H40.8ZM42.681,44.4v5.567h4.971a4.185,4.185,0,0,0,2.611-.71,2.568,2.568,0,0,0,.916-2.13,2.439,2.439,0,0,0-.893-2.062,4.275,4.275,0,0,0-2.611-.664Zm0,7.124V57.6H47.9a5.255,5.255,0,0,0,2.726-.641,2.58,2.58,0,0,0,1.214-2.36A2.719,2.719,0,0,0,50.79,52.26a4.729,4.729,0,0,0-2.886-.733Z" fill="#fff"/>
      <path d="M55.853,42.822H63.16a5.507,5.507,0,0,1,3.619,1.1,3.741,3.741,0,0,1,1.306,3.024,3.942,3.942,0,0,1-.733,2.382,4.342,4.342,0,0,1-1.993,1.306,4.123,4.123,0,0,1,2.5,1.329,3.905,3.905,0,0,1,.916,2.657,4.044,4.044,0,0,1-1.695,3.574,7.015,7.015,0,0,1-3.963.985H55.853ZM57.731,44.4v5.567H62.7a4.185,4.185,0,0,0,2.611-.71,2.567,2.567,0,0,0,.916-2.13,2.439,2.439,0,0,0-.893-2.062,4.275,4.275,0,0,0-2.611-.664Zm0,7.124V57.6h5.223a5.256,5.256,0,0,0,2.726-.641,2.58,2.58,0,0,0,1.214-2.36,2.72,2.72,0,0,0-1.054-2.337,4.729,4.729,0,0,0-2.887-.733Z" fill="#fff"/>
      <path d="M71.5,42.822h1.855V59.178H71.5Z" fill="#fff"/>
      <path d="M77.065,42.822h2.314L83.8,49.19l4.444-6.368h2.314l-5.635,7.857,6.071,8.5H88.68L83.8,52.168l-4.857,7.01H76.63l6.025-8.5Z" fill="#fff"/>
    </g>
  </g>
</svg>
