<svg xmlns="http://www.w3.org/2000/svg" viewBox="0 0 1000 1000">
  <title>未标题-3</title>
  <path d="M318.193,335.88c-0.387-.694.06-0.878,0.6-1.18q104.171-58.648,208.3-117.367a3.378,3.378,0,0,1,3.86.125c32.417,18.751,64.833,37.5,97.53,55.765,18.65,10.416,37.232,20.955,55.842,31.443,0.4,0.228.772,0.523,1.157,0.786a4.127,4.127,0,0,1-1.593,1.217q-6.144,3.541-12.291,7.079l-38.621,22.257q-42.807-24.231-85.617-48.457c-6.234-3.526-12.5-6.991-18.755-10.484a8.57,8.57,0,0,0-3.13,1.394q-21.033,11.89-42.056,23.8Q458.765,316.2,434.1,330.121q-25.814,14.574-51.624,29.155c-3.878,2.2-7.886,4.19-11.557,6.748q-8.28-4.714-16.559-9.43Q336.417,346.311,318.489,336A2.62,2.62,0,0,0,318.193,335.88Z" fill="#f2b73b"/>
  <path d="M423.429,574.9c-0.025-.946-0.07-1.892-0.071-2.837q-0.014-87.588-.02-175.177a4.622,4.622,0,0,1,1.794-1.287q20.653-11.52,41.3-23.043c2.541-1.417,5.092-2.816,7.626-4.245,1.225-.691,1.754-0.335,1.713,1.035-0.016.541,0,1.083,0,1.625q0,26.3.014,52.6c0,1.03-.371,2.219.8,2.956l51.572,29.763a6.051,6.051,0,0,1,.42,3.177q0.042,28.513.07,57.027l0.029-.012q-10.294-5.93-20.587-11.86-14.949-8.63-29.894-17.267c-1.866-1.075-2.022-.961-2.06,1.111-0.009.474,0,.948,0,1.422q-0.007,58.307-.014,116.614c-2.759-.946-5.085-2.711-7.552-4.169-14.217-8.4-28.355-16.931-42.515-25.425-0.8-.481-1.563-1.031-2.342-1.549Z" fill="#d9592e"/>
  <path d="M476.594,426.522c-1.173-.736-0.8-1.926-0.8-2.956q-0.03-26.3-.014-52.6c0-.542-0.018-1.084,0-1.625,0.041-1.37-.487-1.726-1.713-1.035-2.534,1.429-5.086,2.828-7.626,4.245q-20.653,11.52-41.3,23.043a4.622,4.622,0,0,0-1.794,1.287c-4.35,1.858-8.322,4.424-12.446,6.7-12.766,7.045-25.48,14.183-38.236,21.246-0.61.338-1.184,1.262-2.116,0.563a4.865,4.865,0,0,0,.376-2.77q0.011-28.3,0-56.6c3.672-2.558,7.679-4.547,11.557-6.748,17.188-9.754,84.507-47.725,100.944-57.019q21.032-11.892,42.056-23.8a8.572,8.572,0,0,1,3.129-1.394q0.01,29.873.02,59.746l0.138,0.46q-0.026,29.17-.052,58.34c-0.6.431-1.173,0.916-1.811,1.285q-23.919,13.835-47.839,27.667C478.164,425.083,477.01,425.364,476.594,426.522Z" fill="#e28a29"/>
  <path d="M528.625,336.811q-0.01-29.873-.02-59.746c6.253,3.493,12.521,6.959,18.755,10.484q42.816,24.215,85.617,48.457,0,29.632.008,59.265c-5.067-2.4-9.821-5.363-14.7-8.092q-29.19-16.309-58.336-32.7c-9.95-5.592-19.865-11.247-29.8-16.868-0.348-.2-0.731-0.33-1.1-0.493Z" fill="#d9592f"/>
  <path d="M476.129,606.5q0.007-58.307.014-116.614c0-.474-0.007-0.948,0-1.422,0.038-2.073.194-2.186,2.06-1.111q14.958,8.615,29.894,17.267,10.288,5.94,20.587,11.86,0.019,29.149.047,58.3a2.1,2.1,0,0,1-1.095,2.153Q502.15,591.6,476.7,606.333A2.438,2.438,0,0,1,476.129,606.5Z" fill="#e28a29"/>
  <path d="M476.594,426.522c0.417-1.158,1.57-1.44,2.467-1.96q23.9-13.86,47.839-27.667c0.638-.369,1.208-0.854,1.811-1.285q16.684,9.759,33.368,19.515c5.885,3.436,11.787,6.843,17.674,10.275,0.519,0.3.985,0.694,1.475,1.045a9.752,9.752,0,0,0-2.749,1.263q-23.571,13.658-47.149,27.3a7.006,7.006,0,0,1-3.164,1.273Z" fill="#f2b73b"/>
  <path d="M528.166,456.285a7.006,7.006,0,0,0,3.164-1.273q23.582-13.638,47.149-27.3a9.752,9.752,0,0,1,2.749-1.263c0.035,1.757.1,3.514,0.1,5.271q0.012,26.2.024,52.4a2.732,2.732,0,0,1-1.4,2.822q-25.673,14.731-51.293,29.555-0.033-28.513-.07-57.026A6.051,6.051,0,0,0,528.166,456.285Z" fill="#e28a29"/>
  <path d="M632.985,395.271q0-29.632-.008-59.265L671.6,313.749q6.144-3.541,12.291-7.079a4.127,4.127,0,0,0,1.593-1.217c0.6,0.632.317,1.417,0.318,2.126,0.017,18.619-.007,37.238.051,55.857a3.091,3.091,0,0,1-1.841,3.146q-24.723,13.962-49.375,28.047A2.332,2.332,0,0,1,632.985,395.271Z" fill="#e28a29"/>
  <path d="M370.919,366.023q0,28.3,0,56.6a4.865,4.865,0,0,1-.376,2.77q-11.808-6.916-23.614-13.835-13.548-7.968-27.07-15.977a3.2,3.2,0,0,1-1.433-1.076c0.018-1.082.052-2.165,0.052-3.248q0.011-27.625.015-55.249,17.934,10.3,35.87,20.589Q362.626,361.331,370.919,366.023Z" fill="#d9592f"/>
  <path d="M528.625,336.811l0.422,0.31a0.362,0.362,0,0,1-.284.15Z" fill="#9ca975"/>
  <path d="M449.738,549.682l0.381,0.6Z" fill="#d9592f"/>
  <path d="M508.62,732.905c-0.276,10.382-2.257,20.192-7.191,29.379-8.042,14.972-26.538,23.3-43.292,20.338-19.814-3.5-31.629-20.472-34.392-38.124a71.27,71.27,0,0,1,1.164-28.513c7.516-30.287,37.272-40.126,60.667-27.969,11.985,6.228,18.411,17.138,21.2,30.112C507.811,722.963,508.028,727.974,508.62,732.905Zm-67.4-.016c-0.235.044,0.906,11.111,2.59,16.316,2.889,8.933,8.89,15.047,18.565,16.42,10.182,1.445,17.63-3.2,22.393-11.807,7.064-12.762,6.9-26.173,1.45-39.382-3.779-9.153-11.16-14.163-21.165-14.154s-16.733,5.321-20.546,14.442A42.639,42.639,0,0,0,441.22,732.889Z" fill="#e7622a"/>
  <path d="M209.154,683.233a34.873,34.873,0,0,1,26.855,10.1c5.392,5.162,8.672,11.789,10.7,18.943,1,3.515,1.606,7.143,2.341,10.731,0.4,1.975.011,3.263-2.33,3.96-18.636,5.551-37.229,11.249-55.838,16.892-5.545,1.681-5.549,1.666-3.478,7.082,5.315,13.9,20.112,19.7,34.219,13.366a61.177,61.177,0,0,0,6.7-3.6c1.642-1,2.962-.93,4.25.491,2.46,2.715,4.9,5.455,7.431,8.1,1.4,1.459.462,2.331-.579,3.227a41.978,41.978,0,0,1-19.244,9.532,49.03,49.03,0,0,1-18.768.446c-13.1-2.409-22.425-9.873-28.3-21.5-6.788-13.43-7.347-27.717-4.816-42.342,1.652-9.549,5.35-18.056,12.26-24.85C188.324,686.172,197.922,682.874,209.154,683.233Zm2.576,16.331c-10.718-.369-16.623,2.151-20.879,8.053-4.056,5.625-5.559,12.062-5.638,18.875-0.035,2.986.694,3.462,3.633,2.566,12.677-3.868,25.332-7.808,38.025-11.622,2.287-.687,2.718-1.727,1.961-3.922C225.821,704.785,218.725,699.871,211.73,699.564Z" fill="#e7622a"/>
  <path d="M279.137,693.337a22.869,22.869,0,0,0,2.271-1.661c8.789-8.707,19.617-9.911,30.95-7.713,14.51,2.815,21.246,13.2,23.866,26.761a82.556,82.556,0,0,1,1.331,14.852c0.155,17.22.061,34.442,0.056,51.664,0,3.713-.012,3.708-3.811,3.732-3.669.023-7.343-.047-11.005,0.125-2.458.115-3.283-.784-3.272-3.252,0.077-16.468.154-32.938-.045-49.4a76.619,76.619,0,0,0-1.629-14.514c-2.5-12.087-13.132-16.109-24.173-13.55-7.93,1.838-12.119,7.6-13.785,15.2a54.4,54.4,0,0,0-1.2,11.175q-0.188,25.407,0,50.816c0.023,2.931-.909,3.769-3.716,3.607-3.752-.217-7.527-0.123-11.289-0.029-2.053.051-2.88-.731-2.846-2.8,0.072-4.421-.013-8.845-0.013-13.268q-0.006-37.69,0-75.379c0-4.706.036-4.714,4.689-4.728q4.517-.013,9.034.02c3.876,0.031,3.864.042,4.128,3.792C278.772,690.075,278.937,691.364,279.137,693.337Z" fill="#e7622a"/>
  <path d="M143.368,726.356c0,17.026-.055,34.053.056,51.079,0.018,2.77-.649,3.919-3.607,3.732a106.978,106.978,0,0,0-11.283-.017c-2.5.107-3.251-.862-3.238-3.284,0.069-12.887,0-25.774-.006-38.661q-0.007-32.03.01-64.061c0-3.992-.285-4.32-4.363-4.331-9.971-.027-19.943-0.083-29.913.036-2.826.034-3.9-.991-3.794-3.777,0.148-3.85.1-7.709,0.083-11.565-0.009-1.993.8-2.815,2.886-2.812q44.165,0.066,88.33,0c2.217,0,3,.81,2.937,2.984-0.109,3.948-.13,7.9.01,11.85,0.088,2.454-.845,3.321-3.278,3.308-9.781-.053-19.564.027-29.345,0.064-0.845,0-1.69.074-2.535,0.077-2.123.006-3.023,1.052-2.987,3.172,0.07,4.138.033,8.278,0.033,12.417Q143.37,706.46,143.368,726.356Z" fill="#e7622a"/>
  <path d="M380.083,682.774a59.936,59.936,0,0,1,30.391,8.683c2.29,1.334,2.726,2.69,1.262,4.953-1.684,2.6-3.157,5.345-4.613,8.085-1.123,2.113-2.294,2.465-4.437,1.085a39.559,39.559,0,0,0-23.607-6.271,22.99,22.99,0,0,0-5.024.638c-3.443.935-6.273,2.8-7.035,6.554a8.2,8.2,0,0,0,3.947,9.251c4.616,2.673,9.518,4.859,14.329,7.19,7,3.393,14.28,6.307,20.995,10.193,9.212,5.332,12.038,15.43,10.777,25.705-0.894,7.283-3.658,13.552-9.938,17.532a40.162,40.162,0,0,1-11.515,5.03c-17.424,4.365-33.492.553-48.516-8.794-1.762-1.1-2.041-2.192-.974-3.882q2.937-4.652,5.759-9.375c1.016-1.706,2.11-1.333,3.509-.485a52.338,52.338,0,0,0,20.776,7.567c5.763,0.716,11.515.707,16.884-1.732,7.7-3.5,8.691-12.677,1.457-17.036-6.306-3.8-13.408-6.263-20.075-9.488a165.377,165.377,0,0,1-15.452-8.063c-9.313-5.79-11.514-14.87-10.286-25.049,1.443-11.957,9.911-18.339,20.28-20.572C372.633,683.706,376.379,683.335,380.083,682.774Z" fill="#e7622a"/>
  <path d="M571.44,703c-5.01-.725-9.588-1.672-14.21-2-10.279-.726-16.785,6.609-18.489,15.1a59.477,59.477,0,0,0-1.12,11.177q-0.2,25.248-.06,50.5c0.011,2.6-.79,3.47-3.413,3.326-3.936-.217-7.894-0.1-11.841-0.048-2.225.029-3.151-.825-3.146-3.18q0.09-44.716.012-89.433c0-2.554.883-3.569,3.452-3.486,3.946,0.127,7.9.088,11.848,0.019,2.123-.037,3.132.757,3.045,2.98-0.057,1.453.181,2.917,0.336,5.055,1.332-.869,13.338-14.567,34.867-7.988,3.1,1.008,3.4,2.045,2.512,5.14-1.039,3.61-2.025,7.236-3.064,10.846C571.918,701.872,571.551,702.7,571.44,703Z" fill="#e7622a"/>
  <polygon points="661 673 661 653 584 653 584 672.372 584 672.372 584 781 603 781 603 724 640 724 640 705 603 705 603 673 661 673" fill="#a9aaab"/>
  <polygon points="672.504 781.89 672.504 658.443 691.704 647.902 691.704 781.89 672.504 781.89" fill="#a9aaab"/>
  <path d="M790.588,732.905c-0.276,10.382-2.257,20.192-7.191,29.379-8.042,14.972-26.538,23.3-43.292,20.338-19.814-3.5-31.629-20.472-34.392-38.124a71.27,71.27,0,0,1,1.164-28.513c7.516-30.287,37.272-40.126,60.667-27.969,11.985,6.228,18.411,17.138,21.2,30.112C789.78,722.963,790,727.974,790.588,732.905Zm-67.4-.016c-0.235.044,0.906,11.111,2.59,16.316,2.889,8.933,8.89,15.047,18.565,16.42,10.182,1.445,17.63-3.2,22.393-11.807,7.064-12.762,6.9-26.173,1.45-39.382-3.779-9.153-11.16-14.163-21.165-14.154s-16.733,5.321-20.546,14.442A42.639,42.639,0,0,0,723.189,732.889Z" fill="#a9aaab"/>
  <polygon points="894.007 687 878.522 754.01 859.722 687 844.81 687 826.194 750.245 809.998 687 790.831 687 817.617 781 834.571 781 851.793 717.086 870.047 780.933 887.026 781.78 912.776 687 894.007 687" fill="#a9aaab"/>
</svg>
