<?xml version="1.0" encoding="utf-8"?>
<!-- Generator: Adobe Illustrator 19.0.0, SVG Export Plug-In . SVG Version: 6.00 Build 0)  -->
<svg version="1.1" id="图层_1" xmlns="http://www.w3.org/2000/svg" xmlns:xlink="http://www.w3.org/1999/xlink" x="0px" y="0px"
	 viewBox="0 0 480 480" style="enable-background:new 0 0 480 480;" xml:space="preserve">
<style type="text/css">
	.st0{fill:#FF6600;}
	.st1{fill:#A5B8BC;}
</style>
<g id="XMLID_2_">
	<path id="XMLID_3_" class="st0" d="M88.2,256.8h-7.5l-17.3-19.4l-4.3,4.6v14.8h-5.8v-43.6h5.8v22.8l21.2-22.8h7l-19.5,20.5
		L88.2,256.8z"/>
	<path id="XMLID_5_" class="st0" d="M126.7,218.2c1.8,2,3.1,4.3,4.1,7.2c0.9,2.8,1.4,6,1.4,9.6c0,3.6-0.5,6.8-1.5,9.7
		s-2.3,5.2-4.1,7.1c-1.8,2-3.9,3.5-6.4,4.5c-2.5,1-5.2,1.5-8.4,1.5c-3.1,0-5.9-0.5-8.4-1.5c-2.5-1-4.6-2.5-6.4-4.4s-3.1-4.3-4.1-7.1
		c-0.9-2.8-1.4-6-1.4-9.6c0-3.6,0.5-6.7,1.4-9.6c0.9-2.8,2.3-5.2,4.1-7.3c1.7-1.9,3.9-3.4,6.4-4.4c2.5-1,5.3-1.5,8.3-1.5
		c3.1,0,5.9,0.5,8.4,1.5S124.9,216.3,126.7,218.2z M126.2,235c0-5.7-1.3-10-3.8-13.1c-2.5-3.1-6-4.6-10.4-4.6
		c-4.4,0-7.9,1.5-10.4,4.6c-2.5,3.1-3.8,7.4-3.8,13.1c0,5.7,1.3,10.1,3.9,13.1c2.6,3,6,4.6,10.4,4.6s7.8-1.5,10.4-4.6
		C124.9,245.1,126.2,240.7,126.2,235z"/>
	<path id="XMLID_8_" class="st0" d="M178.2,235c0,4-0.9,7.6-2.6,10.8s-4,5.7-6.9,7.5c-2,1.2-4.2,2.1-6.7,2.7
		c-2.5,0.5-5.7,0.8-9.7,0.8h-11v-43.6h10.9c4.3,0,7.6,0.3,10.2,0.9c2.5,0.6,4.6,1.5,6.4,2.5c3,1.9,5.3,4.3,6.9,7.4
		C177.4,227.1,178.2,230.8,178.2,235z M172.2,235c0-3.4-0.6-6.3-1.8-8.6c-1.2-2.3-3-4.2-5.3-5.5c-1.7-1-3.5-1.7-5.5-2
		s-4.2-0.6-6.9-0.6h-5.4v33.7h5.4c2.8,0,5.2-0.2,7.3-0.6s4-1.2,5.7-2.3c2.2-1.4,3.8-3.2,4.9-5.5C171.6,241.2,172.2,238.4,172.2,235z
		"/>
	<path id="XMLID_11_" class="st1" d="M216.4,256.8h-28.7v-43.6h28.7v5.2h-22.9v12h22.9v5.2h-22.9v16.2h22.9V256.8z"/>
	<path id="XMLID_13_" class="st1" d="M253.5,256.8h-6.9l-9.3-12.6l-9.3,12.6h-6.4l12.8-16.3l-12.7-16.4h6.9l9.2,12.4l9.3-12.4h6.4
		l-12.9,16.1L253.5,256.8z"/>
	<path id="XMLID_15_" class="st1" d="M289.4,240.1c0,2.7-0.4,5.1-1.1,7.3s-1.8,4.1-3.2,5.6c-1.3,1.4-2.8,2.6-4.6,3.4
		s-3.6,1.2-5.6,1.2c-1.7,0-3.2-0.2-4.6-0.6c-1.4-0.4-2.8-0.9-4.2-1.7v13.7h-5.5v-44.8h5.5v3.4c1.5-1.2,3.1-2.3,4.9-3.1
		c1.8-0.8,3.8-1.2,5.8-1.2c3.9,0,7,1.5,9.2,4.5C288.3,230.6,289.4,234.8,289.4,240.1z M283.7,240.2c0-3.9-0.7-6.9-2-8.8
		c-1.3-2-3.4-2.9-6.2-2.9c-1.6,0-3.2,0.3-4.8,1c-1.6,0.7-3.1,1.6-4.6,2.7v18.5c1.6,0.7,2.9,1.2,4,1.4c1.1,0.3,2.4,0.4,3.8,0.4
		c3.1,0,5.5-1,7.2-3.1C282.9,247.3,283.7,244.3,283.7,240.2z"/>
	<path id="XMLID_18_" class="st1" d="M303.6,256.8h-5.5v-45.6h5.5V256.8z"/>
	<path id="XMLID_20_" class="st1" d="M342.4,240.5c0,5.3-1.4,9.5-4.1,12.6c-2.7,3.1-6.4,4.6-11,4.6c-4.6,0-8.3-1.5-11-4.6
		c-2.7-3.1-4.1-7.3-4.1-12.6c0-5.3,1.4-9.5,4.1-12.6c2.7-3.1,6.4-4.6,11-4.6c4.6,0,8.3,1.5,11,4.6
		C341,230.9,342.4,235.1,342.4,240.5z M336.7,240.5c0-4.2-0.8-7.4-2.5-9.4c-1.7-2.1-4-3.1-6.9-3.1c-3,0-5.3,1-7,3.1
		c-1.7,2.1-2.5,5.2-2.5,9.4c0,4.1,0.8,7.2,2.5,9.3c1.7,2.1,4,3.2,6.9,3.2c2.9,0,5.2-1,6.9-3.1C335.8,247.7,336.7,244.6,336.7,240.5z
		"/>
	<path id="XMLID_23_" class="st1" d="M371.3,230.1H371c-0.8-0.2-1.6-0.3-2.4-0.4s-1.7-0.1-2.7-0.1c-1.7,0-3.3,0.4-4.9,1.1
		c-1.6,0.8-3.1,1.7-4.6,2.9v23.2h-5.5v-32.7h5.5v4.8c2.2-1.8,4.1-3,5.8-3.7s3.4-1.1,5.1-1.1c1,0,1.7,0,2.1,0.1
		c0.4,0,1.1,0.1,1.9,0.3V230.1z"/>
	<path id="XMLID_25_" class="st1" d="M403.9,241h-24.1c0,2,0.3,3.8,0.9,5.3s1.4,2.7,2.5,3.7c1,0.9,2.2,1.6,3.6,2.1s2.9,0.7,4.6,0.7
		c2.2,0,4.5-0.4,6.7-1.3c2.3-0.9,3.9-1.8,4.8-2.6h0.3v6c-1.9,0.8-3.8,1.4-5.7,2s-4,0.8-6.1,0.8c-5.4,0-9.7-1.5-12.7-4.4
		c-3-2.9-4.6-7.1-4.6-12.5c0-5.4,1.5-9.6,4.4-12.7c2.9-3.1,6.8-4.7,11.5-4.7c4.4,0,7.8,1.3,10.2,3.9s3.6,6.2,3.6,11V241z
		 M398.5,236.8c0-2.9-0.7-5.1-2.2-6.7s-3.6-2.4-6.5-2.4c-2.9,0-5.3,0.9-7,2.6c-1.7,1.7-2.7,3.9-3,6.5H398.5z"/>
	<path id="XMLID_28_" class="st1" d="M432.7,230.1h-0.3c-0.8-0.2-1.6-0.3-2.4-0.4s-1.7-0.1-2.7-0.1c-1.7,0-3.3,0.4-4.9,1.1
		c-1.6,0.8-3.1,1.7-4.6,2.9v23.2h-5.5v-32.7h5.5v4.8c2.2-1.8,4.1-3,5.8-3.7s3.4-1.1,5.1-1.1c1,0,1.7,0,2.1,0.1
		c0.4,0,1.1,0.1,1.9,0.3V230.1z"/>
</g>
</svg>
