<?xml version="1.0" encoding="utf-8"?>
<!-- Generator: Adobe Illustrator 19.0.0, SVG Export Plug-In . SVG Version: 6.00 Build 0)  -->
<svg version="1.1" id="图层_1" xmlns="http://www.w3.org/2000/svg" xmlns:xlink="http://www.w3.org/1999/xlink" x="0px" y="0px"
	 viewBox="-205 297 200 200" style="enable-background:new -205 297 200 200;" xml:space="preserve">
<style type="text/css">
	.st0{fill:#5F0602;}
	.st1{fill:#A41E11;}
	.st2{fill:#D82C20;}
	.st3{fill:#FFFFFF;}
	.st4{fill:#7A0C00;}
	.st5{fill:#AD2115;}
	.st6{font-family:'Helvetica';}
	.st7{font-size:17px;}
</style>
<g>
	<path class="st0" d="M-205,297H-5v200h-200V297z"/>
	<path class="st1" d="M-42.8,428.4c-7.2,3.8-44.5,19.1-52.5,23.2c-7.9,4.1-12.4,4.1-18.6,1.1c-6.3-3-46-19-53.1-22.5
		c-3.6-1.7-5.5-3.2-5.5-4.5v-13.6c0,0,51.7-11.3,60.1-14.2c8.3-3,11.2-3.1,18.3-0.5c7.1,2.6,49.6,10.3,56.6,12.8l0,13.5
		C-37.5,425-39.1,426.5-42.8,428.4L-42.8,428.4z"/>
	<path class="st2" d="M-42.8,414.7c-7.2,3.8-44.5,19.1-52.5,23.2c-7.9,4.1-12.4,4.1-18.6,1.1c-6.3-3-46-19-53.1-22.5
		c-7.2-3.4-7.3-5.8-0.3-8.5c7-2.8,46.5-18.2,54.9-21.2c8.3-3,11.2-3.1,18.3-0.5c7.1,2.6,44.2,17.4,51.2,19.9
		C-35.9,408.8-35.6,411-42.8,414.7z"/>
	<path class="st1" d="M-42.8,406.1c-7.2,3.8-44.5,19.1-52.5,23.2c-7.9,4.1-12.4,4.1-18.6,1.1c-6.3-3-46-19-53.1-22.5
		c-3.6-1.7-5.5-3.2-5.5-4.5v-13.6c0,0,51.7-11.3,60.1-14.2c8.3-3,11.2-3.1,18.3-0.5c7.1,2.6,49.6,10.3,56.6,12.8l0,13.5
		C-37.5,402.7-39.1,404.2-42.8,406.1L-42.8,406.1z"/>
	<path class="st2" d="M-42.8,392.5c-7.2,3.8-44.5,19.1-52.5,23.2c-7.9,4.1-12.4,4.1-18.6,1.1c-6.3-3-46-19-53.1-22.5
		c-7.2-3.4-7.3-5.8-0.3-8.5c7-2.8,46.5-18.2,54.9-21.2c8.3-3,11.2-3.1,18.3-0.5c7.1,2.6,44.2,17.4,51.2,19.9
		C-35.9,386.6-35.6,388.7-42.8,392.5z"/>
	<path class="st1" d="M-42.8,383c-7.2,3.8-44.5,19.1-52.5,23.2c-7.9,4.1-12.4,4.1-18.6,1.1c-6.3-3-46-19-53.1-22.5
		c-3.6-1.7-5.5-3.1-5.5-4.5v-13.6c0,0,51.7-11.3,60.1-14.2c8.3-3,11.2-3.1,18.3-0.5c7.1,2.6,49.6,10.3,56.6,12.8l0,13.5
		C-37.5,379.6-39.1,381.1-42.8,383L-42.8,383z"/>
	<path class="st2" d="M-42.8,369.4c-7.2,3.8-44.5,19.1-52.5,23.2c-7.9,4.1-12.4,4.1-18.6,1.1s-46-19-53.1-22.5
		c-7.2-3.4-7.3-5.8-0.3-8.5c7-2.8,46.5-18.2,54.9-21.2c8.3-3,11.2-3.1,18.3-0.5c7.1,2.6,44.2,17.4,51.2,19.9
		C-35.9,363.5-35.6,365.6-42.8,369.4z"/>
	<path class="st3" d="M-87.3,356.2l-11.7,1.2l-2.6,6.3l-4.2-7l-13.5-1.2l10.1-3.6l-3-5.6l9.4,3.7l8.9-2.9l-2.4,5.8L-87.3,356.2z
		 M-102.3,386.8l-21.8-9.1l31.3-4.8L-102.3,386.8z"/>
	<ellipse class="st3" cx="-132.6" cy="366.2" rx="16.7" ry="6.5"/>
	<path class="st4" d="M-73.5,358l18.5,7.3l-18.5,7.3L-73.5,358z"/>
	<path class="st5" d="M-94,366.1l20.5-8.1l0,14.6l-2,0.8L-94,366.1z"/>
</g>
<text transform="matrix(1 0 0 1 -137.1281 477.367)" class="st3 st6 st7">Redmon</text>
</svg>
