<svg xmlns="http://www.w3.org/2000/svg" viewBox="0 0 100 100"><defs><style>.cls-1{fill:#753dfc;}.cls-2{fill:#fff;}</style></defs><title>服务注册</title><g id="服务注册"><rect class="cls-1" width="100" height="100"/><path class="cls-2" d="M28.86,64.61v2.64a1.34,1.34,0,0,1-1.32,1.32H24.89a1.34,1.34,0,0,1-1.32-1.32V64.61a1.34,1.34,0,0,1,1.32-1.32h2.64a1.34,1.34,0,0,1,1.32,1.32Zm0-10.57v2.64A1.34,1.34,0,0,1,27.54,58H24.89a1.34,1.34,0,0,1-1.32-1.32V54a1.34,1.34,0,0,1,1.32-1.32h2.64A1.34,1.34,0,0,1,28.86,54Zm0-10.57v2.64a1.34,1.34,0,0,1-1.32,1.32H24.89a1.34,1.34,0,0,1-1.32-1.32V43.46a1.34,1.34,0,0,1,1.32-1.32h2.64a1.34,1.34,0,0,1,1.32,1.32ZM76.43,64.61v2.64a1.34,1.34,0,0,1-1.32,1.32H35.46a1.34,1.34,0,0,1-1.32-1.32V64.61a1.34,1.34,0,0,1,1.32-1.32H75.11a1.34,1.34,0,0,1,1.32,1.32Zm0-10.57v2.64A1.34,1.34,0,0,1,75.11,58H35.46a1.34,1.34,0,0,1-1.32-1.32V54a1.34,1.34,0,0,1,1.32-1.32H75.11A1.34,1.34,0,0,1,76.43,54Zm0-10.57v2.64a1.34,1.34,0,0,1-1.32,1.32H35.46a1.34,1.34,0,0,1-1.32-1.32V43.46a1.34,1.34,0,0,1,1.32-1.32H75.11a1.34,1.34,0,0,1,1.32,1.32Zm5.29,29.07V38.18a1.34,1.34,0,0,0-1.32-1.32H19.61a1.34,1.34,0,0,0-1.32,1.32V72.54a1.34,1.34,0,0,0,1.32,1.32H80.39a1.34,1.34,0,0,0,1.32-1.32ZM87,27.61V72.54a6.63,6.63,0,0,1-6.61,6.61H19.61A6.63,6.63,0,0,1,13,72.54V27.61A6.63,6.63,0,0,1,19.61,21H80.39A6.63,6.63,0,0,1,87,27.61Z"/></g></svg>