<svg xmlns="http://www.w3.org/2000/svg" xmlns:xlink="http://www.w3.org/1999/xlink" viewBox="0 0 1000 1000">
  <defs>
    <clipPath id="a">
      <path d="M466.824,543.639s23.312,10.715,41.067,15.82l1.671,22.8s-44.968-4.228-53.725-20.332Z" fill="#100f0d"/>
    </clipPath>
  </defs>
  <title>svg</title>
  <rect x="0.258" y="0.258" width="999.484" height="999.484" fill="#100f0d"/>
  <path d="M509.1,783.847l-42.275,26.694v-266.9c-37.027-15.25-55.2-25.739-56.673-26.6-37.924-21.948-59.147-49-62.994-80.356-5.755-46.906,31.2-83.258,32.775-84.782l1.048-.947L497.021,253.21a13.689,13.689,0,0,0-17.638-20.94L461.707,247.16,435.25,215.751l17.677-14.889a54.756,54.756,0,0,1,70.552,83.758L408.143,381.768c-2.915,3.047-23.358,25.413-20.2,50.118,2.277,17.808,16.7,34.515,42.864,49.658,7.226,4.2,19.314,10.261,36.016,17.532V364.362l30.043,15.7c132.983,69.484,171.216,189.872,172.779,194.963l10.715,34.911-35.4-8.983c-56.3-14.289-101.725-28.72-137.073-41.492ZM507.891,515.63c28.547,10.728,63.984,22.631,105.836,34.444-4.209-7.756-9.31-16.369-15.41-25.478a330.067,330.067,0,0,0-90.425-90.329V515.63Z" fill="#fff"/>
  <polygon points="435.273 215.729 299.087 350.708 461.748 247.105 435.273 215.729" fill="#f14621"/>
  <g opacity="0.2">
    <path d="M466.824,543.639s23.312,10.715,41.067,15.82l1.671,22.8s-44.968-4.228-53.725-20.332Z" fill="#100f0d"/>
    <g clip-path="url(#a)">
      <path d="M509.1,783.847l-42.275,26.694v-266.9c-37.027-15.25-55.2-25.739-56.673-26.6-37.924-21.948-59.147-49-62.994-80.356-5.755-46.906,31.2-83.258,32.775-84.782l1.048-.947L497.021,253.21a13.689,13.689,0,0,0-17.638-20.94L461.707,247.16,435.25,215.751l17.677-14.889a54.756,54.756,0,0,1,70.552,83.758L408.143,381.768c-2.915,3.047-23.358,25.413-20.2,50.118,2.277,17.808,16.7,34.515,42.864,49.658,7.226,4.2,19.314,10.261,36.016,17.532V364.362l30.043,15.7c132.983,69.484,171.216,189.872,172.779,194.963l10.715,34.911-35.4-8.983c-56.3-14.289-101.725-28.72-137.073-41.492ZM507.891,515.63c28.547,10.728,63.984,22.631,105.836,34.444-4.209-7.756-9.31-16.369-15.41-25.478a330.067,330.067,0,0,0-90.425-90.329V515.63Z" fill="#100f0d"/>
    </g>
  </g>
</svg>
