<svg xmlns="http://www.w3.org/2000/svg" viewBox="0 0 100 100"><defs><style>.cls-1{fill:#4b5bf7;}.cls-2{fill:#fff;}</style></defs><title>服务治理</title><g id="服务治理_" data-name="服务治理
"><rect class="cls-1" width="100" height="100"/><path class="cls-2" d="M80,26a2,2,0,0,1,2,2V72a2,2,0,0,1-2,2H20a2,2,0,0,1-2-2V28a2,2,0,0,1,2-2H80m0-5H20a7,7,0,0,0-7,7V72a7,7,0,0,0,7,7H80a7,7,0,0,0,7-7V28a7,7,0,0,0-7-7Z"/><path class="cls-2" d="M33.5,36h-6A1.5,1.5,0,0,0,26,37.5v6A1.5,1.5,0,0,0,27.5,45h6A1.5,1.5,0,0,0,35,43.5v-6A1.5,1.5,0,0,0,33.5,36Z"/><path class="cls-2" d="M46.5,36h-6A1.5,1.5,0,0,0,39,37.5v6A1.5,1.5,0,0,0,40.5,45h6A1.5,1.5,0,0,0,48,43.5v-6A1.5,1.5,0,0,0,46.5,36Z"/><path class="cls-2" d="M59.5,36h-6A1.5,1.5,0,0,0,52,37.5v6A1.5,1.5,0,0,0,53.5,45h6A1.5,1.5,0,0,0,61,43.5v-6A1.5,1.5,0,0,0,59.5,36Z"/><path class="cls-2" d="M72.5,36h-6A1.5,1.5,0,0,0,65,37.5v6A1.5,1.5,0,0,0,66.5,45h6A1.5,1.5,0,0,0,74,43.5v-6A1.5,1.5,0,0,0,72.5,36Z"/><path class="cls-2" d="M33.5,54h-6A1.5,1.5,0,0,0,26,55.5v6A1.5,1.5,0,0,0,27.5,63h6A1.5,1.5,0,0,0,35,61.5v-6A1.5,1.5,0,0,0,33.5,54Z"/><path class="cls-2" d="M46.5,54h-6A1.5,1.5,0,0,0,39,55.5v6A1.5,1.5,0,0,0,40.5,63h6A1.5,1.5,0,0,0,48,61.5v-6A1.5,1.5,0,0,0,46.5,54Z"/><path class="cls-2" d="M59.5,54h-6A1.5,1.5,0,0,0,52,55.5v6A1.5,1.5,0,0,0,53.5,63h6A1.5,1.5,0,0,0,61,61.5v-6A1.5,1.5,0,0,0,59.5,54Z"/><path class="cls-2" d="M72.5,54h-6A1.5,1.5,0,0,0,65,55.5v6A1.5,1.5,0,0,0,66.5,63h6A1.5,1.5,0,0,0,74,61.5v-6A1.5,1.5,0,0,0,72.5,54Z"/></g></svg>