<svg xmlns="http://www.w3.org/2000/svg" viewBox="0 0 100 100">
  <title>splunk</title>
  <g>
    <rect width="100" height="100" fill="#232323"/>
    <path d="M16.443,47.953a3.314,3.314,0,0,0-2.077-.729c-.851,0-1.646.431-1.646,1.215.066,1.767,5.059,3.226,5.059,6.1,0,.552.309,3.966-4.938,4.209A6.727,6.727,0,0,1,8.7,57.287l1.1-1.823c2.01,1.58,2.684,1.281,2.806,1.281,1.767-.066,1.767-1.281,1.7-1.646-.066-2.132-5.059-3.1-4.938-6.341.066-2.441,2.441-3.469,4.419-3.469A7.445,7.445,0,0,1,17.5,46.329Z" fill="#fff"/>
    <path d="M27.413,45.346c-3.712-.122-4.695,2.209-4.695,2.209V45.644H19.4V64.953h3.314v-8.23A4.916,4.916,0,0,0,26.551,58.8c4.75,0,6.274-4.419,6.274-6.882C32.77,49.168,31.555,45.456,27.413,45.346ZM25.888,56.79c-2.209,0-3.314-2.132-3.314-4.695s1.1-4.695,3.314-4.695c2.375,0,3.314,2.132,3.314,4.695C29.2,54.47,28.164,56.79,25.888,56.79Z" fill="#fff"/>
    <rect x="34.239" y="39.547" width="3.469" height="18.945" fill="#fff"/>
    <path d="M43.231,53.62a2.463,2.463,0,0,0,2.585,2.773c.243,0,2.806.188,2.927-3.413v-7.4h3.314V58.491h-3.3v-1.7A5.523,5.523,0,0,1,44.49,58.8a4.231,4.231,0,0,1-4.61-3.814q-.015-.164-.018-.329v-9.08h3.369Z" fill="#fff"/>
    <path d="M63.3,50.449a2.463,2.463,0,0,0-2.563-2.806c-.243,0-2.806-.188-2.927,3.413v7.434H54.5V45.578h3.314v1.7a5.523,5.523,0,0,1,4.264-2.01,4.231,4.231,0,0,1,4.61,3.814q.015.164.018.329v9.08H63.3Z" fill="#fff"/>
    <polygon points="72.493 58.491 69.09 58.491 69.09 39.547 72.493 39.547 72.493 50.692 72.802 50.692 77.43 45.401 79.993 46.495 75.608 51.179 80.789 57.641 77.618 58.734 72.559 51.731 72.493 51.676 72.493 58.491" fill="#fff"/>
    <polygon points="94 53.012 83.771 58.071 83.771 55.873 91.747 51.919 83.771 48.074 83.771 45.766 94 50.88 94 53.012" fill="#c6c6c6"/>
  </g>
</svg>
