<svg xmlns="http://www.w3.org/2000/svg" xmlns:xlink="http://www.w3.org/1999/xlink" viewBox="0 0 100 100">
  <defs>
    <linearGradient id="a" data-name="未命名的渐变 79" x1="35.981" y1="43.326" x2="63.492" y2="43.326" gradientUnits="userSpaceOnUse">
      <stop offset="0" stop-color="#51cce0"/>
      <stop offset="1" stop-color="#00bfd4"/>
    </linearGradient>
    <linearGradient id="b" data-name="未命名的渐变 91" x1="65" y1="38.023" x2="71.202" y2="38.023" gradientUnits="userSpaceOnUse">
      <stop offset="0" stop-color="#d2e261"/>
      <stop offset="1" stop-color="#c7d927"/>
    </linearGradient>
    <linearGradient id="c" x1="28.798" y1="38.086" x2="34.518" y2="38.086" xlink:href="#b"/>
  </defs>
  <title>treafik</title>
  <g>
    <rect width="100" height="100" fill="#f4f4f4"/>
    <g>
      <path d="M35.189,36.362s3.489-3.026,13.787-3.026c9.457,0,12.148,2.144,14.838,3.026L49.732,43.256Z" fill="#c9781f"/>
      <path d="M33.718,45.526c.084,1.3,1.387.715,1.976.294.546-.378.715-.084.8-.841a9.106,9.106,0,0,0,.042-1.513,3.742,3.742,0,0,0-2.48.63c-.336.252-1.051,1.093-.336,1.429" fill="#f6d2a2"/>
      <path d="M33.718,45.526a1.009,1.009,0,0,0,.5-.294" fill="#c6b198"/>
      <path d="M36.786,29.805c-5.044-1.429-1.3-7.818,2.774-5.212Z" fill="#37abc8"/>
      <path d="M59.148,24.131c3.993-2.816,7.608,3.531,2.942,5.128Z" fill="#37abc8"/>
      <path d="M60.03,61.709c1.009.63,2.858,2.522,1.345,3.447C59.9,66.5,59.106,63.684,57.8,63.306A3.6,3.6,0,0,1,60.03,61.709Z" fill="#f6d2a2"/>
      <path d="M61.375,65.155A4.045,4.045,0,0,0,60.7,63.81" fill="none"/>
      <path d="M41.914,63.852c-1.177.168-1.849,1.261-2.858,1.807a.874.874,0,0,1-1.387-.336c-.126-.084-.126.042-.378-.168-.883-1.387.883-2.354,1.807-3.026C40.443,61.877,41.242,62.97,41.914,63.852Z" fill="#f6d2a2"/>
      <path d="M37.711,65.323c.042-.5.462-.883.673-1.3" fill="none"/>
      <path d="M37,28.04c-.673-.336-1.135-.841-.757-1.6.378-.715,1.093-.63,1.723-.294L37,28.04Z" fill="#077e91"/>
      <path d="M61.081,27.367c.673-.336,1.135-.841.757-1.6-.378-.715-1.093-.63-1.723-.294Z" fill="#077e91"/>
      <path d="M65.663,45.358c-.084,1.3-1.387.715-1.976.294-.546-.378-.715-.084-.8-.841a9.106,9.106,0,0,1-.042-1.513,3.742,3.742,0,0,1,2.48.63c.336.252,1.009,1.093.336,1.429" fill="#f6d2a2"/>
      <path d="M65.663,45.358a1.009,1.009,0,0,1-.5-.294" fill="#c6b198"/>
      <path d="M49.186,21.483c5.044,0,9.794.715,12.232,5.59C63.645,32.5,62.847,38.38,63.183,44.1c.294,4.918.925,10.634-1.345,15.216-2.4,4.792-8.407,6.011-13.367,5.843-3.909-.126-8.575-1.429-10.8-4.96-2.564-4.161-1.345-10.382-1.177-15.006.21-5.506-1.471-11.013.336-16.393,1.849-5.632,6.935-6.893,12.358-7.314" fill="url(#a)"/>
      <path d="M50.069,28.25c.925,5.254,9.5,3.867,8.281-1.429-1.093-4.75-8.575-3.447-8.281,1.429" fill="#fff"/>
      <path d="M39.77,29.091c1.177,4.582,8.533,3.4,8.239-1.177-.294-5.506-9.331-4.456-8.239,1.177" fill="#fff"/>
      <path d="M50.069,36.362a16.309,16.309,0,0,1,.084-2.48l1.6.5a12.49,12.49,0,0,1,.042,2.186S50.973,38.095,50.069,36.362Z" fill="#fff"/>
      <g>
        <ellipse cx="41.83" cy="28.376" rx="1.219" ry="1.345"/>
        <ellipse cx="42.376" cy="28.67" rx="0.294" ry="0.336" fill="#fff"/>
      </g>
      <g>
        <ellipse cx="52.212" cy="28.04" rx="1.219" ry="1.345"/>
        <ellipse cx="52.759" cy="28.334" rx="0.294" ry="0.336" fill="#fff"/>
      </g>
      <path d="M48.219,34.513c-.546,1.3.294,3.951,1.765,2.018a16.309,16.309,0,0,1,.084-2.48l-1.849.462Z" fill="#fff"/>
      <path d="M48.135,31.991a1.588,1.588,0,0,0-1.3,2.228c.715,1.261,2.228-.126,3.195,0,1.093.042,2.018,1.177,2.9.21,1.009-1.093-.42-2.1-1.555-2.606l-3.237.168Z" fill="#f6d2a2"/>
      <g>
        <path d="M35.189,36.362s.336,3.447.294,4.96c-.042,1.471,1.387.546,1.471,2.9s-.883,1.891-1.345,3.026c-.5,1.135-.841,6.515-.841,6.515a5.146,5.146,0,0,0,2.1,1.891,12.732,12.732,0,0,0,6.347,1.3,11.153,11.153,0,0,0,4.161-.841,4.766,4.766,0,0,0,1.3-1.723,53.328,53.328,0,0,0,.715-8.911,38.681,38.681,0,0,0-.546-5.8Z" fill="#ffbb43"/>
        <path d="M49.186,51.074c-6.515.715-14.039-1.261-14.039-1.261a8.3,8.3,0,0,1,.588-2.732A38.754,38.754,0,0,0,49.312,48.51a7.58,7.58,0,0,1-.126,2.564Z" fill="#f2f2f2"/>
        <path d="M48.387,55.067A40.472,40.472,0,0,1,34.81,53.722a11.762,11.762,0,0,1,.252-2.816,42.847,42.847,0,0,0,14,1.555,5.876,5.876,0,0,1-.673,2.606Z" fill="#f2f2f2"/>
      </g>
      <g>
        <path d="M63.855,36.362s-.042,3.447-.042,4.96c.042,1.471-.883.546-.925,2.9-.084,2.354.883,1.891,1.387,3.026s.841,6.515.841,6.515a5.146,5.146,0,0,1-2.1,1.891,13.065,13.065,0,0,1-6.431,1.3,12.049,12.049,0,0,1-4.245-.841,4.766,4.766,0,0,1-1.3-1.723,53.328,53.328,0,0,1-.715-8.911,38.681,38.681,0,0,1,.546-5.8Z" fill="#ffbb43"/>
        <path d="M50.531,51.074c6.6.715,14.207-1.261,14.207-1.261a8.3,8.3,0,0,0-.588-2.732A39.7,39.7,0,0,1,50.4,48.51a7.58,7.58,0,0,0,.126,2.564Z" fill="#f2f2f2"/>
        <path d="M51.33,55.067a41.436,41.436,0,0,0,13.745-1.345,11.762,11.762,0,0,0-.252-2.816,43.867,43.867,0,0,1-14.165,1.555,5.365,5.365,0,0,0,.673,2.606Z" fill="#f2f2f2"/>
      </g>
      <path d="M66.462,42.71a.726.726,0,0,1-.925.42L65.285,43a.7.7,0,0,1-.168-.967l4.624-8.7a.726.726,0,0,1,.925-.42l.252.126a.7.7,0,0,1,.168.967Z" fill="url(#b)"/>
      <path d="M64.276,46.829a.561.561,0,0,1-.757.126l-.252-.126a.588.588,0,0,1-.336-.673l2.144-4.077a.561.561,0,0,1,.757-.126l.252.126a.588.588,0,0,1,.336.673Z" fill="#333"/>
      <path d="M66.209,41.911l-.252-.126c-.294-.168-.588-.168-.673,0l-.126.252c.084-.126.378-.126.673,0l.252.126c.294.168.462.42.378.546l.126-.252C66.672,42.289,66.5,42.037,66.209,41.911Z" fill="#9b9b9b"/>
      <ellipse cx="64.273" cy="44.25" rx="0.799" ry="1.009" transform="translate(0.384 89.052) rotate(-69.586)" fill="#f6d2a2"/>
      <path d="M33.087,42.836a.746.746,0,0,0,.883.462l.252-.126c.294-.126.378-.588.21-.967l-4.2-8.869a.746.746,0,0,0-.883-.462L29.094,33c-.294.126-.378.588-.21.967l4.2,8.869Z" fill="url(#c)"/>
      <path d="M35.063,47.039a.614.614,0,0,0,.757.168l.252-.126c.294-.126.462-.462.336-.673l-1.976-4.161a.614.614,0,0,0-.757-.168l-.252.126c-.294.126-.462.462-.336.673Z" fill="#333"/>
      <path d="M33.381,42.037l.252-.126c.294-.126.588-.126.673,0l.126.252c-.084-.168-.378-.168-.673,0l-.252.126c-.294.126-.5.378-.42.546l-.126-.252c-.084-.168.126-.378.42-.546Z" fill="#9b9b9b"/>
      <ellipse cx="35.394" cy="44.356" rx="1.009" ry="0.799" transform="translate(-13.255 15.142) rotate(-20.427)" fill="#f6d2a2"/>
      <path d="M37.374,31.781a.763.763,0,0,1-1.051.294l-.42-.252a.778.778,0,0,1-.336-1.051l4.582-8.323a.763.763,0,0,1,1.051-.294l.42.252a.831.831,0,0,1,.336,1.051,32.568,32.568,0,0,1-4.582,8.323Z" fill="#9b3b3b"/>
      <path d="M38.593,27.031c1.387-2.522,2.312-4.708,2.1-4.96h0c-2.144-1.177-5,0-6.431,2.564s-.841,5.632,1.261,6.809h0c.294.084,1.639-1.891,3.068-4.413Z" fill="#ccc"/>
      <path d="M61.544,31.823a.763.763,0,0,0,1.051.294l.462-.21a.805.805,0,0,0,.378-1.051l-4.329-8.449a.763.763,0,0,0-1.051-.294l-.5.21a.846.846,0,0,0-.378,1.051,32.411,32.411,0,0,0,4.371,8.449Z" fill="#9b3b3b"/>
      <path d="M60.451,27.031c-1.3-2.564-2.186-4.792-1.934-5h0c2.186-1.093,5,.126,6.389,2.774s.673,5.674-1.471,6.767h0c-.378,0-1.639-1.976-2.984-4.54Z" fill="#ccc"/>
      <path d="M64.78,25.938A26.028,26.028,0,0,0,61.333,19.8c-1.849-2.1-20.05-2.858-23.034,0a17.357,17.357,0,0,0-4.119,6.137v-.883A15.9,15.9,0,0,1,38.3,18.919c2.732-2.228,20.68-2.1,22.992,0s3.489,6.137,3.489,6.137v.883Z" fill="#353535"/>
      <ellipse cx="64.739" cy="24.886" rx="0.63" ry="1.513" transform="translate(-4.223 32.283) rotate(-27.149)" fill="#9b3b3b"/>
      <ellipse cx="34.343" cy="24.784" rx="1.513" ry="0.631" transform="translate(-3.921 42.937) rotate(-61.197)" fill="#9b3b3b"/>
      <g opacity="0.6">
        <path d="M57.887,25.1H40.947c-3.026,0-3.026,8.112-.168,8.575l5.885-.42c.715,0,2.144-2.774,2.4-2.984a1.732,1.732,0,0,1,1.513,0c.378.252,1.135,2.69,1.849,2.69l5.927.673c2.774-1.261,2.06-8.533-.462-8.533Z" fill="#fff" opacity="0.6" style="isolation: isolate"/>
        <path d="M45.445,26.779c-1.849-.042-4.792-.042-6.389,0a7.992,7.992,0,0,0-.42,3.068h6.851a12.7,12.7,0,0,1,3.531.546c0-.042.042-.042.084-.084a1.732,1.732,0,0,1,1.513,0,2.536,2.536,0,0,1,.336.546,10.935,10.935,0,0,0,1.639.21h7.4a8.141,8.141,0,0,0,0-3.026c-2.27,0-5.843-.042-7.524-.042-2.438,0-4.54-1.177-7.02-1.219Z" fill="#fff" opacity="0.5" style="isolation: isolate"/>
      </g>
      <path d="M48.009,31.907c-.084-1.765,3.237-1.976,3.657-.5.378,1.471-3.531,1.807-3.657.5Z" fill="#333"/>
    </g>
    <g>
      <g>
        <path d="M27.332,85.025h1.232c.13,0,.324-.065.454-.065a.648.648,0,0,0,.324-.259.88.88,0,0,0-.065-.973.538.538,0,0,0-.519-.195h-.908a1.024,1.024,0,0,1-.973-.454,3.1,3.1,0,0,1-.324-1.557V75.815H28.5c.454,0,.713-.195.713-.584a.589.589,0,0,0-.195-.454.736.736,0,0,0-.519-.195H26.553V71.535a1.046,1.046,0,0,0-.195-.584.736.736,0,0,0-.519-.195.833.833,0,0,0-.649.259.873.873,0,0,0-.324.584l-.259,2.984h-1.3a.736.736,0,0,0-.519.195.627.627,0,0,0,0,.908.736.736,0,0,0,.519.195h1.3v6.032a3.532,3.532,0,0,0,.713,2.4,3.17,3.17,0,0,0,2.011.713" fill="#333"/>
        <path d="M32.65,84.9a.833.833,0,0,0,.649-.259.8.8,0,0,0,.324-.649V78.6a2.447,2.447,0,0,1,.778-1.946,2.926,2.926,0,0,1,2.205-.713.67.67,0,0,0,.713-.713,1.046,1.046,0,0,0-.195-.584.59.59,0,0,0-.519-.259,2.77,2.77,0,0,0-1.881.649,2.729,2.729,0,0,0-1.038,1.621V75.426a.833.833,0,0,0-.259-.649,1.152,1.152,0,0,0-.649-.259.833.833,0,0,0-.649.259.617.617,0,0,0-.259.649v8.626a.752.752,0,0,0,.259.649c.065.13.324.195.519.195" fill="#333"/>
        <path d="M58.334,84.9a.833.833,0,0,0,.649-.259.772.772,0,0,0,.259-.713V75.751h1.751c.454,0,.649-.195.649-.584a.589.589,0,0,0-.195-.454.736.736,0,0,0-.519-.195H59.307v-.843a9.579,9.579,0,0,1,.065-1.362,1.844,1.844,0,0,1,.259-.778.751.751,0,0,1,.454-.324,2.66,2.66,0,0,1,.713-.065h.908a.5.5,0,0,0,.454-.195.789.789,0,0,0,0-1.038c-.13-.13-.259-.259-.454-.195h-1.3A3.051,3.051,0,0,0,58.2,70.5a3.723,3.723,0,0,0-.778,2.659v1.362H56.064a.736.736,0,0,0-.519.195.627.627,0,0,0,0,.908.736.736,0,0,0,.519.195h1.362v8.172a.975.975,0,0,0,.259.713,1.9,1.9,0,0,0,.649.195" fill="#333"/>
        <path d="M64.95,72.054a1.214,1.214,0,0,0,.908-.324,1.258,1.258,0,0,0,0-1.686,1.433,1.433,0,0,0-1.816,0,1.214,1.214,0,0,0,0,1.686,1.55,1.55,0,0,0,.908.324m0,12.842a.752.752,0,0,0,.649-.259,1.042,1.042,0,0,0,.324-.713v-8.5a.975.975,0,0,0-.259-.713.833.833,0,0,0-.649-.259.975.975,0,0,0-.713.259.772.772,0,0,0-.259.713v8.5a.975.975,0,0,0,.259.713,1.152,1.152,0,0,0,.649.259" fill="#333"/>
        <path d="M70.009,84.9a.752.752,0,0,0,.649-.259,1.042,1.042,0,0,0,.324-.713v-4.6l4.929,5.254a.8.8,0,0,0,.649.324.632.632,0,0,0,.584-.259.7.7,0,0,0,.259-.584.59.59,0,0,0-.259-.519l-4.151-4.41,3.827-3.438a.8.8,0,0,0,.259-.519.966.966,0,0,0-.259-.584.7.7,0,0,0-.584-.259.736.736,0,0,0-.519.195l-4.735,4.346V70.821a.975.975,0,0,0-.259-.713.833.833,0,0,0-.649-.259.975.975,0,0,0-.713.259.772.772,0,0,0-.259.713v13.1a.975.975,0,0,0,.259.713.991.991,0,0,0,.649.259" fill="#333"/>
      </g>
      <path d="M41.471,84.9a4.4,4.4,0,0,1-2.789-1.1,2.675,2.675,0,0,1-.843-2.465,2.75,2.75,0,0,1,1.621-2.4,5.253,5.253,0,0,1,2.659-.519,12.324,12.324,0,0,1,2.659.259,2.43,2.43,0,0,0,.519.065s.065-.065.065-.454a3.518,3.518,0,0,0,.065-1.1,1.251,1.251,0,0,0-.195-.649c-.259-.584-.973-.908-2.011-1.038a4.342,4.342,0,0,0-1.3,0,4.739,4.739,0,0,0-1.427.389c-.389.13-.389.13-.519.13a.493.493,0,0,1-.519-.389.39.39,0,0,1-.065-.259c0-.195.065-.259.195-.454a3.4,3.4,0,0,1,1.686-.778A7.146,7.146,0,0,1,42.444,74a9.716,9.716,0,0,1,1.427.13,4.394,4.394,0,0,1,2.011.843,1.748,1.748,0,0,1,.454.519l.065.065.13-.13a4.292,4.292,0,0,1,3.438-1.492,5.154,5.154,0,0,1,2.724.713,3.406,3.406,0,0,1,1.232,1.492,1.923,1.923,0,0,1,.13.908v.584a3.08,3.08,0,0,1-1.232,2.011,4.178,4.178,0,0,1-2.14.649,8.5,8.5,0,0,1-1.816,0,12.381,12.381,0,0,0-1.3-.13,7.442,7.442,0,0,0-.908-.13,1.584,1.584,0,0,0-.065.454,3.426,3.426,0,0,0-.065.843,1.264,1.264,0,0,0,.065.519,1.58,1.58,0,0,0,.908,1.038,4.712,4.712,0,0,0,1.816.389h.713a5.644,5.644,0,0,0,1.492-.389c.13-.065.259-.065.389-.13a.823.823,0,0,1,.389.065.661.661,0,0,1,.324.519.621.621,0,0,1-.324.584,3.5,3.5,0,0,1-2.075.778,4.348,4.348,0,0,1-1.3,0,6.089,6.089,0,0,1-2.14-.519,3.565,3.565,0,0,1-1.1-.843c-.065-.065-.13-.13-.13-.195-.065.065-.065.065-.065.13a2.641,2.641,0,0,1-.908.778,4.707,4.707,0,0,1-1.816.649,3.482,3.482,0,0,1-1.3.195ZM42.7,83.534a3.092,3.092,0,0,0,1.427-.778,3.675,3.675,0,0,0,.778-1.492c.065-.324.195-1.3.195-1.3h-.195c-.065,0-.324-.065-.519-.065-1.167-.13-1.881-.195-2.27-.195a3.929,3.929,0,0,0-1.492.324,1.009,1.009,0,0,0-.519.389,1.479,1.479,0,0,0-.389.778,2.457,2.457,0,0,0,0,.973,1.233,1.233,0,0,0,.454.713,2.283,2.283,0,0,0,1.232.649,2.017,2.017,0,0,0,.713.065,1.8,1.8,0,0,0,.584-.065Zm7.329-4.346a3.056,3.056,0,0,0,1.1-.259,1.647,1.647,0,0,0,.649-.519,1.77,1.77,0,0,0,.324-1.167,3.256,3.256,0,0,0-.13-.778,2.169,2.169,0,0,0-1.751-1.1,4.876,4.876,0,0,0-.973,0,2.355,2.355,0,0,0-1.1.454,2.834,2.834,0,0,0-1.167,1.751l-.195.973-.065.519h.065c.259,0,.908.13,1.3.13.259,0,.519.065.649.065a9.134,9.134,0,0,1,1.3-.065Z" fill="#37abc8"/>
    </g>
  </g>
</svg>
