<?xml version="1.0" encoding="UTF-8" standalone="no"?>
<svg version="1.1" xmlns="http://www.w3.org/2000/svg" xmlns:xlink="http://www.w3.org/1999/xlink" x="0px" y="0px"
     viewBox="0 0 200 200" enable-background="new 0 0 200 200" xml:space="preserve">    <title>owncloud</title>
    <defs></defs>
    <g id="Page-1" stroke="none" stroke-width="1" fill="none" fill-rule="evenodd">
        <g id="owncloud">
            <rect id="Rectangle-path" fill="#06090E" x="0" y="0" width="200" height="200"></rect>
            <path d="M117.65752,59 C109.923712,59 103.675984,65.2578403 103.675984,73.003395 C103.675984,76.1962269 104.737499,79.1347899 106.527194,81.4879832 C110.409646,76.9872857 116.13993,74.1293445 122.537642,74.1293445 C125.667766,74.1293445 128.636005,74.8274471 131.31033,76.0513832 C131.526871,75.0705529 131.639311,74.0505143 131.639311,73.0035328 C131.646191,65.2583227 125.392271,59.0001378 117.659151,59.0001378 L117.65752,59 Z M99.398688,65.4800672 C95.3712048,65.4800672 92.133408,68.7501445 92.133408,72.7835798 C92.133408,74.0895849 92.4698331,75.3236504 93.0655104,76.3805546 C95.4958704,75.0074336 98.3055936,74.2113445 101.289862,74.2113445 C101.577887,74.2113445 101.855302,74.2230519 102.139749,74.2388042 C102.10755,73.8298861 102.084915,73.4203202 102.084915,73.0032227 C102.084915,70.7564916 102.572129,68.6188412 103.428235,66.6878445 C102.27556,65.9136681 100.894469,65.4796882 99.3982064,65.4796882 L99.398688,65.4800672 Z M133.886752,70.5048756 C133.589213,70.5048756 133.302406,70.5414587 133.009483,70.559795 C133.136199,71.3600185 133.228804,72.1680286 133.228804,73.0035328 C133.228804,74.3038874 133.063684,75.5586252 132.762746,76.7652655 C136.291085,78.7209311 139.221208,81.6471597 141.15153,85.1947277 C143.153954,84.1506403 145.387752,83.486716 147.7586,83.3276084 C147.147587,76.1508857 141.211179,70.5046 133.886456,70.5046 L133.886752,70.5048756 Z M122.536816,75.7219361 C111.715264,75.7219361 102.962528,84.4876672 102.962528,95.3268269 C102.962528,106.165297 111.714576,114.931718 122.536816,114.931718 C133.359056,114.931718 142.111104,106.164608 142.111104,95.3268269 C142.111104,84.4876672 133.358368,75.7219361 122.536816,75.7219361 L122.536816,75.7219361 Z M101.29,75.8043082 C92.894336,75.8043082 86.101712,82.6073452 86.101712,91.0163418 C86.101712,95.9663855 88.4565296,100.348493 92.1056128,103.125468 C93.6439808,100.153691 96.7337888,98.1280847 100.302445,98.1280847 C100.733786,98.1280847 101.14779,98.1804476 101.563549,98.2379165 C101.433042,97.2869232 101.371645,96.3140173 101.371645,95.3273299 C101.371645,90.6099182 102.904784,86.2473803 105.511341,82.7241366 C103.951095,80.7687467 102.834539,78.4192055 102.358581,75.8596341 C102.00585,75.835165 101.648359,75.8047148 101.28936,75.8047148 L101.29,75.8043082 Z M148.88584,84.8649637 C146.336525,84.8649637 143.948546,85.5168224 141.840032,86.6223133 C143.037221,89.2783553 143.704237,92.225325 143.704237,95.3267166 C143.704237,101.133419 141.373224,106.406364 137.590669,110.236246 C140.369501,113.32613 144.40125,115.261054 148.885565,115.261054 C157.281229,115.261054 164.073853,108.458017 164.073853,100.049021 C164.073853,91.6400242 157.281435,84.8645503 148.885565,84.8645503 L148.88584,84.8649637 Z M84.624576,86.8694158 C76.890768,86.8694158 70.61552,93.0995553 70.61552,100.845248 C70.61552,108.59094 76.890768,114.876206 84.624576,114.876206 C87.568184,114.876206 90.2950032,113.957668 92.547584,112.404974 C91.6167888,110.95633 91.0671456,109.224476 91.0671456,107.380165 C91.0671456,106.422902 91.208165,105.503261 91.4783701,104.634337 C87.2613429,101.582007 84.5151221,96.6148746 84.5151221,91.0154461 C84.5151221,89.5926427 84.70232,88.2169032 85.0360138,86.8967032 C84.8975056,86.8927066 84.7642882,86.8692435 84.6247824,86.8692435 L84.624576,86.8694158 Z M166.840576,98.8958528 C166.427996,98.8958528 166.028805,98.9429235 165.634306,99.0056845 C165.656046,99.3549632 165.661688,99.6943398 165.661688,100.049083 C165.661688,104.515395 163.902197,108.568814 161.055941,111.581453 C162.456227,113.212357 164.513003,114.244868 166.840576,114.244868 C171.080238,114.244868 174.516592,110.83036 174.516592,106.584414 C174.516592,102.338123 171.079963,98.8963971 166.840576,98.8963971 L166.840576,98.8958528 Z M100.304096,99.7195738 C96.06464,99.7195738 92.654912,103.134288 92.654912,107.380028 C92.654912,111.626112 96.064296,115.068044 100.304096,115.068044 C103.553658,115.068044 106.311918,113.037201 107.431776,110.1805 C104.698627,107.3925 102.734387,103.835698 101.866475,99.8836427 C101.358587,99.7784484 100.843075,99.7188916 100.303821,99.7188916 L100.304096,99.7195738 Z M184.384576,106.172216 L184.384576,121.356686 L176.352176,121.356686 C171.101222,121.356686 166.8392,125.652866 166.8392,130.912098 C166.8392,136.170503 171.10136,140.439947 176.352176,140.439947 L178.682432,140.439947 L179.477485,140.439947 C181.017917,140.439947 182.556147,139.690646 183.781682,138.545333 C185.007216,137.400021 185.942621,135.813562 185.974888,134.042224 C186.029997,131.001885 185.974888,122.152913 185.974888,122.152913 L185.974888,121.768499 L185.974888,106.17265 L184.384782,106.17265 L184.384576,106.172216 Z M110.940576,113.036718 L110.940576,134.041811 C110.940576,137.572083 113.830933,140.439533 117.355763,140.439533 L117.355763,138.846942 C114.688662,138.846942 112.530682,136.713081 112.530682,134.041811 L112.530682,114.024853 C111.97711,113.726828 111.463318,113.380918 110.940576,113.036374 L110.940576,113.036718 Z M95.03952,114.986251 C92.223192,117.677712 90.4611552,121.467214 90.4611552,125.667612 C90.4611552,133.81731 97.0740736,140.440016 105.210499,140.440016 L105.210499,138.847424 C97.9321472,138.847424 92.0511232,132.957964 92.0511232,125.667475 C92.0511232,121.74629 93.7600464,118.222012 96.4649872,115.810248 C95.9594104,115.576989 95.4911232,115.303763 95.0393824,114.986527 L95.03952,114.986251 Z M76.314912,121.301629 C71.0639584,121.301629 66.801936,125.570384 66.801936,130.829478 L66.801936,139.643444 L68.3920416,139.643444 L68.3920416,130.829478 C68.3920416,126.429592 71.9221008,122.86652 76.3150496,122.86652 C80.7088928,122.86652 84.2655776,126.429454 84.2655776,130.829478 L84.2655776,139.643444 L85.8556832,139.643444 L85.8556832,130.829478 C85.8556832,125.570315 81.5668288,121.301629 76.3151872,121.301629 L76.314912,121.301629 Z M129.692016,121.356549 C124.440787,121.356549 120.17904,125.652522 120.17904,130.91196 C120.17904,136.171399 124.440856,140.467372 129.692016,140.467372 C134.943245,140.467372 139.232512,136.171399 139.232512,130.91196 C139.232512,125.652522 134.943245,121.356549 129.692016,121.356549 L129.692016,121.356549 Z M23.540496,121.383974 C18.28968,121.383974 14,125.652935 14,130.911823 C14,136.170848 18.28968,140.439671 23.540496,140.439671 C28.791312,140.439671 33.053472,136.17071 33.053472,130.911823 C33.053472,125.652797 28.7911744,121.383974 23.540496,121.383974 L23.540496,121.383974 Z M37.824064,122.097856 L37.824064,134.042293 C37.824064,137.572703 40.6876576,140.440016 44.2118,140.440016 C46.6137456,140.440016 48.7330608,139.109893 49.8319344,137.145063 C50.922896,139.109893 53.0231536,140.440016 55.4246176,140.440016 C58.949448,140.440016 61.839736,137.572703 61.839736,134.042293 L61.839736,122.097856 L60.2496304,122.097856 L60.2496304,134.042293 C60.2496304,136.713426 58.0916496,138.847424 55.4245488,138.847424 C52.757448,138.847424 50.6269184,136.713426 50.6269184,134.042293 L50.6269184,122.097856 L49.0368128,122.097856 L49.0368128,134.042293 C49.0368128,136.713564 46.8797952,138.847424 44.2117312,138.847424 C41.5455248,138.847424 39.4141008,136.713426 39.4141008,134.042293 L39.4141008,122.097856 L37.8239952,122.097856 L37.824064,122.097856 Z M143.397664,122.097856 L143.397664,130.911823 C143.397664,136.170228 147.659824,140.439671 152.91064,140.439671 C158.161594,140.439671 162.451136,136.170228 162.451136,130.911823 L162.451136,122.097856 L160.86103,122.097856 L160.86103,130.911823 C160.86103,135.310675 157.303589,138.847217 152.910502,138.847217 C148.517554,138.847217 144.987494,135.310744 144.987494,130.911823 L144.987494,122.097856 L143.397389,122.097856 L143.397664,122.097856 Z M129.689952,122.949071 C134.083245,122.949071 137.64048,126.51173 137.64048,130.912029 C137.64048,135.312191 134.083382,138.874987 129.689952,138.874987 C125.296659,138.874987 121.766944,135.312328 121.766944,130.912029 C121.766944,126.511868 125.296659,122.949071 129.689952,122.949071 L129.689952,122.949071 Z M176.3508,122.949071 L184.3832,122.949071 C184.389392,124.001359 184.433286,131.249676 184.3832,134.014937 C184.360771,135.245488 183.686875,136.480174 182.710878,137.392303 C181.734882,138.304364 180.471851,138.847562 179.475902,138.847562 L176.350594,138.847562 C171.957645,138.847562 168.427586,135.311088 168.427586,130.912167 C168.427586,126.512281 171.957645,122.949209 176.350594,122.949209 L176.3508,122.949071 Z M23.53912,122.976565 C27.932,122.976565 31.462128,126.512212 31.462128,130.91196 C31.462128,135.311708 27.932,138.847355 23.53912,138.847355 C19.14624,138.847355 15.588592,135.311708 15.588592,130.91196 C15.588592,126.512212 19.1461024,122.976565 23.53912,122.976565 L23.53912,122.976565 Z" id="Shape" fill="#FFFFFF"></path>
        </g>
    </g>
</svg>