<svg xmlns="http://www.w3.org/2000/svg" viewBox="0 0 1000 1000">
  <title>oracle_weblogicserver</title>
  <path d="M428.986,414.645h50.571l-26.713-43.056L403.8,449.417l-22.354.018,59.7-93.463a14.224,14.224,0,0,1,23.212-.165l59.9,93.628-22.364-.018L491.41,432.023H440.163Zm232.032,17.394V350.86H642.052v89.115a9.314,9.314,0,0,0,2.763,6.583,9.787,9.787,0,0,0,6.945,2.858h86.428l11.15-17.377h-88.32Zm-313.555-14.53a33.325,33.325,0,0,0,0-66.649h-82.94v98.557h18.942V368.232h62.694a15.957,15.957,0,0,1,0,31.914l-53.412-.018,56.56,49.29h27.536l-38.057-31.925ZM147.877,449.416a49.279,49.279,0,1,1,0-98.557h57.286a49.288,49.288,0,0,1,0,98.575Zm56.01-17.365a31.907,31.907,0,0,0,0-63.814l-54.741-.006a31.91,31.91,0,0,0,0,63.82h54.741Zm359.921,17.365a49.279,49.279,0,1,1,0-98.557h68.078L620.73,368.236l-55.641-.006a31.91,31.91,0,1,0,0,63.82h68.332l-11.132,17.365H563.808ZM795.65,432.051a31.9,31.9,0,0,1-30.686-23.189h81.013l11.162-17.376-92.2-.006a31.909,31.909,0,0,1,30.709-23.249l55.606,0.006,11.173-17.377H794.35a49.279,49.279,0,0,0,0,98.557h58.483l11.138-17.365H795.65Z" fill="red"/>
  <path d="M872.583,361.352a8.7,8.7,0,1,1,8.706,8.724A8.7,8.7,0,0,1,872.583,361.352Zm8.707,11.119a11.078,11.078,0,1,0-11.068-11.078A11.089,11.089,0,0,0,881.29,372.471Zm-1.045-17.655a8.615,8.615,0,0,1,3.25.333,3.531,3.531,0,0,1,2.407,3.481,4.843,4.843,0,0,1-.13,1.02,3.38,3.38,0,0,1-1.543,2.129,1.7,1.7,0,0,1-.557.29l2.883,5.16h-2.787l-2.526-4.744h-1.685v4.744h-2.432V354.816h3.12Zm0.866,5.61a2.322,2.322,0,0,0,2.064-.776,1.845,1.845,0,0,0,.286-1.068,1.64,1.64,0,0,0-.938-1.506,6.319,6.319,0,0,0-2.277-.214h-0.688v3.564h1.553Z" fill="red"/>
  <path d="M31.755,556.211l10.611,51.255,13.358-51.255H72.3l12.032,51.255L95.42,556.211h14.022l-17.433,68.4H75.716L63.3,572.316l-13.359,52.3H33.271L16.6,556.211H31.755Z"/>
  <path d="M122.052,555.927h45.855v11.18h-31.17V583.4h29.181v11.18H136.737v18.475h32.212v11.369h-46.9v-68.5Z"/>
  <path d="M184.491,556.021h25.581c3.979,0,11.653,0,16.864,3.221,6.253,3.979,7.674,10.611,7.674,14.591,0,2.558-.474,7.011-3.979,10.231a18.5,18.5,0,0,1-7.769,4.643V588.9c10.421,1.9,14.5,9.475,14.5,16.675a17.629,17.629,0,0,1-10.043,16.106c-5.306,2.747-14.59,2.747-17.243,2.747H184.491v-68.4Zm14.022,27.854h10.232c4.169,0,11.748,0,11.748-8.811,0-8.527-7.2-8.527-12.032-8.527h-9.948v17.338Zm0,29.56h9.948c6.727,0,14.306,0,14.306-9.189,0-9.759-8.811-9.759-15.822-9.759h-8.432v18.948h0Z"/>
  <path d="M252.9,556.021h14.969v56.75h29.37v11.653H252.9v-68.4Z"/>
  <path d="M336.276,554.505c7.3,0,17.338,1.706,24.064,9.285,7.3,8.337,8.716,19.043,8.716,25.77,0,9.948-3.032,20.56-8.622,26.812-7.579,8.526-18.664,9.758-24.349,9.758-9,0-18-2.842-24.254-9.379-7.484-7.959-8.432-19.327-8.432-25.58C303.4,572.98,311.644,554.505,336.276,554.505Zm-12.411,55.33c2.084,2.842,5.59,5.495,12.411,5.495,5.969,0,10.042-2.085,12.79-6.349,2.274-3.41,4.643-8.716,4.643-19.611A39.428,39.428,0,0,0,352,577.148c-2.842-8.432-8.621-12.127-15.632-12.127a15.561,15.561,0,0,0-12.6,5.779c-3.884,4.737-5.021,12.127-5.021,19.9C318.749,597.234,319.792,604.529,323.865,609.835Z"/>
  <path d="M430.74,576.959a12.94,12.94,0,0,0-1.895-6.916c-2.842-4.548-8.243-5.306-11.464-5.306-16.675,0-19.991,15.538-19.991,26.054,0,4.643.664,12.98,5.685,18.38,3.411,3.79,7.958,5.874,16.106,5.874,7.106,0,9.569-.853,11.18-1.326v-14.4H417.1V587.95h27.949v34.2c-4.263,1.421-11.274,3.789-25.012,3.789-15.632,0-23.686-3.789-29.086-9.095-7.674-7.484-9.1-18.38-9.1-25.58,0-24.254,15.159-37.234,35.907-37.234,8.811,0,17.906,2.464,23.307,8.622,4.547,5.211,4.832,10.611,4.926,14.306H430.74Z"/>
  <path d="M462.769,555.737h14.685v68.688H462.769V555.737Z"/>
  <path d="M533.637,578.285c-0.284-2.368-1.137-12.032-11.084-12.032-10.9,0-15.443,11.369-15.443,25.486,0,4.073,0,23.495,14.306,23.495,6.158,0,12.032-3.884,12.316-12.979h15.443c-0.284,4.074-.663,10.422-6.158,16.106-6.063,6.253-13.737,7.674-19.99,7.674-23.591,0-31.265-17.433-31.265-34.391,0-21.7,12.127-36.1,31.36-36.1,14.969,0,25.485,9.095,25.485,22.737h-14.97Z"/>
  <path d="M606.595,602.539c0,3.222-.189,12.98,12.411,12.98,7.958,0,12.979-3.79,12.979-9.569,0-6.063-4.263-7.1-12.979-9.19-16.3-4.073-25.2-8.905-25.2-20.748,0-11.274,8.053-21.222,27.1-21.222,7.106,0,15.538,1.61,20.654,8.053,3.884,4.927,3.884,10.422,3.884,12.7H631.323c-0.189-2.368-.947-10.422-11.085-10.422-6.821,0-11.274,3.7-11.274,9.285,0,6.348,5.021,7.484,14.875,9.947,11.843,2.843,23.5,6.063,23.5,19.423,0,12.316-10.232,22.264-29.181,22.264-26.243,0-26.433-16.864-26.527-23.5h14.968Z"/>
  <path d="M663.634,555.927h45.855v11.18h-31.17V583.4H707.5v11.18h-29.18v18.475h32.212v11.369h-46.9v-68.5Z"/>
  <path d="M725.315,555.927h26.243c7.58-.095,15.254-0.095,20.749,4.642a17.351,17.351,0,0,1,5.969,13.17c0,12.79-10.99,15.821-14.307,16.769,10.327,0.948,11.085,6.822,12.316,15.728,1.043,8.053,1.611,11.369,2.085,13.264a12.3,12.3,0,0,0,2.084,4.927h-16.2c-0.663-3.79-2.747-21.127-3.694-23.78-1.326-3.885-4.927-3.885-7.39-3.885H740.283v27.665H725.314v-68.5h0Zm14.495,29.938h11.843c1.706,0,5.116,0,7.485-1.9a9.475,9.475,0,0,0,3.789-7.958c0-4.643-2.273-6.821-3.6-7.674-2.274-1.611-5.021-1.611-9.664-1.611h-9.854v19.139h0Z"/>
  <path d="M803.2,556.211L821.1,609.93l18-53.719H853.6l-25.2,68.214H812.388l-25.2-68.214H803.2Z"/>
  <path d="M866.584,555.927h45.855v11.18h-31.17V583.4h29.18v11.18h-29.18v18.475h32.212v11.369h-46.9v-68.5Z"/>
  <path d="M928.265,555.927h26.243c7.58-.095,15.254-0.095,20.749,4.642a17.351,17.351,0,0,1,5.969,13.17c0,12.79-10.99,15.821-14.307,16.769,10.327,0.948,11.085,6.822,12.316,15.728,1.043,8.053,1.611,11.369,2.085,13.264a12.3,12.3,0,0,0,2.084,4.927H967.2c-0.663-3.79-2.747-21.127-3.694-23.78-1.326-3.885-4.927-3.885-7.39-3.885H943.233v27.665H928.264v-68.5h0Zm14.495,29.938H954.6c1.706,0,5.116,0,7.485-1.9a9.475,9.475,0,0,0,3.789-7.958c0-4.643-2.273-6.821-3.6-7.674-2.274-1.611-5.021-1.611-9.664-1.611h-9.854v19.139h0Z"/>
  <rect x="20.601" y="498.714" width="962.803" height="6.976" fill="#7c8184"/>
</svg>
