<svg xmlns="http://www.w3.org/2000/svg" viewBox="0 0 200 200" enable-background="new 0 0 200 200"><g><path fill="#EFC100" d="M0 0h200v200h-200z"/><g fill="#fff"><path d="M27.8 123.3v-7.2c3.3-2.8 6.4-5.5 9.1-8 2.7-2.5 4.8-4.7 6.3-6.3 1.5-1.7 2.6-3.3 3.5-4.8.8-1.5 1.2-3.2 1.2-4.8 0-1.3-.5-2.4-1.5-3.2-1-.8-2.4-1.2-4.1-1.2-1.9 0-3.4.4-4.7 1.3-1.2.9-2.2 1.9-3 3.1l-7-4.9c1.7-2.6 3.8-4.4 6.2-5.5 2.4-1.1 5.3-1.7 8.9-1.7 4.4 0 7.8 1 10.3 3.1 2.5 2 3.8 4.9 3.8 8.6 0 2.7-.5 5.1-1.5 7.1s-2.4 4-4.2 6c-1.8 1.9-4.1 4.1-6.8 6.4-2.7 2.3-4.4 3.7-5 4.2h18.9v7.9h-30.4zM97.5 102.1c0 7.6-1.3 13.2-4 16.8-2.7 3.6-6.9 5.4-12.5 5.4s-9.8-1.8-12.5-5.4c-2.7-3.6-4-9.1-4-16.7s1.3-13.1 4-16.7c2.7-3.6 6.8-5.4 12.5-5.4s9.9 1.8 12.5 5.4c2.7 3.5 4 9.1 4 16.6zm-8.9 0c0-5.1-.6-8.8-1.9-11.1-1.2-2.4-3.2-3.5-5.8-3.5-2.6 0-4.6 1.2-5.8 3.6-1.2 2.4-1.8 6.1-1.8 11.2s.6 8.8 1.8 11.1c1.2 2.4 3.1 3.5 5.8 3.5 2.6 0 4.6-1.2 5.8-3.6 1.3-2.4 1.9-6.1 1.9-11.2zM132 116.3v7h-8.3v-7h-21.3v-8l20.8-27.3h8.8v27.9h5.2v7.4h-5.2zm-8.2-24l-12.8 16.6h12.8v-16.6zM173.9 111.8c0 3.9-1.4 7-4.1 9.1-2.7 2.2-6.6 3.2-11.7 3.2-5 0-8.9-1-11.7-3.1-2.8-2.1-4.2-5.2-4.2-9.3 0-2.5.7-4.7 2.1-6.6 1.4-1.9 3.3-3.4 5.7-4.4-2.3-1.1-4-2.5-5.1-4.1-1.1-1.6-1.7-3.3-1.7-5.2 0-3.7 1.3-6.6 3.9-8.5 2.6-2 6.3-2.9 10.9-2.9 4.5 0 8.1.9 10.8 2.8 2.7 1.9 4 4.8 4 8.6 0 1.3-.3 2.4-.9 3.5-.6 1.1-1.4 2.1-2.3 2.9-1 .9-2.4 1.9-4.4 2.9 2.3 1.1 4.1 2.2 5.2 3.2 1.1 1 2 2.1 2.6 3.4.6 1.5.9 2.9.9 4.5zm-8.6 0c0-1.8-.6-3.2-1.8-4.4-1.2-1.2-3-2.3-5.4-3.5-2.6 1.1-4.4 2.3-5.5 3.5-1.1 1.2-1.7 2.6-1.7 4.4 0 1.6.6 2.9 1.7 3.9s3 1.5 5.5 1.5 4.3-.5 5.5-1.6c1.1-.9 1.7-2.2 1.7-3.8zm-.8-20.2c0-1.3-.5-2.5-1.5-3.4s-2.6-1.4-4.9-1.4c-2.4 0-4.1.5-5 1.4-.9.9-1.4 2-1.4 3.2 0 .9.2 1.7.6 2.3.4.6 1.1 1.3 2 2 .9.7 2.2 1.4 3.7 2 2.4-1 4-2.1 5-3.1 1-.9 1.5-2 1.5-3z"/></g><path fill="#F7E694" d="M73.7 26.9l-2 7 4.7 5.6-7.3.3-3.8 6.2-2.6-6.8-7-1.8 5.7-4.5-.5-7.3 6 4zM149.8 33.7l-3.1 6.6 3.7 6.3-7.2-.9-4.9 5.5-1.4-7.2-6.6-2.9 6.3-3.5.8-7.3 5.3 5z"/><path fill="#F6E695" d="M89.6 20.6l-1.8.9-.2 2-1.4-1.5-2 .4.9-1.8-.9-1.7 1.9.3 1.4-1.4.3 1.9z"/><path fill="#F7E797" d="M121.5 18.7l-1.9 1.5.1 2.5-2-1.4-2.3.9.7-2.4-1.6-1.9 2.5-.1 1.3-2.1.8 2.4z"/><path fill="#FCF4D1" d="M104.8 35.6l-1.1.8.1 1.4-1.1-.8-1.2.5.3-1.2-.8-1 1.3-.1.7-1.2.5 1.3z"/><path fill="#FFFEFC" d="M107.5 59.9l-4.7.4-2.4 4.1-1.8-4.4-4.6-.9 3.6-3.1-.5-4.7 4 2.4 4.3-1.9-1.1 4.6z"/><path fill="#ECD670" d="M153.9 19.4l-.9.5v1.1l-.9-.7-1 .3.4-1-.6-.8h1.1l.6-.8.3 1z"/><path fill="#F6DE69" d="M157.7 61.4l-1 1.1.3 1.4-1.3-.7-1.3.7.2-1.4-1-1 1.4-.2.6-1.3.7 1.3z"/><path fill="#EECA1B" d="M187.1 28.7l-5.2 2.9-.6 5.8-4.3-4-5.7 1.2 2.5-5.3-2.9-5.1 5.8.7 4-4.3 1 5.7z"/><path fill="#EED24B" d="M175.6 51l-1.2.7-.1 1.3-1-.9-1.3.3.6-1.2-.7-1.2 1.3.2.9-1 .3 1.3z"/><path fill="#FAEEB4" d="M70 57.5l-1.6 1.1v2l-1.6-1.2-1.9.7.7-1.9-1.2-1.6h2l1.1-1.6.6 1.9z"/><path fill="#F2D33D" d="M33.9 55.6l-1.8.8-.4 2-1.3-1.5-2 .3 1-1.7-.9-1.8 2 .4 1.4-1.4.2 2z"/><path fill="#EECA1A" d="M29.9 24.6l-5.7 1.6-2 5.7-3.3-5-6-.1 3.7-4.7-1.8-5.7 5.7 2.1 4.9-3.5-.3 6z"/></g></svg>