<?xml version="1.0" encoding="utf-8"?>
<!-- Generator: Adobe Illustrator 18.0.0, SVG Export Plug-In . SVG Version: 6.00 Build 0)  -->
<!DOCTYPE svg PUBLIC "-//W3C//DTD SVG 1.1//EN" "http://www.w3.org/Graphics/SVG/1.1/DTD/svg11.dtd">
<svg version="1.1" xmlns="http://www.w3.org/2000/svg" xmlns:xlink="http://www.w3.org/1999/xlink" x="0px" y="0px"
	 viewBox="0 0 200 200" enable-background="new 0 0 200 200" xml:space="preserve">
<g id="Layer_14">
</g>
<g id="rabbitmq">
</g>
<g id="python">
</g>
<g id="golang">
</g>
<g id="django">
</g>
<g id="postgres">
	<rect fill="#33698E" width="200" height="200"/>
	<g>
		<path d="M132,133.2c0.8-7,0.6-8,5.8-6.9l1.3,0.1c4,0.2,9.3-0.6,12.3-2.1c6.6-3.1,10.6-8.2,4-6.9c-14.9,3.1-16-2-16-2
			c15.8-23.4,22.4-53.1,16.7-60.4c-15.5-19.8-42.4-10.5-42.8-10.2l-0.1,0c-3-0.6-6.3-1-10-1c-6.8-0.1-11.9,1.8-15.8,4.7
			c0,0-47.9-19.7-45.7,24.8c0.5,9.5,13.6,71.8,29.2,52.9c5.7-6.9,11.2-12.7,11.2-12.7c2.7,1.8,6,2.8,9.5,2.4l0.3-0.2
			c-0.1,0.9,0,1.7,0.1,2.7c-4,4.5-2.8,5.3-10.9,7c-8.2,1.7-3.4,4.7-0.2,5.5c3.8,0.9,12.6,2.3,18.5-6l-0.2,0.9
			c1.6,1.3,1.5,9.1,1.7,14.7c0.2,5.6,0.6,10.8,1.7,13.9c1.1,3.1,2.5,11,13.1,8.7C124.6,161.3,131.4,158.5,132,133.2"/>
		<path fill="#1C3B4C" d="M112.3,168.7c-4.7,0-7.7-1.8-9.6-3.6c-2.8-2.6-3.9-6-4.6-8.1l-0.3-0.8c-1.3-3.6-1.8-8.8-2.1-15.5
			c0-1-0.1-2-0.1-3.1c0-0.8-0.1-1.8-0.1-2.9c-1.7,0.8-3.4,1.4-5.3,1.7c-3.3,0.6-6.9,0.4-10.6-0.5c-2.6-0.7-5.3-2-6.9-4.1
			c-4.5,3.9-8.8,3.4-11.2,2.6c-4.1-1.4-7.8-5.3-11.3-11.8c-2.5-4.7-4.9-10.8-7.1-18.2c-3.9-12.8-6.4-26.3-6.6-30.8
			c-0.7-13.9,3-23.8,11.1-29.5c12.7-9,32-3.7,39-1.3c4.7-2.8,10.3-4.2,16.6-4.1c3.4,0.1,6.6,0.4,9.6,0.9c3.1-1,9.3-2.4,16.3-2.3
			c13,0.2,23.7,5.2,31.1,14.6c5.2,6.7,2.7,20.8,0.6,28.6c-2.8,11-7.8,22.6-13.9,32.8c1.7,0,4.1-0.2,7.5-0.9c6.7-1.4,8.7,2.2,9.2,3.8
			c2.1,6.5-7.2,11.4-10.1,12.7c-3.7,1.7-9.8,2.8-14.7,2.5l-0.2,0l-1.3-0.1l-0.1,1.1l-0.1,1.1c-0.3,12.9-2.2,21-6,26.4
			c-4,5.6-9.5,7.2-14.3,8.3C115.2,168.6,113.7,168.7,112.3,168.7L112.3,168.7z M102.4,121.9c3,2.4,3.3,7,3.5,15.5
			c0,1.1,0.1,2.1,0.1,3c0.1,2.8,0.4,9.5,1.4,12.3c0.1,0.4,0.3,0.8,0.4,1.2c1.2,3.6,1.7,5.3,6.8,4.3c4.2-0.9,6.4-1.7,8.1-4.1
			c2.5-3.5,3.8-10.6,4.1-21l5.1,0.1l-5.1-0.6l0.2-1.3c0.5-4.2,0.8-7.2,3.6-9.2c2.2-1.6,4.8-1.5,6.9-1.1c-2.2-1.7-2.9-3.7-3-4.5
			l-0.4-2.1l1.2-1.8c6.9-10.3,12.6-22.9,15.7-34.7c3.1-12.1,2.2-18.5,1.2-19.7c-12.6-16.1-34.4-9.4-36.7-8.7l-0.4,0.2l-1.9,0.4
			l-1-0.2c-2.7-0.6-5.8-0.9-9-0.9c-5.1-0.1-9.2,1.1-12.6,3.7l-2.3,1.8l-2.7-1.1c-5.8-2.4-22.9-7.1-31.9-0.8
			c-5,3.5-7.3,10.5-6.8,20.6c0.2,3.3,2.4,16,6.2,28.3c5.2,17,9.9,22.6,11.9,23.3c0.3,0.1,1.2-0.6,2.1-1.6
			c5.8-6.9,11.2-12.7,11.5-12.9l3-3.1l3.6,2.4c1.4,1,3,1.5,4.7,1.6l8.6-7.3l-1.2,12.7c0,0.3,0,0.7,0.1,1.4l0.4,2.4l-1.6,1.8
			l-0.2,0.2l4.7,2.2L102.4,121.9L102.4,121.9z"/>
		<path fill="#33698E" d="M155.5,117.4c-14.9,3.1-16-2-16-2c15.8-23.4,22.4-53.1,16.7-60.4c-15.5-19.8-42.4-10.5-42.8-10.2l-0.1,0
			c-3-0.6-6.3-1-10-1c-6.8-0.1-11.9,1.8-15.8,4.7c0,0-47.9-19.7-45.7,24.8c0.5,9.5,13.6,71.8,29.2,52.9c5.7-6.9,11.2-12.7,11.2-12.7
			c2.7,1.8,6,2.8,9.5,2.4l0.3-0.2c-0.1,0.9,0,1.7,0.1,2.7c-4,4.5-2.8,5.3-10.9,7c-8.2,1.7-3.4,4.7-0.2,5.5c3.8,0.9,12.6,2.3,18.5-6
			l-0.2,0.9c1.6,1.3,2.7,8.2,2.5,14.5c-0.2,6.3-0.3,10.6,0.9,14c1.2,3.4,2.5,11,13.1,8.7c8.9-1.9,13.4-6.8,14.1-15
			c0.5-5.8,1.5-5,1.5-10.2l0.8-2.5c0.9-7.9,0.2-10.5,5.6-9.3l1.3,0.1c4,0.2,9.3-0.6,12.4-2.1C158.1,121.2,162,116.1,155.5,117.4z"/>
		<path fill="#FFFFFF" d="M112.8,165.5c-8.8,0-11.6-7-12.8-9.9c-1.7-4.2-2-20.5-1.7-33.8c0-0.9,0.8-1.7,1.8-1.7
			c0.9,0,1.7,0.8,1.7,1.8c-0.4,15.4,0.2,29.3,1.4,32.4c1.9,4.8,4.9,9.1,13.2,7.3c7.9-1.7,10.8-4.7,12.1-12.3c1-5.8,3-22.5,3.2-25.8
			c0.1-0.9,0.9-1.7,1.8-1.6c0.9,0.1,1.6,0.9,1.6,1.8c-0.3,3.4-2.2,20-3.3,26.1c-1.6,9-5.6,13.1-14.8,15.1
			C115.5,165.4,114.1,165.5,112.8,165.5L112.8,165.5z M64.9,131.4c-0.8,0-1.6-0.2-2.3-0.4c-5.7-1.9-11.2-11.3-16.2-27.8
			c-3.8-12.6-6.3-25.7-6.5-30c-0.6-12.6,2.6-21.6,9.7-26.6c14-9.9,37.4-0.5,38.4-0.1c0.9,0.4,1.3,1.4,0.9,2.2
			c-0.4,0.9-1.4,1.3-2.2,0.9c-0.2-0.1-22.7-9.1-35.1-0.3c-6,4.3-8.8,12.2-8.2,23.6c0.2,3.6,2.4,16.4,6.3,29.1
			c4.5,14.7,9.6,24,14,25.5c0.7,0.2,2.8,0.9,5.8-2.7c5.7-6.8,10.9-12.3,11-12.4c0.7-0.7,1.7-0.7,2.4-0.1s0.7,1.7,0.1,2.4
			c-0.1,0.1-5.2,5.4-10.8,12.2C69.6,130.5,67,131.4,64.9,131.4L64.9,131.4z M139.4,117c-0.3,0-0.7-0.1-1-0.3c-0.8-0.5-1-1.6-0.5-2.4
			c15.9-23.7,21.5-52.2,16.7-58.4c-6-7.7-14.6-11.7-25.3-12c-8-0.2-14.3,1.9-15.3,2.2l-0.3,0.1c-1,0.3-1.8-0.2-2.1-0.9
			c-0.4-0.8-0.1-1.7,0.7-2.2c0,0,0.2-0.1,0.5-0.2l0,0l0,0c1.8-0.6,8.2-2.6,16.2-2.5c11.9,0.1,21.8,4.7,28.5,13.3
			c3.2,4.1,3.2,13.4,0,25.6c-3.2,12.5-9.3,25.9-16.6,36.8C140.5,116.7,140,117,139.4,117L139.4,117z M140.2,127.9
			c-2.7,0-5.2-0.4-6.6-1.3c-1.5-0.9-1.8-2.1-1.8-2.8c-0.4-7.2,3.6-8.5,5.6-9c-0.3-0.4-0.7-0.9-1.1-1.4c-1.2-1.5-2.8-3.5-4-6.5
			c-0.2-0.5-0.8-1.6-1.5-2.8c-3.8-6.9-11.8-21.2-6.7-28.5c2.4-3.4,7.1-4.7,14.1-4c-2-6.2-11.8-25.8-35-26.2c-7-0.1-12.7,2-17,6.4
			c-9.6,9.7-9.3,27.3-9.3,27.4c0,0.9-0.7,1.7-1.7,1.8c-0.9,0-1.7-0.7-1.8-1.7c0-0.8-0.4-19.2,10.2-29.9c5-5,11.5-7.5,19.5-7.4
			c14.8,0.2,24.4,7.8,29.7,14.1c5.9,6.8,8.8,14.4,9,16.9c0.2,1.9-1.2,2.2-1.4,2.3l-0.6,0c-6.8-1.1-11.2-0.3-13,2.3
			c-3.9,5.6,3.7,19.1,6.9,24.9c0.8,1.5,1.4,2.5,1.7,3.2c1.1,2.6,2.4,4.3,3.6,5.7c1,1.2,1.8,2.3,2.1,3.5c0.1,0.2,2.1,3.2,14,0.8
			c3-0.6,4.7-0.1,5.3,1.6c1.1,3.2-4.9,7-8.3,8.5C149.1,127,144.3,127.9,140.2,127.9L140.2,127.9z M135.2,123.6
			c0.4,0.4,2.3,1,6.1,0.9c3.5-0.1,7.1-0.9,9.3-1.9c2.8-1.3,4.7-2.8,5.6-3.7l-0.5,0.1c-7.6,1.6-12.9,1.4-15.9-0.6
			c-0.2-0.1-0.4-0.3-0.6-0.4c-0.3,0.1-0.6,0.2-0.8,0.3C136.7,118.6,135,119.1,135.2,123.6L135.2,123.6z M86.3,133.2
			c-1.9,0-3.9-0.3-5.9-0.8c-2.1-0.5-5.6-2.1-5.6-4.7c0.1-2.9,4.3-3.8,5.9-4.1c5.7-1.2,6.1-1.7,7.9-3.9c0.5-0.7,1.2-1.5,2.1-2.5
			c1.3-1.5,2.8-2.2,4.3-2.2c1.1,0,1.9,0.4,2.5,0.6c1.8,0.8,3.4,2.6,4,4.8c0.6,2,0.3,3.9-0.8,5.4C97.3,130.6,92.3,133.2,86.3,133.2z
			 M78.6,127.9c0.5,0.4,1.5,0.9,2.7,1.2c1.7,0.4,3.4,0.7,5,0.7c4.9,0,8.8-2,11.6-6c0.6-0.8,0.4-1.9,0.3-2.4c-0.3-1.2-1.2-2.2-2-2.6
			c-0.5-0.2-0.8-0.3-1.2-0.3c-0.2,0-0.8,0-1.7,1.1c-0.8,0.9-1.4,1.7-1.9,2.3c-2.2,2.8-3.3,3.8-9.9,5.2
			C79.8,127.3,79,127.6,78.6,127.9L78.6,127.9z M91.7,120c-0.8,0-1.6-0.6-1.7-1.5c0-0.3-0.1-0.6-0.1-0.9c-4.4-0.1-8.6-2-11.8-5.3
			c-4-4.2-5.9-10-5-16c0.9-6.5,0.6-12.2,0.4-15.3c-0.1-0.9-0.1-1.5-0.1-1.9c0-0.5,0-2,4.8-4.4c1.7-0.9,5.1-2.4,8.9-2.8
			c6.2-0.6,10.3,2.1,11.5,7.8c3.3,15.3,0.3,22-2,26.9c-0.4,0.9-0.8,1.8-1.1,2.6l-0.3,0.7c-1.2,3.1-2.2,5.9-1.9,7.9
			c0.1,0.9-0.5,1.8-1.4,2L91.7,120L91.7,120z M76.9,79.7l0.1,1.2c0.2,3.2,0.5,9.1-0.4,15.9c-0.7,4.9,0.8,9.7,4.1,13.2
			c2.6,2.7,6.1,4.2,9.6,4.2h0.1c0.4-1.7,1.1-3.4,1.8-5.3l0.3-0.7c0.4-0.9,0.8-1.9,1.2-2.8c2.1-4.7,4.8-10.7,1.7-24.8
			c-0.6-2.8-2.1-4.4-4.5-5C85.9,74.5,78.5,78.2,76.9,79.7L76.9,79.7z M90.3,82l-0.4,0c-1-0.1-1.9-0.7-2.6-1.6
			c-0.2-0.3-0.6-0.9-0.5-1.5c0.1-0.8,1.1-1.3,2.6-1.3c0.3,0,0.7,0,1,0.1c0.8,0.1,1.6,0.4,2.1,0.7c1,0.5,1,1.2,1,1.5
			C93.3,80.7,91.9,82,90.3,82z M131.5,80.5c-1.5,0-2.8-1.2-2.9-1.9c-0.1-0.9,1.4-1.6,2.9-1.8c0.3,0,0.7-0.1,1-0.1
			c1.3,0,2.2,0.4,2.3,1c0.1,0.4-0.3,1-0.8,1.6c-0.4,0.4-1.1,1-2.1,1.2L131.5,80.5z M136.8,112.5c-0.3,0-0.7-0.1-1-0.3
			c-0.8-0.5-1-1.6-0.5-2.4c3.6-5.4,3-11,2.3-16.4c-0.3-2.3-0.6-4.7-0.5-6.9c0.1-2.3,0.4-4.3,0.7-6.1c0.3-2.2,0.7-4.3,0.5-6.8
			c-0.1-0.9,0.7-1.7,1.6-1.8c0.9-0.1,1.8,0.7,1.8,1.6c0.2,2.8-0.2,5.2-0.6,7.5c-0.3,1.8-0.6,3.6-0.6,5.7c-0.1,2,0.2,4.1,0.5,6.4
			c0.7,5.7,1.5,12.2-2.9,18.7C137.9,112.2,137.4,112.5,136.8,112.5L136.8,112.5z"/>
		<path fill="none" stroke="#FFFFFF" stroke-width="3" stroke-linecap="round" stroke-linejoin="round" d="M36,54.8"/>
	</g>
</g>
<g id="centos">
</g>
<g id="fedora">
</g>
<g id="ruby">
</g>
<g id="rails">
</g>
<g id="ubuntu">
</g>
<g id="php">
</g>
<g id="java">
</g>
<g id="deer-resume">
</g>
<g id="_x32_048">
</g>
<g id="redis">
</g>
<g id="wordpress">
</g>
<g id="ghost">
</g>
<g id="phpmyadmin">
</g>
<g id="mongo-express">
</g>
<g id="earth">
</g>
<g id="nginx">
</g>
<g id="mysql">
</g>
<g id="mongo-db">
</g>
<g id="docker">
</g>
<g id="tomcat">
</g>
</svg>
