<svg xmlns="http://www.w3.org/2000/svg" viewBox="0 0 200 200" enable-background="new 0 0 200 200"><g><path fill="#5F0602" d="M0 0h200v200h-200z"/><path d="M162.208 131.366c-7.204 3.755-44.524 19.1-52.47 23.241-7.945 4.143-12.359 4.103-18.635 1.102s-45.992-19.043-53.146-22.462c-3.576-1.709-5.456-3.151-5.456-4.514v-13.646s51.704-11.256 60.051-14.25c8.347-2.995 11.243-3.103 18.346-.501 7.104 2.602 49.578 10.266 56.599 12.837l-.003 13.452c.001 1.351-1.619 2.831-5.286 4.741z" fill="#A41E11"/><path d="M162.208 117.717c-7.204 3.754-44.524 19.1-52.47 23.241-7.945 4.143-12.359 4.103-18.635 1.102-6.277-2.999-45.992-19.044-53.146-22.462-7.154-3.42-7.304-5.773-.276-8.525 7.027-2.753 46.524-18.249 54.872-21.244 8.347-2.993 11.243-3.103 18.346-.5 7.104 2.602 44.201 17.368 51.221 19.939 7.022 2.575 7.292 4.694.088 8.449z" fill="#D82C20"/><path d="M162.208 109.115c-7.204 3.755-44.524 19.1-52.47 23.243-7.945 4.142-12.359 4.101-18.635 1.101-6.277-2.999-45.992-19.043-53.146-22.462-3.576-1.709-5.456-3.15-5.456-4.512v-13.648s51.704-11.255 60.051-14.25c8.347-2.994 11.243-3.103 18.346-.501 7.104 2.602 49.578 10.264 56.599 12.836l-.003 13.453c.001 1.349-1.619 2.829-5.286 4.74z" fill="#A41E11"/><path d="M162.208 95.465c-7.204 3.755-44.524 19.1-52.47 23.243-7.945 4.142-12.359 4.101-18.635 1.101-6.277-2.999-45.992-19.043-53.146-22.462s-7.304-5.772-.276-8.525c7.027-2.751 46.524-18.248 54.872-21.242 8.347-2.994 11.243-3.103 18.346-.501 7.104 2.602 44.201 17.367 51.221 19.939 7.022 2.572 7.292 4.692.088 8.447z" fill="#D82C20"/><path d="M162.208 86.038c-7.204 3.755-44.524 19.101-52.47 23.244-7.945 4.142-12.359 4.101-18.635 1.101-6.277-2.999-45.992-19.043-53.146-22.462-3.576-1.709-5.456-3.15-5.456-4.512v-13.648s51.704-11.255 60.051-14.249c8.347-2.995 11.243-3.103 18.346-.501 7.104 2.602 49.578 10.264 56.599 12.836l-.003 13.453c.001 1.347-1.619 2.827-5.286 4.738z" fill="#A41E11"/><!-- Copyright: Jamie Fang @ DaoCloud --><path d="M162.208 72.388c-7.204 3.755-44.524 19.101-52.47 23.243-7.945 4.142-12.359 4.101-18.635 1.101-6.276-3-45.992-19.043-53.146-22.462-7.154-3.419-7.304-5.773-.276-8.525 7.027-2.752 46.524-18.247 54.872-21.242 8.347-2.995 11.243-3.103 18.346-.5 7.104 2.602 44.201 17.367 51.221 19.939 7.022 2.571 7.292 4.692.088 8.446z" fill="#D82C20"/><path fill="#fff" d="M117.689 59.246l-11.698 1.215-2.618 6.301-4.23-7.031-13.507-1.215 10.079-3.634-3.024-5.579 9.436 3.69 8.896-2.912-2.405 5.769zM102.674 89.815l-21.831-9.055 31.283-4.801z"/><ellipse cx="72.407" cy="69.23" rx="16.72" ry="6.481" fill="#fff"/><path fill="#7A0C00" d="M131.513 60.968l18.514 7.317-18.498 7.309z"/><path fill="#AD2115" d="M111.031 69.071l20.482-8.103.016 14.626-2.008.786z"/></g></svg>