<svg id="配置中心" xmlns="http://www.w3.org/2000/svg" viewBox="0 0 100 100"><defs><style>.cls-1{fill:#ffaa45;}.cls-2{fill:#fff;}</style></defs><title>配置中心</title><rect class="cls-1" width="100" height="100"/><g id="docker-image"><path class="cls-2" d="M76.69,29V80.42H25.26v-60H68.12V16.14H25.26A4.29,4.29,0,0,0,21,20.42v60a4.29,4.29,0,0,0,4.29,4.29H76.69A4.29,4.29,0,0,0,81,80.42V29Z"/><path class="cls-2" d="M70.26,16.14v6.21a4.5,4.5,0,0,0,4.5,4.5H81Z"/></g><path id="setting" class="cls-2" d="M62.57,50.42a11.62,11.62,0,0,0-.14-1.7l3.68-3-3.55-6.11-4.39,1.7a11.57,11.57,0,0,0-2.95-1.7L54.51,35H47.44l-.72,4.65a11.57,11.57,0,0,0-2.95,1.7l-4.39-1.7-3.55,6.11,3.68,3a10.51,10.51,0,0,0,0,3.39l-3.68,3,3.55,6.11,4.39-1.7a11.57,11.57,0,0,0,2.95,1.7l.72,4.65h7.07l.72-4.65a11.57,11.57,0,0,0,2.95-1.7l4.39,1.7,3.55-6.11-3.68-3A11.62,11.62,0,0,0,62.57,50.42ZM50.94,56.16a5.74,5.74,0,1,1,5.74-5.74A5.74,5.74,0,0,1,50.94,56.16Z"/></svg>