<svg xmlns="http://www.w3.org/2000/svg" viewBox="0 0 200 200" enable-background="new 0 0 200 200"><g><path fill="#3E2B19" d="M0 0h200v200h-200z"/><path d="M127.592 146.151c.198-.38.387-.715.548-1.063.102-.222.258-.267.479-.261 1.325.037 2.649.078 3.975.091 1.126.012 2.254-.009 3.381-.022 1.27-.015 2.539-.082 3.808-.046 1.689.049 3.336.38 4.864 1.132 1.825.899 3.206 2.268 4.147 4.072.601 1.152.949 2.373 1.088 3.671.201 1.88.069 3.717-.527 5.515-.739 2.228-2.142 3.934-4.091 5.212-1.5.983-3.145 1.564-4.908 1.896-1.866.352-3.738.239-5.609.244-2.053.008-4.105-.036-6.158-.06-.359-.004-.41-.071-.316-.414l.088-.316c.2-.629.307-.657.946-.762.442-.071.9-.237 1.271-.483.215-.143.304-.514.388-.801.072-.25.076-.525.078-.789.029-4.004.06-8.007.076-12.009.004-1.011-.02-2.025-.076-3.035-.04-.707-.417-1.191-1.259-1.359-.655-.13-1.314-.23-1.972-.346l-.221-.067zm18.795 9.696c-.089-.797-.132-1.602-.275-2.387-.341-1.886-1.167-3.528-2.617-4.816-2.344-2.08-5.166-2.4-8.124-2.152-.673.056-.818.286-.829.979-.016.982-.033 1.964-.034 2.946-.005 3.115-.005 6.229 0 9.344.001.886.011 1.772.036 2.656.028.905.357 1.671 1.243 2.021 1.397.553 2.867.618 4.333.393 2.342-.359 3.98-1.723 5.079-3.768.87-1.623 1.116-3.395 1.188-5.216zm5.692 10.605c-.028-.485.171-.886.416-1.254.067-.099.296-.095.454-.126l1.34-.265c.473-.101.723-.419.789-.883.044-.306.087-.616.09-.926.029-2.452.057-4.903.069-7.355.012-2.455.002-4.91.002-7.365l-.011-.469c-.048-.789-.429-1.198-1.212-1.314l-1.699-.258c-.209-.028-.285-.129-.209-.314.131-.317.256-.645.441-.931.069-.105.302-.146.458-.143.811.012 1.623.072 2.434.071l7.063-.042c1.361-.001 2.675.236 3.896.887 1.343.715 2.095 1.823 2.31 3.331.224 1.584-.256 2.919-1.413 3.98-.476.437-1.092.723-1.644 1.078l-.18.112c.512.188 1 .351 1.474.545 1.389.569 2.494 1.459 3.078 2.88.462 1.121.462 2.29.188 3.452-.426 1.819-1.624 3.029-3.182 3.945-1.463.859-3.046 1.36-4.731 1.444-1.555.078-3.117.049-4.675.067l-.903.005c-1.501-.034-3.003-.072-4.506-.112l-.137-.04zm6.474-7.119h.015c0 .769-.011 1.539.004 2.308.009.498-.008 1.01.099 1.489.161.717.489 1.363 1.293 1.569 1.086.279 2.196.336 3.295.145 1.376-.24 2.474-.929 3.076-2.24.447-.974.513-2.006.36-3.061-.203-1.389-.941-2.397-2.168-3.057-.804-.434-1.662-.699-2.577-.734-1.024-.039-2.049-.041-3.074-.072-.288-.008-.327.138-.326.374.006 1.092.003 2.185.003 3.279zm2.18-5.231c.56-.028 1.194-.036 1.824-.099 1.207-.12 2.056-.727 2.5-1.881.226-.586.216-1.189.222-1.798.018-1.587-.908-2.887-2.415-3.424-1.163-.415-2.363-.422-3.569-.389-.489.013-.707.227-.714.719l-.072 6.417c-.004.255.106.365.354.373l1.87.082z" fill="#F8DEAC"/><path d="M37.902 165.219l-.085 1.104c-.795 0-1.528-.006-2.261.002-1.381.014-2.761.036-4.143.056l-.133.008c-.198-.023-.557-.023-.566-.082-.058-.329-.04-.673-.025-1.014.001-.039.136-.088.214-.106l1.074-.24c.67-.174.906-.463.938-1.155.036-.78.072-1.561.076-2.341.011-1.92-.001-3.837.007-5.757.001-.449-.154-.783-.573-.966-.498-.22-.998-.435-1.502-.638-.239-.096-.548-.148-.52-.469.028-.326.329-.412.611-.476 1.171-.268 2.344-.528 3.512-.814.376-.092.737-.248 1.187-.405.023.243.067.475.062.706l-.069 1.1c-.001.124.063.29.155.359.056.043.244-.035.338-.108.998-.76 2.055-1.416 3.261-1.798 1.867-.593 3.47-.043 4.592 1.567.395.567.396.567.945.171.941-.684 1.926-1.287 3.027-1.685 2.418-.873 4.741.235 5.581 2.67.306.884.423 1.797.421 2.73l-.022 6.194c-.001.511.168.802.655.961.546.179 1.112.302 1.727.463l-.143 1.065c-.699 0-1.342-.005-1.985.001-1.571.014-3.143.022-4.713.058-.274.007-.345-.061-.359-.317-.046-.82-.053-.818.719-1.003l.26-.067c.754-.206 1.005-.437 1.011-1.202.018-2.196.063-4.397-.048-6.588-.116-2.273-1.92-3.483-4.122-2.901-.719.189-1.37.521-1.976.952-.205.146-.243.314-.227.571.062.968.101 1.937.109 2.906.014 1.696-.007 3.393 0 5.09.002.687.237.951.917 1.109l1.009.233.187.042c.014.323.027.645.012.968-.009.202-.166.22-.341.216-.981-.025-1.963-.057-2.944-.055-1.194.002-2.386.036-3.579.057h-.283c0-.343-.016-.67.012-.996.006-.078.144-.188.239-.213l1.176-.249c.499-.123.738-.379.766-.886.133-2.35.229-4.701.008-7.05-.043-.456-.192-.919-.381-1.339-.602-1.33-1.957-1.886-3.52-1.486-.742.189-1.412.53-2.046.959-.299.203-.442.472-.442.813 0 2.344.008 4.688.015 7.031l.013.904c.014.63.282.962.907 1.098.402.096.809.158 1.265.242zM108.585 152.168c.181.882.178 1.674-.47 2.275-.643.597-1.457.396-2.251.263.074.419.155.774.195 1.134.289 2.676-.863 4.662-3.345 5.798-.938.428-1.933.587-2.949.669-.505.04-.947.426-.995.841-.049.421.215.853.744.98.623.148 1.273.191 1.913.264 1.373.157 2.76.228 4.116.473 2.051.369 3.195 2.159 2.834 4.219-.322 1.833-1.383 3.167-2.863 4.19-2.494 1.728-5.229 2.233-8.143 1.352-1.666-.505-2.841-1.601-3.247-3.373-.203-.887.013-1.691.68-2.293.794-.713 1.658-1.349 2.489-2.023l.269-.27-.309-.216c-.848-.402-1.526-.953-1.789-1.909-.09-.324.004-.537.278-.703.468-.282.933-.568 1.395-.859.217-.136.433-.276.635-.433.276-.21.251-.367-.078-.489-.767-.283-1.449-.693-1.977-1.325-.883-1.053-1.133-2.308-1.06-3.632.113-2.069 1.237-3.433 3.063-4.309 2.171-1.042 4.349-1.107 6.562-.158.818.351 1.681.426 2.559.365.657-.047 1.23-.295 1.744-.831zm-8.001 14.825c-1.63-.014-2.141.187-3.097 1.161-1.071 1.092-1.065 2.606.004 3.703.811.831 1.824 1.221 2.95 1.337 1.315.136 2.611.081 3.805-.578 1.274-.705 1.908-2.014 1.622-3.333-.237-1.088-1.039-1.587-2.016-1.873-1.111-.324-2.259-.386-3.268-.417zm-3.201-10.414c.06.452.084.911.185 1.354.261 1.148.76 2.157 1.902 2.668 1.341.602 3.054.344 3.641-1.539.402-1.29.353-2.57-.132-3.828-.216-.561-.565-1.036-1.064-1.384-1.164-.813-3.265-.92-4.121.876-.279.583-.387 1.204-.411 1.853zM80.934 151.879c.043.2.13.427.132.655.004.434-.043.867-.068 1.301v.376l.367-.281c1.005-.828 2.086-1.533 3.344-1.913 2.27-.684 4.539.559 5.279 2.871.281.879.392 1.783.402 2.702.023 2.041.037 4.083.058 6.124.007.733.091.864.784 1.076.393.12.799.205 1.204.268.223.035.319.123.307.341l.002.201c-.008.845-.067.884-.886.882-1.962-.003-3.922.008-5.884.025-.585.005-.586.022-.644-.555l-.012-.332c.036-.498.048-.493.538-.566.33-.049.657-.125.979-.209.331-.085.49-.33.534-.657.022-.166.051-.332.05-.498-.028-2.231.008-4.464-.113-6.691-.098-1.802-1.473-2.875-3.282-2.752-.887.062-1.689.358-2.421.869-.483.338-.58.825-.578 1.35.009 2.086.029 4.171.051 6.258.005.457.018.914.061 1.368.046.496.22.696.706.803.465.103.94.163 1.437.246l.042.383c.016.894-.077.961-.946.958-2.028-.008-4.057.005-6.084.027-.319.005-.455-.096-.447-.407l-.005-.133c-.053-.806-.029-.836.733-.967l.36-.072c.825-.186 1.037-.406 1.049-1.244.039-2.655.053-5.309.079-7.964.004-.381-.14-.677-.496-.835-.498-.22-1.001-.429-1.505-.636-.278-.115-.596-.187-.607-.572-.007-.271.283-.511.679-.592.796-.161 1.599-.296 2.386-.493.787-.196 1.557-.458 2.415-.715zM124.793 158.814c-.037 2.48-.682 4.485-2.435 5.989-2.221 1.909-5.687 2.558-8.519 1.131-1.209-.609-2.097-1.543-2.676-2.756-.887-1.865-1.109-3.825-.647-5.834.458-1.986 1.661-3.426 3.462-4.357 1.852-.958 3.802-1.332 5.858-.829 2.601.635 4.471 2.756 4.843 5.456.066.474.092.954.114 1.2zm-3.013 1.344l-.101-.012c0-.234.013-.468-.002-.701-.085-1.457-.413-2.844-1.257-4.064-.801-1.155-1.892-1.837-3.311-1.936-1.589-.112-2.924.776-3.393 2.399-.704 2.436-.465 4.811.772 7.043.539.973 1.337 1.691 2.407 2.068 2.096.738 3.955-.217 4.501-2.364.202-.793.261-1.622.384-2.433zM73.298 159.006c-.043 1.779-.463 3.424-1.562 4.854-1.177 1.532-2.795 2.35-4.636 2.695-2.176.407-4.219.037-5.967-1.423-.83-.694-1.397-1.584-1.771-2.597-.614-1.66-.767-3.361-.389-5.095.403-1.855 1.451-3.274 3.075-4.225 1.878-1.098 3.904-1.588 6.068-1.094 2.783.636 4.389 2.449 4.983 5.194.118.555.135 1.127.199 1.691zm-3.047 1.174l-.081-.012v-.334c-.046-1.632-.365-3.187-1.339-4.543-.721-1.007-1.687-1.638-2.925-1.814-2.018-.288-3.337.91-3.774 2.536-.571 2.124-.392 4.223.491 6.237.551 1.256 1.42 2.234 2.757 2.709 2.083.74 3.97-.24 4.498-2.378.194-.783.253-1.599.373-2.401z" fill="#FEFEFE"/><linearGradient id="a" gradientUnits="userSpaceOnUse" x1="-443.575" y1="-689.745" x2="-508.111" y2="-731.14" gradientTransform="matrix(.183 0 0 .183 208.124 224.361)"><!-- Copyright: Jamie Fang @ DaoCloud --><stop offset="0" stop-color="#E3E2CE"/><stop offset=".451" stop-color="#CECEB5"/><stop offset="1" stop-color="#95966F"/></linearGradient><path d="M99.144 25.127c-.309-.049.635 1.788-1.63 4.658-2.441 3.093-22.093 15.809-22.705 50.068-.417 23.338 18.021 39.633 22.707 42.67 0 0 1.728 6.001 1.785 13.082l3.098.807c-.369-7.281-.477-11.489 1.627-14.703 2.951-1.389 21.542-17.301 20.749-41.905-.945-29.309-17.403-42.019-22.086-48.13-2.025-2.641-2.891-6.49-3.545-6.547z" fill="url(#a)"/><linearGradient id="b" gradientUnits="userSpaceOnUse" x1="-525.278" y1="-574.636" x2="-525.48" y2="-1070.988" gradientTransform="matrix(.183 0 0 .183 208.124 224.361)"><stop offset="0" stop-color="#198332"/><stop offset="1" stop-color="#24933B"/></linearGradient><path d="M99.144 25.127c1.704 5.51 1.389 30.601 1.757 54.678.334 21.836-3.77 38.783 3.125 41.904 2.951-1.389 21.542-17.301 20.749-41.905-.945-29.309-17.403-42.019-22.086-48.13-2.025-2.641-2.891-6.49-3.545-6.547z" fill="url(#b)"/><linearGradient id="c" gradientUnits="userSpaceOnUse" x1="-733.538" y1="-698.057" x2="-486.664" y2="-928.144" gradientTransform="matrix(.183 0 0 .183 208.124 224.361)"><stop offset="0" stop-color="#0F9B36"/><stop offset="1" stop-color="#64BB66"/></linearGradient><path d="M99.146 25.126c-.309-.049.63 1.789-1.636 4.66-2.441 3.093-22.092 15.808-22.704 50.067-.417 23.338 18.026 39.629 22.713 42.668 1.289-.592 1.906-6.674 2.467-13.721.042-7.471 1.086-17.554.91-28.99-.345-22.572-.088-46.042-1.459-53.426l-.009-.053c-.091-.403-.185-.804-.282-1.205z" fill="url(#c)"/></g></svg>