<?xml version="1.0" encoding="utf-8"?>
<!-- Generator: Adobe Illustrator 18.0.0, SVG Export Plug-In . SVG Version: 6.00 Build 0)  -->
<!DOCTYPE svg PUBLIC "-//W3C//DTD SVG 1.1//EN" "http://www.w3.org/Graphics/SVG/1.1/DTD/svg11.dtd">
<svg version="1.1" xmlns="http://www.w3.org/2000/svg" xmlns:xlink="http://www.w3.org/1999/xlink" x="0px" y="0px"
	 viewBox="0 0 200 200" enable-background="new 0 0 200 200" xml:space="preserve">
<g id="Layer_14">
</g>
<g id="rabbitmq">
</g>
<g id="python">
</g>
<g id="golang">
</g>
<g id="django">
</g>
<g id="postgres">
</g>
<g id="centos">
</g>
<g id="fedora">
	<rect fill="#1A2535" width="200" height="200"/>
	<g>
		<g id="voice">
			<path fill="#294172" d="M162.5,100c0-34.5-28-62.5-62.5-62.5c-34.5,0-62.5,28-62.5,62.5v48.4c0,7.8,6.4,14.2,14.2,14.2H100
				C134.5,162.5,162.5,134.5,162.5,100"/>
		</g>
		<g>
			<path fill="#3C6EB4" d="M73.5,155.8c-16.2,0-29.3-13.2-29.3-29.3s13.2-29.3,29.3-29.3h29.3v29.3
				C102.9,142.7,89.7,155.8,73.5,155.8z M73.5,110.9c-8.6,0-15.6,7-15.6,15.6s7,15.6,15.6,15.6s15.6-7,15.6-15.6v-15.6H73.5z"/>
			<path fill="#3C6EB4" d="M118.3,110.9H89V81.6c0-16.2,13.2-29.3,29.3-29.3s29.3,13.2,29.3,29.3S134.5,110.9,118.3,110.9z
				 M102.7,97.2h15.6c8.6,0,15.6-7,15.6-15.6S127,66,118.3,66s-15.6,7-15.6,15.6V97.2z"/>
			<path fill="#FFFFFF" d="M124.8,53.2c-2.3-0.6-4-0.9-6.5-0.9C102.1,52.3,89,65.5,89,81.6v15.5H76.7c-3.8,0-6.9,3-6.9,6.8
				c0,3.8,3.1,6.8,6.9,6.8l10.2,0c1.2,0,2.2,1,2.2,2.2v13.5c0,8.5-6.9,15.5-15.5,15.5c-2.9,0-3.6-0.4-5.6-0.4
				c-4.1,0-6.9,2.8-6.9,6.6c0,3.2,2.7,5.9,6,6.8c2.3,0.6,4,0.9,6.5,0.9c16.2,0,29.3-13.1,29.3-29.3v-15.5h12.3c3.8,0,6.9-3,6.9-6.8
				c0-3.8-3.1-6.8-6.9-6.8l-10.2,0c-1.2,0-2.2-1-2.2-2.2V81.6c0-8.5,6.9-15.5,15.5-15.5c2.9,0,3.6,0.4,5.6,0.4
				c4.1,0,6.9-2.8,6.9-6.6C130.9,56.8,128.1,54.1,124.8,53.2z"/>
		</g>
	</g>
</g>
<g id="ruby">
</g>
<g id="rails">
</g>
<g id="ubuntu">
</g>
<g id="php">
</g>
<g id="java">
</g>
<g id="deer-resume">
</g>
<g id="_x32_048">
</g>
<g id="redis">
</g>
<g id="wordpress">
</g>
<g id="ghost">
</g>
<g id="phpmyadmin">
</g>
<g id="mongo-express">
</g>
<g id="earth">
</g>
<g id="nginx">
</g>
<g id="mysql">
</g>
<g id="mongo-db">
</g>
<g id="docker">
</g>
<g id="tomcat">
</g>
</svg>
